<svg width="24" height="24" viewBox="0 0 24 24" fill="none" xmlns="http://www.w3.org/2000/svg">
<path d="M9.90649 18.1421C9.9064 18.1905 9.86791 18.2289 9.81958 18.229C9.78338 18.229 9.75273 18.2074 9.7395 18.1763L9.73267 18.1421C9.73267 18.0936 9.7711 18.0552 9.81958 18.0552L9.85376 18.062C9.88486 18.0753 9.90649 18.1059 9.90649 18.1421Z" fill="black" stroke="black"/>
<mask id="path-2-inside-1_277_80" fill="white">
<path d="M5.2974 8.31965C5.2125 8.30938 5.12873 8.30417 5.04847 8.30417C3.91366 8.30417 2.99036 9.22742 2.99036 10.3622C2.99036 11.497 3.91366 12.4203 5.04847 12.4203C5.11381 12.4203 5.18107 12.417 5.24842 12.4104C5.3565 12.4 5.45523 12.3446 5.52047 12.2578C5.58576 12.171 5.61157 12.0608 5.5916 11.9541C5.48667 11.392 5.43562 10.8712 5.43562 10.3622C5.43562 9.83403 5.49988 9.30747 5.62664 8.79718C5.65338 8.68951 5.63263 8.57555 5.56966 8.48419C5.50659 8.39294 5.40754 8.33302 5.2974 8.31965ZM4.75108 11.6114C4.18607 11.4769 3.76455 10.9679 3.76455 10.3623C3.76455 9.7499 4.19547 9.23635 4.76997 9.10881C4.69781 9.52182 4.66138 9.94164 4.66138 10.3623C4.66132 10.7691 4.69085 11.1814 4.75108 11.6114Z"/>
</mask>
<path d="M5.2974 8.31965C5.2125 8.30938 5.12873 8.30417 5.04847 8.30417C3.91366 8.30417 2.99036 9.22742 2.99036 10.3622C2.99036 11.497 3.91366 12.4203 5.04847 12.4203C5.11381 12.4203 5.18107 12.417 5.24842 12.4104C5.3565 12.4 5.45523 12.3446 5.52047 12.2578C5.58576 12.171 5.61157 12.0608 5.5916 11.9541C5.48667 11.392 5.43562 10.8712 5.43562 10.3622C5.43562 9.83403 5.49988 9.30747 5.62664 8.79718C5.65338 8.68951 5.63263 8.57555 5.56966 8.48419C5.50659 8.39294 5.40754 8.33302 5.2974 8.31965ZM4.75108 11.6114C4.18607 11.4769 3.76455 10.9679 3.76455 10.3623C3.76455 9.7499 4.19547 9.23635 4.76997 9.10881C4.69781 9.52182 4.66138 9.94164 4.66138 10.3623C4.66132 10.7691 4.69085 11.1814 4.75108 11.6114Z" fill="black"/>
<path d="M5.2974 8.31965L5.41789 7.32694L5.4175 7.32689L5.2974 8.31965ZM5.24842 12.4104L5.15193 11.4151L5.15156 11.4151L5.24842 12.4104ZM5.52047 12.2578L4.72144 11.6565L4.72104 11.657L5.52047 12.2578ZM5.5916 11.9541L4.60858 12.1376L4.60866 12.138L5.5916 11.9541ZM5.62664 8.79718L6.59715 9.03826L6.59716 9.03818L5.62664 8.79718ZM5.56966 8.48419L6.39302 7.91668L6.39229 7.91561L5.56966 8.48419ZM4.75108 11.6114L4.51949 12.5842L5.94461 12.9235L5.74141 11.4727L4.75108 11.6114ZM4.76997 9.10881L5.75505 9.28091L6.01226 7.80869L4.55325 8.13258L4.76997 9.10881ZM4.66138 10.3623L5.66138 10.3624V10.3623H4.66138ZM5.2974 8.31965L5.4175 7.32689C5.29535 7.31211 5.17141 7.30417 5.04847 7.30417V8.30417V9.30417C5.08605 9.30417 5.12965 9.30665 5.1773 9.31241L5.2974 8.31965ZM5.04847 8.30417V7.30417C3.36141 7.30417 1.99036 8.6751 1.99036 10.3622H2.99036H3.99036C3.99036 9.77974 4.46591 9.30417 5.04847 9.30417V8.30417ZM2.99036 10.3622H1.99036C1.99036 12.0494 3.36141 13.4203 5.04847 13.4203V12.4203V11.4203C4.46591 11.4203 3.99036 10.9447 3.99036 10.3622H2.99036ZM5.04847 12.4203V13.4203C5.1471 13.4203 5.24669 13.4153 5.34528 13.4057L5.24842 12.4104L5.15156 11.4151C5.11544 11.4187 5.08052 11.4203 5.04847 11.4203V12.4203ZM5.24842 12.4104L5.34491 13.4058C5.73205 13.3682 6.08595 13.1699 6.3199 12.8585L5.52047 12.2578L4.72104 11.657C4.82452 11.5193 4.98095 11.4317 5.15193 11.4151L5.24842 12.4104ZM5.52047 12.2578L6.3195 12.8591C6.55361 12.548 6.64614 12.1528 6.57453 11.7701L5.5916 11.9541L4.60866 12.138C4.57699 11.9688 4.61791 11.7941 4.72144 11.6565L5.52047 12.2578ZM5.5916 11.9541L6.57462 11.7706C6.47961 11.2617 6.43562 10.8027 6.43562 10.3622H5.43562H4.43562C4.43562 10.9398 4.49372 11.5223 4.60858 12.1376L5.5916 11.9541ZM5.43562 10.3622H6.43562C6.43562 9.9149 6.49007 9.46931 6.59715 9.03826L5.62664 8.79718L4.65614 8.55609C4.50969 9.14563 4.43562 9.75316 4.43562 10.3622H5.43562ZM5.62664 8.79718L6.59716 9.03818C6.69298 8.65231 6.6186 8.24395 6.39302 7.91668L5.56966 8.48419L4.7463 9.05171C4.64666 8.90715 4.61377 8.72671 4.65612 8.55617L5.62664 8.79718ZM5.56966 8.48419L6.39229 7.91561C6.16688 7.5895 5.81247 7.37483 5.41789 7.32694L5.2974 8.31965L5.17692 9.31237C5.00262 9.29121 4.8463 9.19639 4.74703 9.05277L5.56966 8.48419ZM4.75108 11.6114L4.98266 10.6386C4.85697 10.6087 4.76455 10.4935 4.76455 10.3623H3.76455H2.76455C2.76455 11.4424 3.51517 12.3451 4.51949 12.5842L4.75108 11.6114ZM3.76455 10.3623H4.76455C4.76455 10.2295 4.85917 10.1134 4.98669 10.085L4.76997 9.10881L4.55325 8.13258C3.53176 8.35934 2.76455 9.27029 2.76455 10.3623H3.76455ZM4.76997 9.10881L3.78489 8.93671C3.7028 9.40658 3.66138 9.88398 3.66138 10.3623H4.66138H5.66138C5.66138 9.9993 5.69283 9.63706 5.75505 9.28091L4.76997 9.10881ZM4.66138 10.3623L3.66138 10.3622C3.66132 10.8183 3.69447 11.2769 3.76075 11.7501L4.75108 11.6114L5.74141 11.4727C5.68722 11.0858 5.66133 10.72 5.66138 10.3624L4.66138 10.3623Z" fill="black" mask="url(#path-2-inside-1_277_80)"/>
<mask id="path-4-inside-2_277_80" fill="white">
<path d="M18.9517 8.3042C18.8714 8.3042 18.7876 8.30941 18.7028 8.31968C18.5926 8.333 18.4935 8.39297 18.4306 8.48428C18.3676 8.57563 18.3469 8.68959 18.3736 8.79726C18.5003 9.30755 18.5646 9.83406 18.5646 10.3623C18.5646 10.8713 18.5135 11.392 18.4086 11.9542C18.3886 12.0609 18.4144 12.1711 18.4797 12.2579C18.545 12.3447 18.6437 12.4 18.7518 12.4105C18.8191 12.417 18.8864 12.4204 18.9517 12.4204C20.0866 12.4204 21.0099 11.4971 21.0099 10.3623C21.0099 9.2275 20.0865 8.3042 18.9517 8.3042ZM19.249 11.6114C19.3093 11.1813 19.3387 10.7691 19.3387 10.3623C19.3387 9.94162 19.3023 9.5218 19.2301 9.10879C19.8047 9.23633 20.2356 9.74988 20.2356 10.3623C20.2356 10.9679 19.8141 11.4769 19.249 11.6114Z"/>
</mask>
<path d="M18.9517 8.3042C18.8714 8.3042 18.7876 8.30941 18.7028 8.31968C18.5926 8.333 18.4935 8.39297 18.4306 8.48428C18.3676 8.57563 18.3469 8.68959 18.3736 8.79726C18.5003 9.30755 18.5646 9.83406 18.5646 10.3623C18.5646 10.8713 18.5135 11.392 18.4086 11.9542C18.3886 12.0609 18.4144 12.1711 18.4797 12.2579C18.545 12.3447 18.6437 12.4 18.7518 12.4105C18.8191 12.417 18.8864 12.4204 18.9517 12.4204C20.0866 12.4204 21.0099 11.4971 21.0099 10.3623C21.0099 9.2275 20.0865 8.3042 18.9517 8.3042ZM19.249 11.6114C19.3093 11.1813 19.3387 10.7691 19.3387 10.3623C19.3387 9.94162 19.3023 9.5218 19.2301 9.10879C19.8047 9.23633 20.2356 9.74988 20.2356 10.3623C20.2356 10.9679 19.8141 11.4769 19.249 11.6114Z" fill="black"/>
<path d="M18.7028 8.31968L18.8228 9.31245L18.8229 9.31244L18.7028 8.31968ZM18.4306 8.48428L17.6073 7.91654L17.6072 7.91676L18.4306 8.48428ZM18.3736 8.79726L17.4029 9.03782L17.4031 9.03834L18.3736 8.79726ZM18.4086 11.9542L19.3916 12.1381L19.3916 12.1377L18.4086 11.9542ZM18.4797 12.2579L19.2792 11.6571L19.2788 11.6566L18.4797 12.2579ZM18.7518 12.4105L18.6548 13.4058L18.6557 13.4059L18.7518 12.4105ZM19.249 11.6114L18.2587 11.4727L18.0555 12.9234L19.4806 12.5842L19.249 11.6114ZM19.2301 9.10879L19.4468 8.13255L17.9879 7.8087L18.2451 9.28089L19.2301 9.10879ZM20.2356 10.3623H19.2356V10.3623L20.2356 10.3623ZM18.9517 8.3042V7.3042C18.8287 7.3042 18.7048 7.31214 18.5826 7.32693L18.7028 8.31968L18.8229 9.31244C18.8705 9.30668 18.914 9.3042 18.9517 9.3042V8.3042ZM18.7028 8.31968L18.5827 7.32691C18.1877 7.37467 17.8328 7.58968 17.6073 7.91654L18.4306 8.48428L19.2538 9.05201C19.1543 9.19627 18.9975 9.29133 18.8228 9.31245L18.7028 8.31968ZM18.4306 8.48428L17.6072 7.91676C17.3814 8.24431 17.3075 8.65256 17.4029 9.03782L18.3736 8.79726L19.3442 8.55669C19.3863 8.72663 19.3537 8.90695 19.2539 9.05179L18.4306 8.48428ZM18.3736 8.79726L17.4031 9.03834C17.5101 9.4694 17.5646 9.91493 17.5646 10.3623H18.5646H19.5646C19.5646 9.75318 19.4905 9.14571 19.3441 8.55618L18.3736 8.79726ZM18.5646 10.3623H17.5646C17.5646 10.8027 17.5206 11.2617 17.4256 11.7707L18.4086 11.9542L19.3916 12.1377C19.5065 11.5224 19.5646 10.9399 19.5646 10.3623H18.5646ZM18.4086 11.9542L17.4257 11.7702C17.3541 12.1529 17.4466 12.548 17.6807 12.8591L18.4797 12.2579L19.2788 11.6566C19.3823 11.7941 19.4232 11.9689 19.3916 12.1381L18.4086 11.9542ZM18.4797 12.2579L17.6803 12.8586C17.9145 13.1702 18.2684 13.3682 18.6548 13.4058L18.7518 12.4105L18.8488 11.4152C19.0191 11.4318 19.1755 11.5191 19.2792 11.6571L18.4797 12.2579ZM18.7518 12.4105L18.6557 13.4059C18.7532 13.4153 18.8526 13.4204 18.9517 13.4204V12.4204V11.4204C18.9202 11.4204 18.885 11.4187 18.8479 11.4152L18.7518 12.4105ZM18.9517 12.4204V13.4204C20.6388 13.4204 22.0099 12.0494 22.0099 10.3623H21.0099H20.0099C20.0099 10.9448 19.5343 11.4204 18.9517 11.4204V12.4204ZM21.0099 10.3623H22.0099C22.0099 8.67519 20.6388 7.3042 18.9517 7.3042V8.3042V9.3042C19.5342 9.3042 20.0099 9.77982 20.0099 10.3623H21.0099ZM19.249 11.6114L20.2394 11.7501C20.3056 11.2768 20.3387 10.8182 20.3387 10.3623H19.3387H18.3387C18.3387 10.72 18.3129 11.0858 18.2587 11.4727L19.249 11.6114ZM19.3387 10.3623H20.3387C20.3387 9.88396 20.2973 9.40656 20.2152 8.93669L19.2301 9.10879L18.2451 9.28089C18.3073 9.63704 18.3387 9.99928 18.3387 10.3623H19.3387ZM19.2301 9.10879L19.0134 10.085C19.141 10.1133 19.2356 10.2294 19.2356 10.3623H20.2356H21.2356C21.2356 9.27031 20.4684 8.35932 19.4468 8.13255L19.2301 9.10879ZM20.2356 10.3623L19.2356 10.3623C19.2356 10.4934 19.1432 10.6086 19.0175 10.6386L19.249 11.6114L19.4806 12.5842C20.485 12.3451 21.2357 11.4424 21.2356 10.3622L20.2356 10.3623Z" fill="black" mask="url(#path-4-inside-2_277_80)"/>
<mask id="path-6-inside-3_277_80" fill="white">
<path d="M18.9516 6.68754C18.756 6.68754 18.5601 6.70328 18.3664 6.7345C17.7018 5.58359 16.746 4.64434 15.5801 3.9968V0.774194H15.7091C15.9229 0.774194 16.0962 0.600877 16.0962 0.387097C16.0962 0.173316 15.9229 0 15.7091 0H8.29104C8.07721 0 7.90395 0.173316 7.90395 0.387097C7.90395 0.600877 8.07721 0.774194 8.29104 0.774194H8.42008V3.9968C7.25414 4.64423 6.29842 5.58354 5.63381 6.7345C5.4401 6.70333 5.24423 6.68754 5.04852 6.68754C3.02224 6.68754 1.37378 8.336 1.37378 10.3623C1.37378 12.3885 3.02224 14.037 5.04852 14.037C5.1441 14.037 5.24062 14.0331 5.33744 14.0253C5.62173 14.8992 5.97641 15.8119 6.34962 16.7723C7.10823 18.7245 7.9681 20.9371 8.59473 23.6986C8.63473 23.8749 8.79148 24 8.97223 24H15.0279C15.2087 24 15.3654 23.8749 15.4054 23.6986C16.0321 20.9371 16.8919 18.7245 17.6505 16.7724C18.0237 15.812 18.3784 14.8992 18.6627 14.0253C18.7595 14.0331 18.856 14.037 18.9516 14.037C20.9779 14.037 22.6263 12.3885 22.6263 10.3623C22.6263 8.336 20.9779 6.68754 18.9516 6.68754ZM18.9516 13.2628C18.7891 13.2628 18.6226 13.2484 18.4567 13.2198C18.2651 13.1869 18.0786 13.3013 18.0212 13.4872C17.7308 14.4282 17.3413 15.4307 16.9289 16.4919C16.1881 18.398 15.3521 20.5494 14.7202 23.2258H9.27995C8.648 20.5494 7.81197 18.3979 7.07122 16.4919C6.65884 15.4306 6.26926 14.4282 5.97894 13.4872C5.9216 13.3013 5.73491 13.1869 5.54343 13.2198C5.37755 13.2483 5.21104 13.2628 5.04846 13.2628C3.44913 13.2628 2.14792 11.9617 2.14792 10.3623C2.14792 8.76289 3.44913 7.46173 5.04846 7.46173C5.28175 7.46173 5.51541 7.49006 5.74312 7.54601C5.91577 7.58854 6.09517 7.50777 6.17801 7.35035C6.80764 6.15381 7.77801 5.19339 8.9842 4.5729C9.11319 4.50653 9.19422 4.37373 9.19422 4.2287V0.774194H14.8058V4.22875C14.8058 4.37378 14.8869 4.50663 15.0158 4.57295C16.2221 5.1935 17.1925 6.15391 17.8221 7.3504C17.9049 7.50772 18.0844 7.5887 18.257 7.54606C18.4847 7.49012 18.7183 7.46178 18.9516 7.46178C20.5509 7.46178 21.8521 8.76294 21.8521 10.3623C21.8521 11.9617 20.551 13.2628 18.9516 13.2628Z"/>
</mask>
<path d="M18.9516 6.68754C18.756 6.68754 18.5601 6.70328 18.3664 6.7345C17.7018 5.58359 16.746 4.64434 15.5801 3.9968V0.774194H15.7091C15.9229 0.774194 16.0962 0.600877 16.0962 0.387097C16.0962 0.173316 15.9229 0 15.7091 0H8.29104C8.07721 0 7.90395 0.173316 7.90395 0.387097C7.90395 0.600877 8.07721 0.774194 8.29104 0.774194H8.42008V3.9968C7.25414 4.64423 6.29842 5.58354 5.63381 6.7345C5.4401 6.70333 5.24423 6.68754 5.04852 6.68754C3.02224 6.68754 1.37378 8.336 1.37378 10.3623C1.37378 12.3885 3.02224 14.037 5.04852 14.037C5.1441 14.037 5.24062 14.0331 5.33744 14.0253C5.62173 14.8992 5.97641 15.8119 6.34962 16.7723C7.10823 18.7245 7.9681 20.9371 8.59473 23.6986C8.63473 23.8749 8.79148 24 8.97223 24H15.0279C15.2087 24 15.3654 23.8749 15.4054 23.6986C16.0321 20.9371 16.8919 18.7245 17.6505 16.7724C18.0237 15.812 18.3784 14.8992 18.6627 14.0253C18.7595 14.0331 18.856 14.037 18.9516 14.037C20.9779 14.037 22.6263 12.3885 22.6263 10.3623C22.6263 8.336 20.9779 6.68754 18.9516 6.68754ZM18.9516 13.2628C18.7891 13.2628 18.6226 13.2484 18.4567 13.2198C18.2651 13.1869 18.0786 13.3013 18.0212 13.4872C17.7308 14.4282 17.3413 15.4307 16.9289 16.4919C16.1881 18.398 15.3521 20.5494 14.7202 23.2258H9.27995C8.648 20.5494 7.81197 18.3979 7.07122 16.4919C6.65884 15.4306 6.26926 14.4282 5.97894 13.4872C5.9216 13.3013 5.73491 13.1869 5.54343 13.2198C5.37755 13.2483 5.21104 13.2628 5.04846 13.2628C3.44913 13.2628 2.14792 11.9617 2.14792 10.3623C2.14792 8.76289 3.44913 7.46173 5.04846 7.46173C5.28175 7.46173 5.51541 7.49006 5.74312 7.54601C5.91577 7.58854 6.09517 7.50777 6.17801 7.35035C6.80764 6.15381 7.77801 5.19339 8.9842 4.5729C9.11319 4.50653 9.19422 4.37373 9.19422 4.2287V0.774194H14.8058V4.22875C14.8058 4.37378 14.8869 4.50663 15.0158 4.57295C16.2221 5.1935 17.1925 6.15391 17.8221 7.3504C17.9049 7.50772 18.0844 7.5887 18.257 7.54606C18.4847 7.49012 18.7183 7.46178 18.9516 7.46178C20.5509 7.46178 21.8521 8.76294 21.8521 10.3623C21.8521 11.9617 20.551 13.2628 18.9516 13.2628Z" fill="black"/>
<path d="M18.3664 6.7345L17.5004 7.23455L17.8451 7.83145L18.5255 7.72176L18.3664 6.7345ZM15.5801 3.9968H14.5801V4.58529L15.0946 4.87102L15.5801 3.9968ZM15.5801 0.774194V-0.225806H14.5801V0.774194H15.5801ZM8.42008 0.774194H9.42008V-0.225806H8.42008V0.774194ZM8.42008 3.9968L8.90554 4.87106L9.42008 4.58534V3.9968H8.42008ZM5.63381 6.7345L5.47491 7.7218L6.15522 7.83129L6.4998 7.23456L5.63381 6.7345ZM5.33744 14.0253L6.28839 13.716L6.04429 12.9656L5.25774 13.0285L5.33744 14.0253ZM6.34962 16.7723L5.41753 17.1345L5.41753 17.1345L6.34962 16.7723ZM8.59473 23.6986L9.56995 23.4773L9.56994 23.4773L8.59473 23.6986ZM15.4054 23.6986L14.4302 23.4773L14.4301 23.4773L15.4054 23.6986ZM17.6505 16.7724L18.5826 17.1346L18.5826 17.1346L17.6505 16.7724ZM18.6627 14.0253L18.7424 13.0285L17.9558 12.9656L17.7117 13.716L18.6627 14.0253ZM18.4567 13.2198L18.6262 12.2343L18.6261 12.2343L18.4567 13.2198ZM18.0212 13.4872L17.0657 13.1922L17.0656 13.1924L18.0212 13.4872ZM16.9289 16.4919L17.861 16.8542L17.861 16.8541L16.9289 16.4919ZM14.7202 23.2258V24.2258H15.5115L15.6934 23.4556L14.7202 23.2258ZM9.27995 23.2258L8.30671 23.4556L8.48857 24.2258H9.27995V23.2258ZM7.07122 16.4919L6.13912 16.8541L6.13914 16.8541L7.07122 16.4919ZM5.97894 13.4872L5.02334 13.7819L5.02339 13.782L5.97894 13.4872ZM5.54343 13.2198L5.37421 12.2342L5.37416 12.2343L5.54343 13.2198ZM5.74312 7.54601L5.98231 6.57504L5.98172 6.57489L5.74312 7.54601ZM6.17801 7.35035L7.06296 7.81603L7.06297 7.81602L6.17801 7.35035ZM8.9842 4.5729L9.44165 5.46214L9.44178 5.46208L8.9842 4.5729ZM9.19422 0.774194V-0.225806H8.19422V0.774194H9.19422ZM14.8058 0.774194H15.8058V-0.225806H14.8058V0.774194ZM15.0158 4.57295L15.4733 3.68372L15.4731 3.68364L15.0158 4.57295ZM17.8221 7.3504L16.9371 7.81608L16.9371 7.8161L17.8221 7.3504ZM18.257 7.54606L18.0184 6.57494L18.0171 6.57526L18.257 7.54606ZM18.9516 6.68754V5.68754C18.7024 5.68754 18.4533 5.70758 18.2072 5.74725L18.3664 6.7345L18.5255 7.72176C18.6669 7.69897 18.8095 7.68754 18.9516 7.68754V6.68754ZM18.3664 6.7345L19.2324 6.23445C18.4769 4.92613 17.3894 3.85778 16.0656 3.12258L15.5801 3.9968L15.0946 4.87102C16.1026 5.4309 16.9267 6.24105 17.5004 7.23455L18.3664 6.7345ZM15.5801 3.9968H16.5801V0.774194H15.5801H14.5801V3.9968H15.5801ZM15.5801 0.774194V1.77419H15.7091V0.774194V-0.225806H15.5801V0.774194ZM15.7091 0.774194V1.77419C16.4753 1.77419 17.0962 1.15308 17.0962 0.387097H16.0962H15.0962C15.0962 0.0486795 15.3706 -0.225806 15.7091 -0.225806V0.774194ZM16.0962 0.387097H17.0962C17.0962 -0.378882 16.4753 -1 15.7091 -1V0V1C15.3706 1 15.0962 0.725514 15.0962 0.387097H16.0962ZM15.7091 0V-1H8.29104V0V1H15.7091V0ZM8.29104 0V-1C7.52484 -1 6.90395 -0.378882 6.90395 0.387097H7.90395H8.90395C8.90395 0.725514 8.62958 1 8.29104 1V0ZM7.90395 0.387097H6.90395C6.90395 1.15308 7.52484 1.77419 8.29104 1.77419V0.774194V-0.225806C8.62958 -0.225806 8.90395 0.0486795 8.90395 0.387097H7.90395ZM8.29104 0.774194V1.77419H8.42008V0.774194V-0.225806H8.29104V0.774194ZM8.42008 0.774194H7.42008V3.9968H8.42008H9.42008V0.774194H8.42008ZM8.42008 3.9968L7.93461 3.12254C6.61073 3.85768 5.52329 4.92613 4.76781 6.23444L5.63381 6.7345L6.4998 7.23456C7.07356 6.24094 7.89755 5.43078 8.90554 4.87106L8.42008 3.9968ZM5.63381 6.7345L5.7927 5.74721C5.54697 5.70766 5.29797 5.68754 5.04852 5.68754V6.68754V7.68754C5.1905 7.68754 5.33324 7.699 5.47491 7.7218L5.63381 6.7345ZM5.04852 6.68754V5.68754C2.46996 5.68754 0.373779 7.78371 0.373779 10.3623H1.37378H2.37378C2.37378 8.88828 3.57453 7.68754 5.04852 7.68754V6.68754ZM1.37378 10.3623H0.373779C0.373779 12.9408 2.46996 15.037 5.04852 15.037V14.037V13.037C3.57453 13.037 2.37378 11.8363 2.37378 10.3623H1.37378ZM5.04852 14.037V15.037C5.1714 15.037 5.29451 15.032 5.41715 15.0222L5.33744 14.0253L5.25774 13.0285C5.18672 13.0342 5.1168 13.037 5.04852 13.037V14.037ZM5.33744 14.0253L4.3865 14.3347C4.68108 15.2402 5.04662 16.1801 5.41753 17.1345L6.34962 16.7723L7.28172 16.4101C6.9062 15.4438 6.56238 14.5582 6.28839 13.716L5.33744 14.0253ZM6.34962 16.7723L5.41753 17.1345C6.17622 19.0869 7.01096 21.238 7.61953 23.9199L8.59473 23.6986L9.56994 23.4773C8.92524 20.6362 8.04024 18.3621 7.28172 16.4101L6.34962 16.7723ZM8.59473 23.6986L7.61952 23.9198C7.76289 24.5518 8.32461 25 8.97223 25V24V23C9.25835 23 9.50658 23.198 9.56995 23.4773L8.59473 23.6986ZM8.97223 24V25H15.0279V24V23H8.97223V24ZM15.0279 24V25C15.6756 25 16.2372 24.5517 16.3806 23.9198L15.4054 23.6986L14.4301 23.4773C14.4935 23.1981 14.7417 23 15.0279 23V24ZM15.4054 23.6986L16.3806 23.9199C16.9892 21.2381 17.8239 19.0869 18.5826 17.1346L17.6505 16.7724L16.7184 16.4102C15.9599 18.3621 15.0749 20.6362 14.4302 23.4773L15.4054 23.6986ZM17.6505 16.7724L18.5826 17.1346C18.9535 16.1802 19.3191 15.2402 19.6136 14.3347L18.6627 14.0253L17.7117 13.716C17.4378 14.5582 17.0939 15.4438 16.7184 16.4102L17.6505 16.7724ZM18.6627 14.0253L18.583 15.0222C18.7056 15.032 18.8287 15.037 18.9516 15.037V14.037V13.037C18.8833 13.037 18.8134 13.0342 18.7424 13.0285L18.6627 14.0253ZM18.9516 14.037V15.037C21.5301 15.037 23.6263 12.9408 23.6263 10.3623H22.6263H21.6263C21.6263 11.8363 20.4256 13.037 18.9516 13.037V14.037ZM22.6263 10.3623H23.6263C23.6263 7.78372 21.5302 5.68754 18.9516 5.68754V6.68754V7.68754C20.4256 7.68754 21.6263 8.88828 21.6263 10.3623H22.6263ZM18.9516 13.2628V12.2628C18.8478 12.2628 18.738 12.2535 18.6262 12.2343L18.4567 13.2198L18.2871 14.2053C18.5071 14.2432 18.7304 14.2628 18.9516 14.2628V13.2628ZM18.4567 13.2198L18.6261 12.2343C17.9393 12.1162 17.2713 12.5262 17.0657 13.1922L18.0212 13.4872L18.9767 13.7822C18.8858 14.0765 18.5908 14.2575 18.2873 14.2054L18.4567 13.2198ZM18.0212 13.4872L17.0656 13.1924C16.7878 14.0928 16.4124 15.0602 15.9968 16.1297L16.9289 16.4919L17.861 16.8541C18.2702 15.8011 18.6738 14.7637 18.9767 13.782L18.0212 13.4872ZM16.9289 16.4919L15.9968 16.1297C15.2562 18.0355 14.3965 20.2448 13.7469 22.996L14.7202 23.2258L15.6934 23.4556C16.3077 20.854 17.1201 18.7605 17.861 16.8542L16.9289 16.4919ZM14.7202 23.2258V22.2258H9.27995V23.2258V24.2258H14.7202V23.2258ZM9.27995 23.2258L10.2532 22.996C9.60358 20.2448 8.74395 18.0354 8.00331 16.1296L7.07122 16.4919L6.13914 16.8541C6.87999 18.7604 7.69242 20.854 8.30671 23.4556L9.27995 23.2258ZM7.07122 16.4919L8.00333 16.1297C7.58773 15.0601 7.21227 14.0927 6.9345 13.1924L5.97894 13.4872L5.02339 13.782C5.32626 14.7637 5.72995 15.8011 6.13912 16.8541L7.07122 16.4919ZM5.97894 13.4872L6.93454 13.1926C6.72885 12.5255 6.06006 12.1165 5.37421 12.2342L5.54343 13.2198L5.71265 14.2054C5.40977 14.2574 5.11435 14.077 5.02334 13.7819L5.97894 13.4872ZM5.54343 13.2198L5.37416 12.2343C5.26198 12.2535 5.15211 12.2628 5.04846 12.2628V13.2628V14.2628C5.26998 14.2628 5.49312 14.2431 5.7127 14.2054L5.54343 13.2198ZM5.04846 13.2628V12.2628C4.00141 12.2628 3.14792 11.4094 3.14792 10.3623H2.14792H1.14792C1.14792 12.5139 2.89686 14.2628 5.04846 14.2628V13.2628ZM2.14792 10.3623H3.14792C3.14792 9.31519 4.00141 8.46173 5.04846 8.46173V7.46173V6.46173C2.89686 6.46173 1.14792 8.21059 1.14792 10.3623H2.14792ZM5.04846 7.46173V8.46173C5.20099 8.46173 5.35454 8.48028 5.50452 8.51713L5.74312 7.54601L5.98172 6.57489C5.67627 6.49985 5.36251 6.46173 5.04846 6.46173V7.46173ZM5.74312 7.54601L5.50393 8.51699C6.1236 8.66963 6.76641 8.37957 7.06296 7.81603L6.17801 7.35035L5.29306 6.88466C5.42393 6.63596 5.70794 6.50745 5.98231 6.57504L5.74312 7.54601ZM6.17801 7.35035L7.06297 7.81602C7.59663 6.80185 8.41743 5.98902 9.44165 5.46214L8.9842 4.5729L8.52676 3.68366C7.13859 4.39777 6.01864 5.50576 5.29305 6.88468L6.17801 7.35035ZM8.9842 4.5729L9.44178 5.46208C9.90372 5.22436 10.1942 4.74845 10.1942 4.2287H9.19422H8.19422C8.19422 3.99901 8.32265 3.7887 8.52663 3.68373L8.9842 4.5729ZM9.19422 4.2287H10.1942V0.774194H9.19422H8.19422V4.2287H9.19422ZM9.19422 0.774194V1.77419H14.8058V0.774194V-0.225806H9.19422V0.774194ZM14.8058 0.774194H13.8058V4.22875H14.8058H15.8058V0.774194H14.8058ZM14.8058 4.22875H13.8058C13.8058 4.74829 14.0962 5.22451 14.5586 5.46227L15.0158 4.57295L15.4731 3.68364C15.6776 3.78875 15.8058 3.99927 15.8058 4.22875H14.8058ZM15.0158 4.57295L14.5584 5.46219C15.5827 5.98912 16.4035 6.80197 16.9371 7.81608L17.8221 7.3504L18.707 6.88472C17.9814 5.50585 16.8615 4.39787 15.4733 3.68372L15.0158 4.57295ZM17.8221 7.3504L16.9371 7.8161C17.2333 8.37894 17.8762 8.67022 18.4968 8.51687L18.257 7.54606L18.0171 6.57526C18.2927 6.50718 18.5764 6.63649 18.707 6.8847L17.8221 7.3504ZM18.257 7.54606L18.4956 8.51718C18.6456 8.48033 18.7991 8.46178 18.9516 8.46178V7.46178V6.46178C18.6376 6.46178 18.3238 6.4999 18.0184 6.57495L18.257 7.54606ZM18.9516 7.46178V8.46178C19.9986 8.46178 20.8521 9.31524 20.8521 10.3623H21.8521H22.8521C22.8521 8.21065 21.1032 6.46178 18.9516 6.46178V7.46178ZM21.8521 10.3623H20.8521C20.8521 11.4094 19.9987 12.2628 18.9516 12.2628V13.2628V14.2628C21.1032 14.2628 22.8521 12.514 22.8521 10.3623H21.8521Z" fill="black" mask="url(#path-6-inside-3_277_80)"/>
<path d="M16.1001 8.85181C16.1 8.90014 16.0615 8.93862 16.0132 8.93872C15.977 8.93872 15.9463 8.91708 15.9331 8.88599L15.9263 8.85181C15.9263 8.80333 15.9647 8.76489 16.0132 8.76489L16.0474 8.77173C16.0785 8.78496 16.1001 8.8156 16.1001 8.85181Z" fill="black" stroke="black"/>
<path d="M14.5516 7.30341C14.5515 7.35174 14.5131 7.39022 14.4647 7.39032C14.4285 7.39032 14.3979 7.36868 14.3846 7.33759L14.3778 7.30341C14.3778 7.25493 14.4162 7.21649 14.4647 7.21649L14.4989 7.22333C14.53 7.23656 14.5516 7.2672 14.5516 7.30341Z" fill="black" stroke="black"/>
</svg>
