<svg width="24" height="24" viewBox="0 0 24 24" fill="none" xmlns="http://www.w3.org/2000/svg">
<path d="M18.5698 10.5398C18.4925 10.4667 18.3887 10.4286 18.2822 10.4346L14.7851 10.6299C15.1367 10.2605 15.4611 9.84717 15.7456 9.40377C16.5253 8.18875 16.9548 6.81636 16.9548 5.53946C16.9548 4.13791 16.4897 2.80217 15.6452 1.77827C14.713 0.648206 13.3844 0 12 0C10.6157 0 9.28704 0.648155 8.35486 1.77832C7.51032 2.80217 7.04519 4.13786 7.04519 5.53951C7.04519 6.81646 7.4746 8.1888 8.25432 9.40382C8.53886 9.84723 8.86325 10.2605 9.21489 10.6299L5.7178 10.4346C5.61117 10.4283 5.50748 10.4667 5.43022 10.5398C5.3529 10.613 5.30908 10.7147 5.30908 10.8211V12.8182C5.30908 12.9246 5.3529 13.0264 5.43022 13.0995C5.50759 13.1726 5.61164 13.2107 5.7178 13.2047L10.4654 12.9395L9.41226 23.1176C9.39548 23.2795 9.48178 23.4346 9.62815 23.5057C9.6697 23.5259 10.6613 24 12 24C13.3387 24 14.3302 23.5258 14.3717 23.5057C14.5182 23.4346 14.6045 23.2795 14.5877 23.1176L13.5346 12.9395L18.2822 13.2047C18.3886 13.2106 18.4924 13.1725 18.5697 13.0995C18.647 13.0263 18.6909 12.9246 18.6909 12.8182V10.8211C18.6909 10.7147 18.6471 10.6129 18.5698 10.5398ZM17.9167 12.4089L13.1244 12.1411C13.0115 12.1347 12.901 12.1784 12.8227 12.2604C12.7444 12.3425 12.7061 12.4547 12.7178 12.5674L13.7878 22.9093C13.4509 23.0326 12.7957 23.2258 12 23.2258C11.2096 23.2258 10.5509 23.0317 10.2122 22.9085L11.2821 12.5674C11.2938 12.4547 11.2555 12.3425 11.1772 12.2604C11.099 12.1784 10.989 12.1347 10.8755 12.1411L6.08322 12.4089V11.2304L10.2653 11.464C10.4355 11.4737 10.5909 11.3713 10.6499 11.212C10.7089 11.0526 10.6572 10.8735 10.5223 10.7702C9.916 10.3059 9.35703 9.68877 8.90583 8.98565C8.20519 7.89388 7.81933 6.66999 7.81933 5.53946C7.81933 4.31721 8.2216 3.15639 8.95202 2.27092C9.73664 1.31969 10.8476 0.774142 12 0.774142C13.1524 0.774142 14.2634 1.31969 15.0479 2.27092C15.7783 3.15644 16.1806 4.31721 16.1806 5.53946C16.1806 6.66994 15.7947 7.89383 15.094 8.9856C14.6429 9.68872 14.0839 10.3058 13.4775 10.7702C13.3427 10.8734 13.291 11.0526 13.3499 11.2119C13.4089 11.3712 13.565 11.4737 13.7345 11.4639L17.9166 11.2303V12.4089H17.9167Z" fill="black"/>
<path d="M15.0731 6.86443C15.1098 6.6538 14.9688 6.45333 14.7582 6.41659C14.5473 6.37968 14.3471 6.52079 14.3103 6.73137C14.0752 8.07878 13.0994 9.50846 12.0004 10.1476C10.8266 9.4602 9.63357 7.74041 9.63357 6.10407C9.63357 4.47682 10.6951 3.15295 12 3.15295C13.0941 3.15295 14.0396 4.07873 14.2992 5.40425C14.3404 5.61401 14.5437 5.75088 14.7535 5.7097C14.9633 5.66861 15.1001 5.4652 15.059 5.2554C14.7272 3.56167 13.4693 2.37875 12 2.37875C10.2683 2.37875 8.85938 4.04993 8.85938 6.10407C8.85938 8.1724 10.3999 10.2215 11.8271 10.9339C11.8815 10.961 11.9408 10.9746 12 10.9746C12.0592 10.9746 12.1184 10.9611 12.1729 10.9339C13.563 10.2401 14.7827 8.52864 15.0731 6.86443Z" fill="black"/>
</svg>
