<svg width="24" height="24" viewBox="0 0 24 24" fill="none" xmlns="http://www.w3.org/2000/svg">
<g clip-path="url(#clip0_277_71)">
<path d="M5.34535 13.3955H18.6544C18.8682 13.3955 19.0415 13.2222 19.0415 13.0085V5.9727C19.0415 5.75892 18.8682 5.5856 18.6544 5.5856H12.387V2.85453C12.387 2.64075 12.2137 2.46744 11.9999 2.46744C11.7861 2.46744 11.6128 2.64075 11.6128 2.85453V5.5856H5.34535C5.13151 5.5856 4.95825 5.75892 4.95825 5.9727V13.0085C4.95825 13.2222 5.13157 13.3955 5.34535 13.3955ZM5.73244 6.35979H18.2673V12.6214H5.73244V6.35979Z" fill="black"/>
<path d="M23.6128 20.7584C22.9671 20.7584 22.375 20.4581 21.9881 19.9345C21.915 19.8357 21.7995 19.7775 21.6767 19.7775C21.6766 19.7775 21.6765 19.7775 21.6764 19.7775C21.5534 19.7776 21.4379 19.8361 21.365 19.9351C20.9855 20.4507 20.379 20.7584 19.7424 20.7584C19.1063 20.7584 18.4989 20.4505 18.1177 19.9346C18.0447 19.8358 17.9292 19.7775 17.8064 19.7775C17.6836 19.7775 17.568 19.8358 17.495 19.9345C17.1138 20.4505 16.5065 20.7584 15.8703 20.7584C15.226 20.7584 14.6344 20.4582 14.2473 19.9345C14.1743 19.8358 14.0588 19.7775 13.936 19.7775C13.8132 19.7775 13.6977 19.8358 13.6248 19.9345C13.2435 20.4504 12.6361 20.7584 12.0001 20.7584C11.3635 20.7584 10.7569 20.4506 10.3775 19.9351C10.3047 19.8362 10.1893 19.7777 10.0665 19.7774C10.0663 19.7774 10.066 19.7774 10.0657 19.7774C9.94321 19.7774 9.82796 19.8354 9.75493 19.9339C9.36608 20.4578 8.77372 20.7584 8.12976 20.7584C7.49322 20.7584 6.88667 20.4506 6.50716 19.9351C6.43429 19.8361 6.31873 19.7775 6.19579 19.7774C6.19568 19.7774 6.19553 19.7774 6.19542 19.7774C6.07264 19.7774 5.95708 19.8357 5.8841 19.9345C5.50294 20.4504 4.89484 20.7583 4.25753 20.7583C3.62265 20.7583 3.01584 20.4503 2.63447 19.9344C2.56144 19.8357 2.44593 19.7774 2.32315 19.7774C2.20036 19.7775 2.08485 19.8357 2.01187 19.9345C1.62504 20.4581 1.03284 20.7583 0.387216 20.7583C0.173385 20.7583 0.00012207 20.9316 0.00012207 21.1454C0.00012207 21.3592 0.173385 21.5325 0.387216 21.5325C1.11025 21.5325 1.80594 21.2457 2.32325 20.7488C2.84046 21.2458 3.53558 21.5325 4.25758 21.5325C4.9814 21.5325 5.6776 21.2459 6.19501 20.7492C6.71114 21.2459 7.40636 21.5325 8.12976 21.5325C8.86332 21.5325 9.54776 21.2518 10.066 20.7498C10.5821 21.2461 11.277 21.5325 12.0002 21.5325C12.7227 21.5325 13.418 21.2462 13.9351 20.7498C14.4523 21.2519 15.1363 21.5325 15.8705 21.5325C16.5935 21.5325 17.2892 21.2458 17.8065 20.7488C18.3237 21.2457 19.0195 21.5325 19.7426 21.5325C20.466 21.5325 21.1611 21.2459 21.6773 20.7492C22.1945 21.246 22.89 21.5325 23.6129 21.5325C23.8267 21.5325 24 21.3592 24 21.1454C24 20.9316 23.8266 20.7584 23.6128 20.7584Z" fill="black"/>
<path d="M22.7494 10.798H21.9141V10.7862C21.9141 10.5724 21.7409 10.3991 21.527 10.3991C21.3132 10.3991 21.1399 10.5724 21.1399 10.7862V13.311C21.1399 13.5247 21.3132 13.6981 21.527 13.6981C21.7409 13.6981 21.9141 13.5247 21.9141 13.311V13.2991H22.7494C22.918 13.2991 23.0789 13.2654 23.2258 13.2046V15.7565H12.387V14.5568C12.387 14.343 12.2137 14.1697 11.9999 14.1697C11.7861 14.1697 11.6128 14.343 11.6128 14.5568V15.7565H0.77429V13.2047C0.921179 13.2654 1.082 13.2992 1.25062 13.2992H2.08587V13.311C2.08587 13.5248 2.25913 13.6981 2.47296 13.6981C2.68679 13.6981 2.86005 13.5248 2.86005 13.311V10.7862C2.86005 10.5725 2.68679 10.3991 2.47296 10.3991C2.25913 10.3991 2.08587 10.5725 2.08587 10.7862V10.7981H1.25057C0.561027 10.7981 0 11.3591 0 12.0486C0 12.05 0.000103225 12.0513 0.000103225 12.0526V16.1417C0.000103225 16.1424 0 16.143 0 16.1437C0 17.3048 0.166244 18.4541 0.494034 19.5598C0.554834 19.7648 0.770368 19.8817 0.975166 19.8209C1.18017 19.7602 1.29702 19.5448 1.23627 19.3398C0.966134 18.4286 0.813309 17.4855 0.780793 16.5309H23.219C23.1865 17.4853 23.0336 18.4285 22.7635 19.3398C22.7027 19.5448 22.8196 19.7602 23.0246 19.8209C23.0613 19.8318 23.0983 19.837 23.1348 19.837C23.3017 19.837 23.4559 19.7281 23.5058 19.5599C23.8332 18.4556 23.9993 17.308 23.9998 16.1487C23.9998 16.147 24.0001 16.1455 24.0001 16.1438V12.0488C24 11.359 23.439 10.798 22.7494 10.798ZM1.25057 11.5722H2.08581V12.525H1.25057C0.988533 12.525 0.775374 12.3124 0.774239 12.0506V12.0486C0.774239 12.0482 0.774187 12.0479 0.774187 12.0476C0.774806 11.7854 0.988224 11.5722 1.25057 11.5722ZM22.7494 12.525H21.9141V11.5722H22.7494C23.0121 11.5722 23.2258 11.7859 23.2258 12.0486C23.2258 12.3112 23.0121 12.525 22.7494 12.525Z" fill="black"/>
</g>
<defs>
<clipPath id="clip0_277_71">
<rect width="24" height="24" fill="white"/>
</clipPath>
</defs>
</svg>
