<svg width="24" height="24" viewBox="0 0 24 24" fill="none" xmlns="http://www.w3.org/2000/svg">
<path d="M5.83051 11.3586C5.60284 11.3586 5.4176 11.5438 5.4176 11.7715C5.4176 11.9991 5.60284 12.1844 5.83051 12.1844C6.05817 12.1844 6.24341 11.9991 6.24341 11.7715C6.24341 11.5438 6.05817 11.3586 5.83051 11.3586Z" fill="black"/>
<path d="M4.34808 9.87602C4.12042 9.87602 3.93518 10.0613 3.93518 10.2889C3.93518 10.5166 4.12042 10.7018 4.34808 10.7018C4.57575 10.7018 4.76099 10.5166 4.76099 10.2889C4.76099 10.0613 4.5758 9.87602 4.34808 9.87602Z" fill="black"/>
<path d="M20.9989 1.77079H20.4836C20.169 1.28852 19.6269 0.988335 19.041 0.988335H18.0936V0.387097C18.0936 0.173316 17.9203 0 17.7065 0C17.4926 0 17.3194 0.173316 17.3194 0.387097V9.15881C17.3194 9.59695 17.0276 9.9633 16.6235 10.0726C15.7739 8.61817 14.3402 7.57074 12.7031 7.20661C12.5388 5.15474 10.8166 3.53533 8.7232 3.53533C6.62983 3.53533 4.90751 5.15463 4.74333 7.2065C3.46756 7.48955 2.30797 8.18483 1.45151 9.18658C0.515458 10.2814 0 11.6786 0 13.1209V18.3134C0 18.5272 0.173265 18.7005 0.387097 18.7005C0.600929 18.7005 0.774194 18.5272 0.774194 18.3134V14.5049C1.02194 14.6579 1.3135 14.7464 1.62545 14.7464H2.2352V23.6129C2.2352 23.8267 2.40846 24 2.6223 24C2.83613 24 3.00939 23.8267 3.00939 23.6129V18.6735C4.40072 18.484 5.47654 17.2888 5.47654 15.8463V14.7464H13.2771V23.6129C13.2771 23.8267 13.4503 24 13.6642 24C13.878 24 14.0513 23.8267 14.0513 23.6129V18.6735C15.4426 18.484 16.5184 17.2888 16.5184 15.8463V14.7464H17.6964C19.3872 14.7464 20.7627 13.3708 20.7627 11.68V4.82529H20.999C21.841 4.82529 22.5262 4.14018 22.5262 3.29801C22.5261 2.4559 21.8409 1.77079 20.9989 1.77079ZM20.9989 4.0511H20.3755C20.1617 4.0511 19.9884 4.22441 19.9884 4.43819V11.6801C19.9884 12.9439 18.9602 13.9722 17.6963 13.9722H16.1312C15.9174 13.9722 15.7441 14.1455 15.7441 14.3593V15.8463C15.7441 16.8611 15.0138 17.7084 14.0511 17.8903V14.3593C14.0511 14.1455 13.8779 13.9722 13.6641 13.9722H5.08934C4.87551 13.9722 4.70225 14.1455 4.70225 14.3593V15.8463C4.70225 16.8611 3.97192 17.7084 3.00929 17.8903V14.3593C3.00929 14.1455 2.83603 13.9722 2.62219 13.9722H1.62534C1.15592 13.9722 0.77409 13.5903 0.77409 13.1209C0.77409 10.5276 2.62756 8.33605 5.18126 7.90978C5.3679 7.87861 5.50467 7.71716 5.50467 7.528C5.50467 5.75334 6.94849 4.30952 8.72315 4.30952C10.4978 4.30952 11.9416 5.75334 11.9416 7.528C11.9416 7.71721 12.0783 7.87866 12.265 7.90978C13.8828 8.17982 15.3055 9.21249 16.0707 10.6721C16.1396 10.8033 16.2776 10.8843 16.4254 10.8792C17.3608 10.8504 18.0935 10.0947 18.0935 9.15881V1.76253H19.0409C19.4113 1.76253 19.7498 1.9807 19.9035 2.31825C19.9664 2.45636 20.1042 2.54498 20.2558 2.54498H20.9989C21.4141 2.54498 21.7519 2.88279 21.7519 3.29801C21.7519 3.71329 21.4141 4.0511 20.9989 4.0511Z" fill="black"/>
</svg>
