<svg width="24" height="24" viewBox="0 0 24 24" fill="none" xmlns="http://www.w3.org/2000/svg">
<path d="M16.7666 12.3049C16.5549 12.279 16.3611 12.4289 16.3345 12.6411L15.0347 23.0528C15.0238 23.1401 14.9267 23.2259 14.8387 23.2259H9.16128C9.07328 23.2259 8.97619 23.1402 8.9653 23.0529L7.66543 12.6411C7.6389 12.429 7.44438 12.2789 7.23338 12.3049C7.02125 12.3315 6.87075 12.5249 6.89718 12.737L8.19705 23.1488C8.25671 23.6261 8.68025 24 9.16128 24H14.8387C15.3197 24 15.7433 23.6261 15.8029 23.1487L17.1028 12.737C17.1292 12.5249 16.9787 12.3315 16.7666 12.3049Z" fill="black"/>
<path d="M12.2426 21.5226C12.2426 21.2949 12.0573 21.1097 11.8297 21.1097C11.602 21.1097 11.4167 21.2949 11.4167 21.5226C11.4167 21.7502 11.602 21.9355 11.8297 21.9355C12.0573 21.9355 12.2426 21.7502 12.2426 21.5226Z" fill="black"/>
<path d="M10.6941 19.9742C10.6941 19.7465 10.5089 19.5613 10.2812 19.5613C10.0535 19.5613 9.86829 19.7465 9.86829 19.9742C9.86829 20.2019 10.0535 20.3871 10.2812 20.3871C10.5089 20.3871 10.6941 20.2019 10.6941 19.9742Z" fill="black"/>
<path d="M17.2135 11.3715C17.2178 11.3657 17.2222 11.36 17.2262 11.354C17.2289 11.3498 17.2313 11.3455 17.2338 11.3413C17.2377 11.3349 17.2417 11.3285 17.2452 11.3219C17.2476 11.3175 17.2496 11.3128 17.2518 11.3083C17.255 11.3016 17.2582 11.2951 17.261 11.2882C17.2632 11.2829 17.265 11.2775 17.2669 11.2721C17.2692 11.2658 17.2716 11.2596 17.2736 11.2531C17.2755 11.2466 17.277 11.2399 17.2787 11.2333C17.2801 11.2277 17.2816 11.2222 17.2828 11.2165C17.2843 11.2087 17.2853 11.2008 17.2864 11.1929C17.2871 11.1881 17.2879 11.1834 17.2884 11.1785C17.2892 11.1701 17.2894 11.1616 17.2897 11.1531C17.2898 11.1489 17.2903 11.1448 17.2903 11.1405C17.2903 11.14 17.2903 11.1396 17.2903 11.139C17.2902 11.1326 17.2896 11.126 17.2893 11.1195C17.2889 11.1126 17.2888 11.1055 17.288 11.0987C17.2879 11.0983 17.2879 11.0979 17.2879 11.0974L16.4282 3.43117C16.3119 2.39298 15.3673 1.54839 14.3226 1.54839H13.4499L13.5139 0.594168C13.5254 0.423484 13.4234 0.2656 13.2633 0.205729C13.2408 0.197265 12.7052 0 12 0C11.2949 0 10.7593 0.197265 10.7368 0.205677C10.5766 0.265548 10.4747 0.423535 10.4862 0.594116L10.5502 1.54839H9.67746C8.63281 1.54839 7.68819 2.39298 7.57186 3.43112L6.71214 11.0975C6.71209 11.098 6.71209 11.0984 6.71204 11.0988C6.71132 11.1057 6.71111 11.1127 6.71075 11.1196C6.71039 11.1261 6.70982 11.1327 6.70977 11.1391C6.70977 11.1397 6.70972 11.1401 6.70972 11.1406C6.70972 11.1449 6.71023 11.149 6.71034 11.1532C6.71059 11.1617 6.7108 11.1702 6.71163 11.1786C6.71209 11.1834 6.71302 11.1882 6.71364 11.193C6.71472 11.2009 6.7157 11.2088 6.71725 11.2166C6.71839 11.2223 6.71999 11.2279 6.72138 11.2335C6.72298 11.2401 6.72448 11.2467 6.72644 11.2531C6.7284 11.2596 6.73083 11.2658 6.7331 11.2722C6.73506 11.2776 6.73681 11.283 6.73903 11.2883C6.74182 11.2951 6.74512 11.3017 6.74827 11.3082C6.75049 11.3128 6.7525 11.3175 6.75488 11.322C6.75839 11.3286 6.76236 11.3349 6.76623 11.3413C6.76881 11.3455 6.77119 11.3499 6.77392 11.354C6.7779 11.3601 6.78228 11.3658 6.78662 11.3716C6.78977 11.3757 6.79271 11.3801 6.79601 11.3841C6.8003 11.3894 6.80489 11.3943 6.80938 11.3993C6.8132 11.4036 6.81692 11.4079 6.82094 11.412C6.82533 11.4165 6.82998 11.4206 6.83457 11.4248C6.83916 11.4291 6.8436 11.4334 6.8484 11.4374C6.85294 11.4412 6.85779 11.4447 6.86249 11.4483C6.86765 11.4523 6.87276 11.4563 6.87813 11.46C6.88308 11.4634 6.8883 11.4664 6.89341 11.4696C6.89888 11.473 6.90425 11.4765 6.90987 11.4796C6.91555 11.4828 6.92148 11.4855 6.92732 11.4884C6.93268 11.491 6.93795 11.4938 6.94347 11.4962C6.95023 11.4991 6.9573 11.5015 6.96427 11.5041C6.96912 11.5058 6.97387 11.5078 6.97883 11.5094C6.98693 11.5119 6.99529 11.514 7.00365 11.5161C7.00778 11.5171 7.01176 11.5183 7.01594 11.5192C7.02466 11.5211 7.03364 11.5223 7.04257 11.5236C7.04628 11.5241 7.04985 11.525 7.05361 11.5254C7.05403 11.5254 7.05444 11.5254 7.0549 11.5254C7.0675 11.5268 7.0803 11.5275 7.0932 11.5276C7.09454 11.5276 7.09594 11.5278 7.09728 11.5278C7.09764 11.5278 7.098 11.5277 7.09836 11.5277H16.9017C16.902 11.5277 16.9024 11.5278 16.9027 11.5278C16.9041 11.5278 16.9055 11.5276 16.9068 11.5276C16.9197 11.5275 16.9325 11.5268 16.9451 11.5254C16.9455 11.5254 16.9459 11.5254 16.9464 11.5254C16.9502 11.525 16.9537 11.5241 16.9575 11.5236C16.9664 11.5223 16.9754 11.5211 16.9841 11.5192C16.9883 11.5183 16.9922 11.5171 16.9964 11.5161C17.0047 11.514 17.0131 11.512 17.0212 11.5094C17.0262 11.5078 17.0309 11.5058 17.0357 11.5041C17.0427 11.5015 17.0497 11.499 17.0566 11.4961C17.0621 11.4937 17.0673 11.4909 17.0727 11.4883C17.0785 11.4855 17.0845 11.4827 17.0902 11.4796C17.0958 11.4764 17.1012 11.4729 17.1067 11.4695C17.1118 11.4664 17.117 11.4634 17.1219 11.46C17.1273 11.4563 17.1324 11.4522 17.1376 11.4483C17.1423 11.4446 17.1471 11.4412 17.1517 11.4374C17.1565 11.4333 17.1609 11.429 17.1655 11.4248C17.1701 11.4205 17.1747 11.4164 17.1791 11.412C17.1832 11.4079 17.1869 11.4035 17.1907 11.3993C17.1952 11.3943 17.1998 11.3893 17.2041 11.3841C17.2073 11.38 17.2103 11.3757 17.2135 11.3715ZM14.3226 2.32258C14.9743 2.32258 15.5863 2.86973 15.6589 3.51737L16.4703 10.7535H14.8176L14.6205 7.23742C14.7166 6.81879 14.8155 6.33982 14.9047 5.88748C14.9052 5.88511 14.9056 5.88274 14.9061 5.88036C15.0811 4.99174 15.2179 4.20898 15.2201 4.19711C15.2397 4.08449 15.2086 3.96903 15.1351 3.88155C15.0615 3.79406 14.9531 3.74354 14.8387 3.74354H13.3027L13.398 2.32258H14.3226ZM9.62399 4.51778H14.3761C14.3325 4.75711 14.2739 5.07314 14.2072 5.41935H13.0323C12.8185 5.41935 12.6452 5.59262 12.6452 5.80645C12.6452 6.02028 12.8185 6.19355 13.0323 6.19355H14.0536C13.9903 6.50276 13.9245 6.81043 13.8602 7.08914C13.6511 7.99561 12.9036 8.60459 12 8.60459C11.1039 8.60459 10.3616 8.00542 10.1454 7.11133C10.1449 7.10911 10.1443 7.10689 10.1438 7.10472C10.1425 7.09951 10.1411 7.0944 10.1399 7.08914C10.0756 6.81043 10.0098 6.50276 9.94647 6.19355H10.9678C11.1816 6.19355 11.3549 6.02028 11.3549 5.80645C11.3549 5.59262 11.1816 5.41935 10.9678 5.41935H9.79292C9.72618 5.07314 9.6676 4.75711 9.62399 4.51778ZM10.0809 8.55804C10.4855 8.98018 11.0203 9.26333 11.6129 9.35014V10.7535H9.95782L10.0809 8.55804ZM12.3871 9.35009C12.9798 9.26328 13.5145 8.98013 13.9191 8.55799L14.0422 10.7535H12.3871V9.35009ZM12 0.774194C12.2879 0.774194 12.5416 0.815484 12.7204 0.855639L12.5268 3.74359H11.4734L11.2797 0.855639C11.4585 0.815484 11.7123 0.774194 12 0.774194ZM8.3412 3.51732C8.41382 2.86973 9.02574 2.32258 9.67746 2.32258H10.6021L10.6974 3.74359H9.16133C9.04701 3.74359 8.93862 3.79412 8.86502 3.8816C8.79147 3.96908 8.7604 4.08459 8.78001 4.19716C8.78208 4.20903 8.91896 4.99185 9.09403 5.88041C9.09449 5.88279 9.09496 5.88516 9.09542 5.88754C9.18456 6.33982 9.2835 6.81879 9.3796 7.23742L9.18244 10.7535H7.52974L8.3412 3.51732Z" fill="black"/>
</svg>
