<svg width="24" height="24" viewBox="0 0 24 24" fill="none" xmlns="http://www.w3.org/2000/svg">
<path d="M16.7667 12.3049C16.555 12.279 16.3612 12.4289 16.3346 12.6411L15.0348 23.0528C15.0239 23.1401 14.9268 23.2259 14.8388 23.2259H9.16136C9.07336 23.2259 8.97633 23.1402 8.96544 23.0529L7.66557 12.6411C7.63904 12.4291 7.44564 12.2787 7.23346 12.3049C7.02133 12.3315 6.87083 12.5249 6.89731 12.737L8.19718 23.1487C8.25679 23.6261 8.68028 24 9.16136 24H14.8388C15.3198 24 15.7433 23.6261 15.803 23.1487L17.1029 12.737C17.1293 12.5249 16.9788 12.3315 16.7667 12.3049Z" fill="black"/>
<path d="M12.2424 21.5226C12.2424 21.2949 12.0572 21.1097 11.8295 21.1097C11.6019 21.1097 11.4166 21.2949 11.4166 21.5226C11.4166 21.7502 11.6019 21.9355 11.8295 21.9355C12.0572 21.9355 12.2424 21.7502 12.2424 21.5226Z" fill="black"/>
<path d="M10.6941 19.9742C10.6941 19.7465 10.5089 19.5613 10.2812 19.5613C10.0535 19.5613 9.86829 19.7465 9.86829 19.9742C9.86829 20.2019 10.0535 20.3871 10.2812 20.3871C10.5089 20.3871 10.6941 20.2019 10.6941 19.9742Z" fill="black"/>
<path d="M17.2642 11.0009L15.2884 5.89585C16.2498 4.7999 16.1556 3.30452 15.7233 2.2305C15.1861 0.896361 14.1047 0 13.0323 0C12.8184 0 12.6452 0.173265 12.6452 0.387097V3.65296C12.431 3.62648 12.2144 3.6129 12 3.6129C11.7856 3.6129 11.569 3.62648 11.3549 3.65296V0.387097C11.3549 0.173265 11.1815 0 10.9678 0C9.89534 0 8.81395 0.896361 8.27681 2.2305C7.84445 3.30452 7.7502 4.79985 8.71165 5.89585L6.7358 11.0009C6.68971 11.12 6.70535 11.2541 6.77751 11.3594C6.84966 11.4648 6.96915 11.5277 7.09684 11.5277H16.9033C17.031 11.5277 17.1504 11.4648 17.2226 11.3594C17.2947 11.2541 17.3104 11.12 17.2642 11.0009ZM13.4194 0.8352C14.0461 1.0289 14.6621 1.66777 15.0051 2.51969C15.291 3.22978 15.3991 4.16325 15.0069 4.93848C14.7024 4.39025 14.1096 4.02003 13.4194 3.81316V0.8352ZM14.3749 5.41936H13.0323C12.8184 5.41936 12.6452 5.59262 12.6452 5.80645C12.6452 6.02028 12.8184 6.19355 13.0323 6.19355H14.3973C14.1337 7.18591 12.9511 8.25807 12 8.25807C11.0489 8.25807 9.86628 7.18591 9.6027 6.19355H10.9678C11.1815 6.19355 11.3549 6.02028 11.3549 5.80645C11.3549 5.59262 11.1815 5.41936 10.9678 5.41936H9.6251C9.93766 4.66999 11.1481 4.3871 12 4.3871C12.8519 4.3871 14.0623 4.66999 14.3749 5.41936ZM8.99501 2.51959C9.33797 1.66772 9.95402 1.02885 10.5807 0.835148V3.81316C9.89044 4.02003 9.29771 4.39025 8.99315 4.93837C8.60094 4.16315 8.70912 3.22968 8.99501 2.51959ZM7.66169 10.7536L9.10788 7.01698C9.28533 7.35339 9.52817 7.68274 9.82592 7.98054C10.4845 8.63912 11.2972 9.03226 12 9.03226C12.7028 9.03226 13.5155 8.63912 14.1741 7.98054C14.4719 7.68274 14.7147 7.35339 14.8921 7.01698L16.3383 10.7536H7.66169Z" fill="black"/>
</svg>
