<svg width="24" height="24" viewBox="0 0 24 24" fill="none" xmlns="http://www.w3.org/2000/svg">
<path d="M19.3739 20.8451V3.15495C19.3739 2.94112 19.2006 2.76785 18.9868 2.76785H10.1745C9.96065 2.76785 9.78739 2.94112 9.78739 3.15495C9.78739 3.36878 9.96065 3.54205 10.1745 3.54205H18.5997V20.458H5.40029V3.54205H8.6261C8.83993 3.54205 9.0132 3.36878 9.0132 3.15495C9.0132 2.94112 8.83993 2.76785 8.6261 2.76785H5.0132C4.79936 2.76785 4.6261 2.94112 4.6261 3.15495V20.8451C4.6261 21.0589 4.79936 21.2322 5.0132 21.2322H18.9868C19.2006 21.2322 19.3739 21.0589 19.3739 20.8451Z" fill="black"/>
<path d="M15.89 15.6491C16.1039 15.6491 16.2771 15.4758 16.2771 15.262V6.25172C16.2771 6.03789 16.1039 5.86462 15.89 5.86462H8.11C7.89616 5.86462 7.7229 6.03789 7.7229 6.25172V17.7483C7.7229 17.9621 7.89616 18.1354 8.11 18.1354H15.89C16.1039 18.1354 16.2771 17.9621 16.2771 17.7483V16.8104C16.2771 16.5965 16.1039 16.4233 15.89 16.4233C15.6762 16.4233 15.5029 16.5965 15.5029 16.8104V17.3612H8.49709V6.63882H15.5029V15.262C15.5029 15.4758 15.6762 15.6491 15.89 15.6491Z" fill="black"/>
<path d="M20.5352 0C20.3214 0 20.1481 0.173265 20.1481 0.387097V1.21946H18.4837V0.387097C18.4837 0.173265 18.3104 0 18.0966 0C17.8828 0 17.7095 0.173265 17.7095 0.387097V1.21946H16.045V0.387097C16.045 0.173265 15.8718 0 15.6579 0C15.4441 0 15.2708 0.173265 15.2708 0.387097V1.21946H13.6064V0.387097C13.6064 0.173265 13.4332 0 13.2193 0C13.0055 0 12.8322 0.173265 12.8322 0.387097V1.21946H11.1678V0.387097C11.1678 0.173265 10.9946 0 10.7807 0C10.5669 0 10.3936 0.173265 10.3936 0.387097V1.21946H8.72922V0.387097C8.72922 0.173265 8.55595 0 8.34212 0C8.12829 0 7.95502 0.173265 7.95502 0.387097V1.21946H6.29056V0.387097C6.29056 0.173265 6.11729 0 5.90346 0C5.68963 0 5.51637 0.173265 5.51637 0.387097V1.21946H3.85195V0.387097C3.85195 0.173265 3.67869 0 3.46486 0C3.25102 0 3.07776 0.173265 3.07776 0.387097V1.60655V22.3934V23.6129C3.07776 23.8267 3.25102 24 3.46486 24C3.67869 24 3.85195 23.8267 3.85195 23.6129V22.7805H5.51637V23.6129C5.51637 23.8267 5.68963 24 5.90346 24C6.11729 24 6.29056 23.8267 6.29056 23.6129V22.7805H7.95502V23.6129C7.95502 23.8267 8.12829 24 8.34212 24C8.55595 24 8.72922 23.8267 8.72922 23.6129V22.7805H10.3936V23.6129C10.3936 23.8267 10.5669 24 10.7807 24C10.9946 24 11.1678 23.8267 11.1678 23.6129V22.7805H12.8322V23.6129C12.8322 23.8267 13.0055 24 13.2193 24C13.4332 24 13.6064 23.8267 13.6064 23.6129V22.7805H15.2708V23.6129C15.2708 23.8267 15.4441 24 15.6579 24C15.8718 24 16.045 23.8267 16.045 23.6129V22.7805H17.7095V23.6129C17.7095 23.8267 17.8828 24 18.0966 24C18.3104 24 18.4837 23.8267 18.4837 23.6129V22.7805H20.1481V23.6129C20.1481 23.8267 20.3214 24 20.5352 24C20.749 24 20.9223 23.8267 20.9223 23.6129V22.3934V1.60655V0.387097C20.9223 0.173265 20.749 0 20.5352 0ZM3.85195 1.99365H20.1481V22.0063H3.85195V1.99365Z" fill="black"/>
</svg>
