<svg width="24" height="24" viewBox="0 0 24 24" fill="none" xmlns="http://www.w3.org/2000/svg">
<path d="M11.9999 8.25807C11.6441 8.25807 11.3547 8.54747 11.3547 8.90323C11.3547 9.259 11.6441 9.54839 11.9999 9.54839C12.3557 9.54839 12.6451 9.259 12.6451 8.90323C12.6451 8.54747 12.3557 8.25807 11.9999 8.25807Z" fill="black"/>
<path d="M11.9999 12.3871C11.6441 12.3871 11.3547 12.6765 11.3547 13.0323C11.3547 13.388 11.6441 13.6774 11.9999 13.6774C12.3557 13.6774 12.6451 13.388 12.6451 13.0323C12.6451 12.6765 12.3557 12.3871 11.9999 12.3871Z" fill="black"/>
<path d="M11.9999 10.3226C11.6441 10.3226 11.3547 10.612 11.3547 10.9677C11.3547 11.3235 11.6441 11.6129 11.9999 11.6129C12.3557 11.6129 12.6451 11.3235 12.6451 10.9677C12.6451 10.612 12.3557 10.3226 11.9999 10.3226Z" fill="black"/>
<path d="M18.0645 15.8275V6.06452C18.0645 2.72052 15.3439 0 11.9999 0C8.65594 0 5.93542 2.72052 5.93542 6.06452V15.8275C5.93542 17.9037 7.00964 19.802 8.68748 20.9032H7.09672C6.45641 20.9032 5.93542 21.4242 5.93542 22.0645C5.93542 22.7048 6.45641 23.2258 7.09672 23.2258H10.131C10.2908 23.6763 10.7211 24 11.2257 24C11.5229 24 11.7944 23.8878 11.9999 23.7036C12.2055 23.8878 12.477 24 12.7741 24C13.2788 24 13.7091 23.6763 13.8688 23.2258H16.9032C17.5435 23.2258 18.0645 22.7048 18.0645 22.0645C18.0645 21.4242 17.5435 20.9032 16.9032 20.9032H15.3124C16.9902 19.802 18.0645 17.9037 18.0645 15.8275ZM13.7985 19.1091C13.6028 18.7434 13.2171 18.494 12.7741 18.494C12.477 18.494 12.2055 18.6062 11.9999 18.7905C11.7944 18.6062 11.5229 18.494 11.2257 18.494C10.7828 18.494 10.3971 18.7434 10.2013 19.1091C9.00804 18.4575 8.25801 17.2122 8.25801 15.8275V6.06452C8.25801 4.00119 9.93661 2.32258 11.9999 2.32258C14.0633 2.32258 15.7419 4.00119 15.7419 6.06452V15.8275C15.7419 17.2122 14.9918 18.4575 13.7985 19.1091ZM6.70962 22.0645C6.70962 21.851 6.88324 21.6774 7.09672 21.6774H10.0645V22.4516H7.09672C6.88324 22.4516 6.70962 22.278 6.70962 22.0645ZM12.7741 23.2258C12.5607 23.2258 12.387 23.0522 12.387 22.8387V21.2037C12.387 20.9898 12.2138 20.8166 11.9999 20.8166C11.7861 20.8166 11.6128 20.9898 11.6128 21.2037V22.8387C11.6128 23.0522 11.4392 23.2258 11.2257 23.2258C11.0123 23.2258 10.8387 23.0522 10.8387 22.8387V19.6553C10.8387 19.4418 11.0123 19.2682 11.2257 19.2682C11.4392 19.2682 11.6128 19.4418 11.6128 19.6553C11.6128 19.8691 11.7861 20.0424 11.9999 20.0424C12.2138 20.0424 12.387 19.8691 12.387 19.6553C12.387 19.4418 12.5607 19.2682 12.7741 19.2682C12.9876 19.2682 13.1612 19.4418 13.1612 19.6553V22.8387C13.1612 23.0522 12.9876 23.2258 12.7741 23.2258ZM17.2903 22.0645C17.2903 22.278 17.1166 22.4516 16.9032 22.4516H13.9354V21.6774H16.9032C17.1166 21.6774 17.2903 21.851 17.2903 22.0645ZM13.9354 20.7501V19.9072C15.5114 19.1612 16.5161 17.5879 16.5161 15.8276V6.06452C16.5161 3.5743 14.4902 1.54839 11.9999 1.54839C9.50972 1.54839 7.48381 3.5743 7.48381 6.06452V15.8275C7.48381 17.5879 8.48851 19.1612 10.0645 19.9071V20.7501C8.06595 19.9614 6.70962 18.0067 6.70962 15.8275V6.06452C6.70962 3.14741 9.08283 0.774194 11.9999 0.774194C14.9171 0.774194 17.2903 3.14741 17.2903 6.06452V15.8275C17.2903 18.0067 15.9339 19.9614 13.9354 20.7501Z" fill="black"/>
</svg>
