<svg width="24" height="24" viewBox="0 0 24 24" fill="none" xmlns="http://www.w3.org/2000/svg">
<path d="M21.5484 7.48387C20.8138 7.48387 20.1542 7.80903 19.7045 8.32248C18.9582 4.75344 15.7874 2.06451 12 2.06451C8.21265 2.06451 5.04175 4.75344 4.29548 8.32248C3.84578 7.80903 3.18617 7.48387 2.45161 7.48387C1.09982 7.48387 0 8.58369 0 9.93548V21.5484C0 21.7622 0.173316 21.9355 0.387097 21.9355H23.6129C23.8267 21.9355 24 21.7622 24 21.5484V9.93548C24 8.58369 22.9002 7.48387 21.5484 7.48387ZM23.2258 21.1613H0.774194V9.93548C0.774194 9.01053 1.52671 8.25806 2.45161 8.25806C3.37652 8.25806 4.12903 9.01053 4.12903 9.93548C4.12903 14.2756 7.65992 17.8064 12 17.8064C13.8019 17.8064 15.5635 17.1815 16.9601 16.0467C17.126 15.9119 17.1512 15.6681 17.0164 15.5021C16.8815 15.3362 16.6378 15.3109 16.4718 15.4458C15.2128 16.4688 13.6247 17.0323 12 17.0323C8.08681 17.0323 4.90323 13.8486 4.90323 9.93548C4.90323 6.02235 8.08681 2.83871 12 2.83871C15.9131 2.83871 19.0968 6.02235 19.0968 9.93548C19.0968 11.5602 18.5334 13.1483 17.5104 14.4073C17.3756 14.5733 17.4008 14.817 17.5667 14.9518C17.7326 15.0867 17.9765 15.0614 18.1112 14.8955C19.246 13.4989 19.871 11.7374 19.871 9.93548C19.871 9.01053 20.6234 8.25806 21.5484 8.25806C22.4733 8.25806 23.2258 9.01053 23.2258 9.93548V21.1613Z" fill="black"/>
</svg>
