<svg width="24" height="24" viewBox="0 0 24 24" fill="none" xmlns="http://www.w3.org/2000/svg">
<path d="M17.5484 17.2903H14.5888L14.6575 14.1181C15.8048 13.4322 16.8498 12.3047 17.6173 10.9189C18.405 9.49662 18.8387 7.92857 18.8387 6.50354C18.8387 5.10617 18.4201 3.76232 17.6279 2.61724C16.8617 1.50952 15.7998 0.660645 14.5559 0.159174C14.3312 0.0549677 14.0777 0 13.8065 0H10.1936C9.9223 0 9.66878 0.0550194 9.444 0.159226C8.20018 0.660697 7.1384 1.50957 6.37221 2.61714C5.58005 3.76227 5.16132 5.10617 5.16132 6.50354C5.16132 7.92852 5.59507 9.49652 6.38263 10.9187C7.15017 12.3046 8.19518 13.4321 9.34253 14.1181L9.41128 17.2903H6.45164C4.60178 17.2903 3.0968 18.7953 3.0968 20.6452C3.0968 22.495 4.60178 24 6.45164 24H17.5484C19.3983 24 20.9033 22.495 20.9033 20.6452C20.9033 18.7953 19.3983 17.2903 17.5484 17.2903ZM18.0645 6.50354C18.0645 8.98787 16.6182 11.775 14.6779 13.1777L14.8651 4.54096C14.9279 4.40145 14.9759 4.25585 15.0058 4.10596L15.4307 1.98126C15.462 1.82514 15.4732 1.67133 15.4656 1.52217C17.0776 2.63763 18.0645 4.47546 18.0645 6.50354ZM13.8065 0.774194C14.1002 0.774194 14.3506 0.882271 14.5115 1.0785C14.6723 1.27474 14.7292 1.54147 14.6716 1.82947L14.2467 3.95417C14.1158 4.60852 13.4415 5.16129 12.7742 5.16129H11.2258C10.5585 5.16129 9.88426 4.60852 9.75337 3.95417L9.32844 1.82947C9.27084 1.54147 9.32772 1.27479 9.4886 1.0785C9.64947 0.882219 9.89985 0.774194 10.1936 0.774194H13.8065ZM5.93551 6.50354C5.93551 4.47541 6.9225 2.63763 8.53438 1.52222C8.52684 1.67138 8.53804 1.82519 8.56927 1.98132L8.99419 4.10601C9.02418 4.2559 9.07218 4.4015 9.13489 4.54101L9.32209 13.1777C7.38191 11.7749 5.93551 8.98782 5.93551 6.50354ZM6.45164 23.2258C5.02867 23.2258 3.871 22.0681 3.871 20.6452C3.871 19.2222 5.02867 18.0645 6.45164 18.0645H9.42805L9.45603 19.3549L7.61293 19.3548C7.39915 19.3548 7.22583 19.5282 7.22583 19.7419C7.22583 19.9557 7.39915 20.129 7.61293 20.129L9.4728 20.1291L9.49814 21.2993C9.51445 22.0531 9.84013 22.7354 10.3506 23.2258H6.45164ZM17.5484 23.2258H12.2581C11.1862 23.2258 10.2954 22.354 10.2722 21.2825L9.93004 5.49827C10.3103 5.77058 10.7652 5.93548 11.2258 5.93548H12.7742C13.2349 5.93548 13.6897 5.77058 14.07 5.49827L13.7782 18.9595C13.7714 19.2703 13.8872 19.5636 14.1041 19.7853C14.321 20.0069 14.6116 20.129 14.9226 20.129H16.3871C16.6009 20.129 16.7742 19.9557 16.7742 19.7419C16.7742 19.5281 16.6009 19.3548 16.3871 19.3548H14.9226C14.8217 19.3548 14.7275 19.3154 14.6574 19.2438C14.5874 19.1723 14.55 19.0772 14.5522 18.9763L14.572 18.0645H17.5484C18.9714 18.0645 20.1291 19.2222 20.1291 20.6452C20.1291 22.0681 18.9714 23.2258 17.5484 23.2258Z" fill="black"/>
<path d="M10.6941 3.75763C10.7696 3.83319 10.8687 3.87097 10.9678 3.87097C11.0668 3.87097 11.1659 3.83319 11.2415 3.75763C11.3927 3.60641 11.3927 3.36135 11.2415 3.21017L10.7254 2.69405C10.5742 2.54292 10.3291 2.54292 10.178 2.69405C10.0268 2.84527 10.0268 3.09033 10.178 3.2415L10.6941 3.75763Z" fill="black"/>
<path d="M13.0323 3.87097C13.1314 3.87097 13.2305 3.83319 13.3061 3.75763L13.8222 3.2415C13.9734 3.09028 13.9734 2.84522 13.8222 2.69405C13.671 2.54292 13.4259 2.54292 13.2748 2.69405L12.7586 3.21017C12.6075 3.3614 12.6075 3.60646 12.7586 3.75763C12.8342 3.83319 12.9333 3.87097 13.0323 3.87097Z" fill="black"/>
</svg>
