<svg width="24" height="24" viewBox="0 0 24 24" fill="none" xmlns="http://www.w3.org/2000/svg">
<path d="M20 1.42023C18.998 1.42023 18.0388 1.79381 17.2989 2.47221C16.5992 3.11376 16.1531 3.97353 16.0329 4.90633L0.753799 20.1854L0.662548 20.0941C0.511322 19.943 0.266264 19.943 0.11509 20.0941C-0.0360846 20.2454 -0.0360846 20.4904 0.11509 20.6416L1.93986 22.4664C2.01548 22.5419 2.11457 22.5797 2.21362 22.5797C2.31266 22.5797 2.41176 22.5419 2.48737 22.4664C2.63855 22.3152 2.63855 22.0701 2.48737 21.9189L2.39612 21.8277L18.2092 6.01461C18.2817 5.94199 18.3225 5.84356 18.3225 5.74085V5.42013C18.3225 4.49518 19.075 3.74271 19.9999 3.74271C20.9249 3.74271 21.6774 4.49518 21.6774 5.42013C21.6774 6.34509 20.9249 7.09755 19.9999 7.09755C18.9298 7.09755 17.8987 7.60434 17.2417 8.45332C17.1225 8.60738 17.1364 8.82617 17.2742 8.96398L18.3871 10.077C18.472 10.1618 18.5914 10.2028 18.7106 10.1871C18.8297 10.1717 18.9348 10.1019 18.9953 9.99825C19.2032 9.64171 19.5882 9.42018 20 9.42018C22.2056 9.42018 24 7.62576 24 5.42018C24 3.21461 22.2056 1.42023 20 1.42023ZM22.2921 4.55164L22.9695 4.16052C23.1344 4.54772 23.2258 4.97347 23.2258 5.42018C23.2258 5.86978 23.133 6.29807 22.9662 6.68728L22.2891 6.29642C22.3937 6.02411 22.4516 5.72888 22.4516 5.42023C22.4516 5.11448 22.3948 4.82184 22.2921 4.55164ZM14.3235 8.80547L13.776 8.25802L15.3077 6.72635L15.8552 7.27381L14.3235 8.80547ZM12.2444 10.8846L11.697 10.3372L13.2286 8.80553L13.7761 9.35298L12.2444 10.8846ZM10.1652 12.9637L9.6178 12.4163L11.1495 10.8846L11.6969 11.4321L10.1652 12.9637ZM8.08608 15.0428L7.53868 14.4954L9.07034 12.9638L9.61775 13.5112L8.08608 15.0428ZM6.00696 17.122L5.45955 16.5746L6.99122 15.0429L7.53863 15.5903L6.00696 17.122ZM3.92784 19.2011L3.38043 18.6537L4.9121 17.122L5.4595 17.6694L3.92784 19.2011ZM1.30131 20.7329L2.83297 19.2012L3.38038 19.7486L1.84872 21.2803L1.30131 20.7329ZM17.5484 5.5806L16.4026 6.72635L15.8552 6.17889L16.6763 5.35778C16.7401 5.29389 16.7797 5.20971 16.788 5.1198C16.8194 4.78085 16.9053 4.45745 17.0352 4.15701L17.7099 4.54653C17.6059 4.81812 17.5484 5.11252 17.5484 5.42023V5.5806ZM18.0974 3.87629L17.4254 3.48826C17.9463 2.80052 18.7341 2.32594 19.6184 2.21838V2.99845C19.0076 3.09435 18.4712 3.41662 18.0974 3.87629ZM20.3925 3.00042V2.21915C21.286 2.32811 22.0682 2.80289 22.5829 3.48981L21.906 3.88062C21.5343 3.42142 21.0007 3.09874 20.3925 3.00042ZM18.6251 9.21998L18.0779 8.67288C18.4937 8.25678 19.0383 7.98405 19.6183 7.89987V8.68444C19.2418 8.76083 18.8953 8.94818 18.6251 9.21998ZM20.3925 8.62127V7.84C20.9978 7.74214 21.5295 7.42209 21.9009 6.96625L22.5778 7.35706C22.0631 8.04042 21.2832 8.51267 20.3925 8.62127Z" fill="black"/>
<path d="M0.373502 16.2C0.378251 16.2002 0.382896 16.2003 0.387541 16.2003C0.594974 16.2003 0.76669 16.0359 0.774122 15.827L1.01887 8.9681H1.54863V15.8132C1.54863 16.027 1.72189 16.2003 1.93572 16.2003C2.14955 16.2003 2.32282 16.027 2.32282 15.8132V8.9681H2.85252L3.09727 15.827C3.10475 16.036 3.27647 16.2003 3.48385 16.2003C3.48855 16.2003 3.49324 16.2002 3.49789 16.2C3.71157 16.1924 3.87853 16.013 3.87095 15.7993L3.61288 8.56717C3.61268 8.56175 3.6119 8.55644 3.61149 8.55107C3.61103 8.54513 3.61066 8.53925 3.60994 8.53332C3.60886 8.52454 3.60726 8.51597 3.60561 8.50746C3.60483 8.50338 3.60447 8.49925 3.60354 8.49517L2.61051 4.12578L8.89102 10.4063C8.96664 10.4819 9.06573 10.5196 9.16478 10.5196C9.26383 10.5196 9.36292 10.4819 9.43853 10.4063C9.58971 10.2551 9.58971 10.01 9.43853 9.85884L2.48313 2.90359L3.03053 2.35618L9.98584 9.31148C10.1371 9.46261 10.3821 9.46261 10.5333 9.31148C10.6845 9.16026 10.6845 8.9152 10.5333 8.76402L3.30434 1.53497C3.15306 1.38374 2.90801 1.38384 2.75688 1.53497L1.66197 2.62983C1.65995 2.63184 1.6583 2.63401 1.65634 2.63602C1.65097 2.64165 1.64576 2.64738 1.6407 2.65331C1.63761 2.65693 1.63456 2.66059 1.63162 2.66431C1.62708 2.67004 1.62279 2.67602 1.61861 2.68201C1.61583 2.68599 1.61293 2.68986 1.61035 2.69388C1.60623 2.70023 1.60251 2.70689 1.59874 2.71349C1.59518 2.71974 1.59183 2.72609 1.58868 2.73249C1.58501 2.73997 1.58135 2.74746 1.57815 2.7552C1.57588 2.76072 1.57402 2.76635 1.57201 2.77192C1.56999 2.77744 1.56798 2.78291 1.56623 2.78854C1.56442 2.79432 1.56297 2.8002 1.56143 2.80609C1.56039 2.81001 1.55915 2.81383 1.55823 2.8178L0.269399 8.48867C0.269193 8.48944 0.26909 8.49017 0.268883 8.49094L0.267902 8.49517C0.267283 8.49786 0.267077 8.50059 0.266561 8.50328C0.264496 8.51329 0.26269 8.52335 0.261451 8.53368C0.26078 8.5393 0.260419 8.54498 0.260006 8.5506C0.259593 8.55613 0.258767 8.56155 0.258561 8.56712L0.000496057 15.7993C-0.00714265 16.013 0.159877 16.1924 0.373502 16.2ZM1.93572 4.65027L2.74109 8.19391H1.1303L1.93572 4.65027Z" fill="black"/>
<path d="M22.0459 20.0941L21.9546 20.1854L13.8177 12.0484C13.6665 11.8973 13.4214 11.8973 13.2703 12.0484C13.1191 12.1996 13.1191 12.4447 13.2703 12.5959L21.4072 20.7328L20.8598 21.2802L12.7229 13.1433C12.5716 12.9922 12.3266 12.9922 12.1754 13.1433C12.0242 13.2945 12.0242 13.5396 12.1754 13.6907L20.3123 21.8277L20.2211 21.9189C20.0699 22.0701 20.0699 22.3152 20.2211 22.4664C20.2967 22.5419 20.3958 22.5797 20.4948 22.5797C20.5939 22.5797 20.693 22.5419 20.7686 22.4664L22.5934 20.6416C22.7445 20.4904 22.7445 20.2453 22.5934 20.0941C22.4421 19.943 22.1971 19.943 22.0459 20.0941Z" fill="black"/>
</svg>
