<svg width="24" height="24" viewBox="0 0 24 24" fill="none" xmlns="http://www.w3.org/2000/svg">
<path d="M23.6211 4.60543C23.8303 4.60543 24 4.43576 24 4.22648C24 4.0172 23.8303 3.84753 23.6211 3.84753H0.378947C0.169667 3.84753 0 4.0172 0 4.22648C0 4.43576 0.169667 4.60543 0.378947 4.60543H1.61684V5.36454C1.42959 5.37697 1.27781 5.52531 1.26417 5.71504L0.253642 19.7462C0.246063 19.8512 0.282493 19.9546 0.354189 20.0316C0.425836 20.1086 0.526383 20.1524 0.631579 20.1524H9.80423C10.0135 20.1524 10.1832 19.9828 10.1832 19.7735V18.6366H13.8168V19.7735C13.8168 19.9828 13.9864 20.1524 14.1957 20.1524H23.3684C23.4737 20.1524 23.5742 20.1087 23.6458 20.0316C23.7175 19.9546 23.7539 19.8512 23.7464 19.7462L22.7358 5.71504C22.7222 5.52531 22.5704 5.37692 22.3832 5.36454V4.60543H23.6211ZM14.5747 12.5524C14.5747 12.3431 14.4051 12.1734 14.1958 12.1734C13.9865 12.1734 13.8168 12.3431 13.8168 12.5524V17.8788H12.3046V16.5143C12.3046 16.305 12.1349 16.1353 11.9256 16.1353C11.7163 16.1353 11.5467 16.305 11.5467 16.5143V17.8788H10.1832V12.5524C10.1832 12.3431 10.0136 12.1734 9.80428 12.1734C9.595 12.1734 9.42533 12.3431 9.42533 12.5524V19.3946H8.91289V12.5524C8.91289 12.3431 8.74323 12.1734 8.53395 12.1734C8.32467 12.1734 8.155 12.3431 8.155 12.5524V19.3946H7.04913V12.5524C7.04913 12.3431 6.87946 12.1734 6.67018 12.1734C6.4609 12.1734 6.29123 12.3431 6.29123 12.5524V19.3946H5.7788V12.5524C5.7788 12.3431 5.60913 12.1734 5.39985 12.1734C5.19057 12.1734 5.0209 12.3431 5.0209 12.5524V19.3946H4.04211V9.49562H5.02095V11.2593C4.94319 11.3287 4.89393 11.4294 4.89393 11.5418C4.89393 11.7511 5.0636 11.9208 5.27288 11.9208H6.79726C7.00654 11.9208 7.1762 11.7511 7.1762 11.5418C7.1762 11.4294 7.12694 11.3287 7.04918 11.2593V9.49562H8.15505V11.2593C8.07729 11.3287 8.02803 11.4294 8.02803 11.5418C8.02803 11.7511 8.19769 11.9208 8.40697 11.9208H9.93135C10.1406 11.9208 10.3103 11.7511 10.3103 11.5418C10.3103 11.4294 10.261 11.3287 10.1833 11.2593V9.49562H13.8169V11.2593C13.7391 11.3287 13.6899 11.4294 13.6899 11.5418C13.6899 11.7511 13.8595 11.9208 14.0688 11.9208H15.5932C15.8025 11.9208 15.9721 11.7511 15.9721 11.5418C15.9721 11.4294 15.9229 11.3287 15.8451 11.2593V9.49562H16.951V11.2593C16.8732 11.3287 16.8239 11.4294 16.8239 11.5418C16.8239 11.7511 16.9936 11.9208 17.2029 11.9208H18.7273C18.9366 11.9208 19.1062 11.7511 19.1062 11.5418C19.1062 11.4294 19.057 11.3287 18.9792 11.2593V9.49562H19.9579V19.3946H18.979V12.5524C18.979 12.3431 18.8094 12.1734 18.6001 12.1734C18.3908 12.1734 18.2212 12.3431 18.2212 12.5524V19.3946H17.7087V12.5524C17.7087 12.3431 17.539 12.1734 17.3298 12.1734C17.1205 12.1734 16.9508 12.3431 16.9508 12.5524V19.3946H15.845V12.5524C15.845 12.3431 15.6753 12.1734 15.466 12.1734C15.2567 12.1734 15.0871 12.3431 15.0871 12.5524V19.3946H14.5746V12.5524H14.5747ZM6.29123 9.49562V11.1629H5.7788V9.49562H6.29123ZM9.42528 9.49562V11.1629H8.91284V9.49562H9.42528ZM15.0871 9.49562V11.1629H14.5747V9.49562H15.0871ZM18.2212 9.49562V11.1629H17.7087V9.49562H18.2212ZM22.9612 19.3946H20.7158V9.11667C20.7158 8.90739 20.5461 8.73772 20.3368 8.73772H3.66316C3.45388 8.73772 3.28421 8.90739 3.28421 9.11667V19.3946H1.03882L1.99478 6.12127H22.0053L22.9612 19.3946ZM21.6253 5.36332H2.37474V4.60543H21.6253V5.36332Z" fill="black"/>
</svg>
