<svg width="24" height="24" viewBox="0 0 24 24" fill="none" xmlns="http://www.w3.org/2000/svg">
<g clip-path="url(#clip0_277_103)">
<path d="M5.92714 8.82363C6.14097 8.82363 6.31423 8.65031 6.31423 8.43653V5.20815H17.6858V8.43653C17.6858 8.65031 17.8591 8.82363 18.0729 8.82363C18.2867 8.82363 18.46 8.65031 18.46 8.43653V4.82105C18.46 4.60727 18.2867 4.43395 18.0729 4.43395H16.8054C16.6077 1.95591 14.528 -7.62939e-06 12 -7.62939e-06C9.47201 -7.62939e-06 7.39237 1.95591 7.19459 4.43395H5.92714C5.7133 4.43395 5.54004 4.60727 5.54004 4.82105V8.43653C5.54004 8.65031 5.7133 8.82363 5.92714 8.82363ZM12 0.774186C14.1008 0.774186 15.8323 2.38348 16.0279 4.43395H7.97214C8.1677 2.38348 9.89921 0.774186 12 0.774186Z" fill="black"/>
<path d="M23.6129 4.88671C23.3991 4.88671 23.2258 5.06003 23.2258 5.27381V9.87613C22.6465 9.20934 21.7934 8.78648 20.8429 8.78648C19.2332 8.78648 17.9019 9.99773 17.7103 11.5565H16.8054C16.6076 9.0785 14.528 7.12258 12 7.12258C9.472 7.12258 7.39236 9.0785 7.19458 11.5565H6.28965C6.09812 9.99778 4.76681 8.78653 3.15711 8.78653C2.20655 8.78653 1.3535 9.20939 0.774194 9.87618V5.27386C0.774194 5.06008 0.600929 4.88676 0.387097 4.88676C0.173265 4.88676 0 5.06003 0 5.27381V11.9436V23.6129C0 23.8267 0.173265 24 0.387097 24H9.22999C9.44382 24 9.61708 23.8267 9.61708 23.6129V19.0931H14.3829V23.6129C14.3829 23.8267 14.5562 24 14.77 24H23.6129C23.8267 24 24 23.8267 24 23.6129V11.9436V5.27381C24 5.06003 23.8267 4.88671 23.6129 4.88671ZM20.8429 9.56067C22.025 9.56067 23.0084 10.4261 23.1939 11.5565H18.4919C18.6774 10.4261 19.6607 9.56067 20.8429 9.56067ZM12 7.89678C14.1008 7.89678 15.8323 9.50607 16.0279 11.5565H7.97213C8.16769 9.50607 9.8992 7.89678 12 7.89678ZM3.15711 9.56067C4.33925 9.56067 5.32258 10.4261 5.50808 11.5565H0.806142C0.991639 10.4261 1.97497 9.56067 3.15711 9.56067ZM9.64903 18.3189C9.83453 17.1885 10.8179 16.3231 12 16.3231C13.1821 16.3231 14.1655 17.1885 14.351 18.3189H9.64903ZM15.1571 23.2258V18.707C15.1571 18.7066 15.1572 18.7063 15.1572 18.706C15.1572 18.7053 15.1571 18.7047 15.1571 18.704C15.156 16.9641 13.7401 15.5489 12 15.5489C10.2599 15.5489 8.84403 16.9641 8.84294 18.704C8.84294 18.7047 8.84284 18.7053 8.84284 18.706C8.84284 18.7064 8.84289 18.7067 8.84289 18.707V23.2258H0.774194V19.0931H7.68155C7.89538 19.0931 8.06865 18.9198 8.06865 18.706C8.06865 18.4922 7.89538 18.3189 7.68155 18.3189H0.774194V12.3307H23.2258V18.3189H16.3185C16.1046 18.3189 15.9314 18.4922 15.9314 18.706C15.9314 18.9198 16.1046 19.0931 16.3185 19.0931H23.2258V23.2258H15.1571Z" fill="black"/>
</g>
<defs>
<clipPath id="clip0_277_103">
<rect width="24" height="24" fill="white"/>
</clipPath>
</defs>
</svg>
