<svg width="24" height="24" viewBox="0 0 24 24" fill="none" xmlns="http://www.w3.org/2000/svg">
<path d="M22.9578 2.98776C21.5682 1.5982 19.3073 1.5982 17.9178 2.98776L4.0095 16.896C4.00599 16.8994 4.00253 16.9029 3.99913 16.9065L0.113388 20.7921C-0.0377961 20.9433 -0.0377961 21.1884 0.113388 21.3396C0.264573 21.4908 0.5097 21.4908 0.660833 21.3396L4.39022 17.6102C7.17844 18.4381 9.76489 19.9347 11.883 21.9478C11.9554 22.0166 12.0511 22.0544 12.1497 22.0544C12.1667 22.0544 12.1836 22.0533 12.2006 22.051C12.3167 22.0356 12.4195 21.9686 12.4803 21.8686L13.8238 19.663C13.8264 19.6588 13.8289 19.6547 13.8314 19.6505L15.1372 17.5066C15.1398 17.5024 15.1424 17.4982 15.1449 17.4939L16.4873 15.29C16.4898 15.286 16.4922 15.2821 16.4945 15.2781L17.8052 13.1262C17.8067 13.1238 17.8082 13.1214 17.8096 13.119L19.1102 10.9837C19.1127 10.9797 19.1152 10.9757 19.1176 10.9716L20.2775 9.06725C21.2781 9.11298 22.2436 8.74186 22.9578 8.0277C24.3474 6.63823 24.3474 4.37728 22.9578 2.98776ZM22.4104 7.4803C21.8252 8.06548 21.0243 8.35644 20.2012 8.2865C19.235 7.67469 18.2235 7.14903 17.1931 6.72335C16.9953 6.64169 16.7691 6.73574 16.6875 6.93332C16.6058 7.13091 16.6999 7.3573 16.8975 7.43891C17.7998 7.81173 18.6876 8.26472 19.5414 8.78759L18.6628 10.23C17.6331 9.55606 16.5369 8.98017 15.3985 8.51557C15.2006 8.43479 14.9746 8.52972 14.8938 8.72772C14.813 8.92567 14.908 9.15159 15.106 9.23242C16.2062 9.68149 17.2655 10.2389 18.2598 10.8916L17.363 12.364C16.1897 11.5426 14.9262 10.8535 13.6015 10.3128C13.4036 10.2319 13.1776 10.3269 13.0968 10.5248C13.016 10.7228 13.1109 10.9488 13.3089 11.0296C14.5955 11.5547 15.8219 12.2257 16.9594 13.0266L16.0535 14.5139C14.7439 13.5349 13.3164 12.727 11.8043 12.1098C11.6063 12.029 11.3804 12.124 11.2996 12.3219C11.2188 12.5199 11.3137 12.7459 11.5117 12.8266C12.9857 13.4283 14.3758 14.2186 15.6489 15.1783L14.711 16.7182C14.2762 16.3711 13.8248 16.0415 13.3647 15.7352C13.1868 15.6167 12.9464 15.6649 12.8279 15.8428C12.7095 16.0208 12.7576 16.2611 12.9356 16.3796C13.4044 16.6918 13.8638 17.0291 14.3048 17.385L13.4049 18.8625C11.8433 17.5351 10.0952 16.4727 8.20226 15.7009C8.00436 15.6202 7.77838 15.7153 7.69765 15.9133C7.61698 16.1112 7.712 16.3372 7.91 16.4179C9.76448 17.1739 11.4744 18.221 12.9969 19.5323L12.0656 21.0613C10.0307 19.2217 7.61063 17.8262 5.00936 16.9912L18.4653 3.53521C18.9922 3.00831 19.6927 2.71817 20.4378 2.71817C21.1829 2.71817 21.8835 3.00836 22.4104 3.53521C22.9373 4.06206 23.2274 4.76265 23.2274 5.50778C23.2274 6.25292 22.9373 6.95345 22.4104 7.4803Z" fill="black"/>
<path d="M9.4633 14.1476C9.38263 14.3456 9.47765 14.5715 9.67565 14.6522C10.3321 14.9198 10.9796 15.2286 11.6004 15.5699C11.6595 15.6024 11.7235 15.6179 11.7866 15.6179C11.9232 15.6179 12.0556 15.5454 12.1261 15.4172C12.2292 15.2299 12.1608 14.9945 11.9735 14.8915C11.3267 14.5358 10.6519 14.214 9.96796 13.9353C9.77006 13.8545 9.54403 13.9496 9.4633 14.1476Z" fill="black"/>
</svg>
