<svg width="24" height="24" viewBox="0 0 24 24" fill="none" xmlns="http://www.w3.org/2000/svg">
<g clip-path="url(#clip0_277_109)">
<path d="M12 17.5768C12.2138 17.5768 12.3871 17.4036 12.3871 17.1897V5.96254C12.3871 5.7487 12.2138 5.57544 12 5.57544C11.7862 5.57544 11.6129 5.7487 11.6129 5.96254V17.1897C11.6129 17.4035 11.7862 17.5768 12 17.5768Z" fill="black"/>
<path d="M13.5174 18.8268C17.8257 13.483 20.0102 7.79603 20.0102 1.92129C20.0102 1.78209 19.9354 1.65357 19.8144 1.58477C19.6934 1.51597 19.5448 1.51737 19.4252 1.58859C17.0374 3.00903 13.8492 2.37105 12.318 0.166297C12.3166 0.164335 12.315 0.162632 12.3136 0.160723C12.3069 0.151535 12.3 0.142658 12.2926 0.13409C12.2894 0.130426 12.2861 0.126916 12.2828 0.123355C12.2761 0.116181 12.2692 0.109316 12.262 0.102658C12.2585 0.0994581 12.2551 0.0962065 12.2515 0.0931613C12.2425 0.0854194 12.2331 0.0781419 12.2234 0.0712774C12.2216 0.0699871 12.22 0.0685419 12.2182 0.0673032C12.2062 0.0591484 12.1938 0.0517161 12.1809 0.0449032C12.1787 0.0437161 12.1763 0.0427355 12.174 0.0415484C12.1635 0.0362323 12.1528 0.0313806 12.1417 0.0270452C12.138 0.0256 12.1343 0.0243097 12.1306 0.0229677C12.1206 0.0194065 12.1104 0.0162065 12.1001 0.013471C12.0959 0.0123871 12.0919 0.0112516 12.0877 0.0103226C12.0772 0.00789677 12.0666 0.0059871 12.0557 0.00443871C12.0519 0.00387097 12.048 0.00309677 12.0441 0.00268387C12.0297 0.00103226 12.015 0 12 0C11.9851 0 11.9704 0.00103226 11.9559 0.00268387C11.952 0.00314839 11.9482 0.00387097 11.9443 0.00443871C11.9335 0.0059871 11.9228 0.00789677 11.9122 0.0103742C11.9082 0.0113548 11.9041 0.0124387 11.9001 0.0135226C11.8896 0.0163097 11.8794 0.0195097 11.8693 0.0231742C11.8657 0.0244645 11.8621 0.0257032 11.8586 0.0270968C11.8473 0.0315355 11.8363 0.0364903 11.8255 0.0419613C11.8235 0.0429936 11.8214 0.043871 11.8193 0.0449548C11.8063 0.0518194 11.7938 0.0593032 11.7818 0.0675097C11.7803 0.0685419 11.7789 0.069729 11.7774 0.0708129C11.7673 0.0778839 11.7577 0.0854194 11.7483 0.0934194C11.7449 0.0963613 11.7416 0.0994581 11.7383 0.102555C11.731 0.109316 11.7239 0.116284 11.7171 0.123561C11.7138 0.127019 11.7106 0.130477 11.7075 0.13409C11.7001 0.142658 11.6931 0.151587 11.6864 0.160826C11.685 0.162735 11.6834 0.164439 11.682 0.166348C10.1509 2.37105 6.96267 3.00914 4.57485 1.5887C4.45521 1.51747 4.30656 1.51608 4.18558 1.58488C4.0646 1.65368 3.98987 1.78214 3.98987 1.92139C3.98987 7.79603 6.17428 13.483 10.4827 18.8269L9.35586 22.8849C9.29867 23.0909 9.41929 23.3043 9.62527 23.3614C9.81495 23.4142 10.0106 23.3158 10.0851 23.139C10.4304 23.273 10.96 23.4322 11.6129 23.4798V23.613C11.6129 23.8268 11.7862 24.0001 12 24.0001C12.2138 24.0001 12.3871 23.8268 12.3871 23.613V23.4798C13.0403 23.4322 13.5702 23.2729 13.9154 23.1388C13.9763 23.2832 14.1175 23.3756 14.2709 23.3756C14.3052 23.3756 14.3401 23.371 14.3747 23.3614C14.5807 23.3043 14.7014 23.0909 14.6441 22.8849L13.5174 18.8268ZM4.77315 2.56423C5.59384 2.93657 6.47415 3.11592 7.34734 3.11587C8.92669 3.11572 10.4815 2.52841 11.6129 1.43541V4.41419C11.6129 4.62803 11.7863 4.80129 12 4.80129C12.2138 4.80129 12.3871 4.62803 12.3871 4.41419V1.43463C14.144 3.13223 16.9218 3.61006 19.2269 2.56413C19.072 8.06281 16.9261 13.3963 12.8428 18.4293C12.7204 18.4851 12.4082 18.6061 12 18.6061C11.5918 18.6061 11.2797 18.4851 11.1573 18.4293C7.074 13.3963 4.92809 8.06281 4.77315 2.56423ZM10.297 22.3893L11.1668 19.2567C11.294 19.295 11.4441 19.3307 11.6129 19.3538V22.7029C11.0312 22.6527 10.5686 22.5003 10.297 22.3893ZM12.3871 19.3538C12.556 19.3307 12.7061 19.295 12.8332 19.2567L13.7031 22.3893C13.4314 22.5003 12.9688 22.6527 12.3871 22.7029V19.3538Z" fill="black"/>
</g>
<defs>
<clipPath id="clip0_277_109">
<rect width="24" height="24" fill="white"/>
</clipPath>
</defs>
</svg>
