<svg width="24" height="24" viewBox="0 0 24 24" fill="none" xmlns="http://www.w3.org/2000/svg">
<g clip-path="url(#clip0_277_42)">
<path d="M23.5605 6.87871C23.7743 6.87871 23.9476 6.70544 23.9476 6.49161C23.9476 6.27778 23.7743 6.10451 23.5605 6.10451H22.4591V4.46647H23.6129C23.8267 4.46647 24 4.29321 24 4.07938C24 3.86554 23.8267 3.69228 23.6129 3.69228H22.4278C22.2758 2.74823 21.5761 1.97321 20.6223 1.74198C20.4144 1.69171 20.2053 1.8193 20.1549 2.02699C20.1045 2.23473 20.2322 2.44402 20.4399 2.4944C21.1729 2.67205 21.6849 3.32382 21.6849 4.07938V22.9829C21.6849 23.1967 21.8582 23.37 22.072 23.37C22.2857 23.37 22.4591 23.1967 22.4591 22.9829V21.3521H23.2461C23.4598 21.3521 23.6332 21.1788 23.6332 20.965C23.6332 20.7512 23.4598 20.5779 23.2461 20.5779H22.4591V18.9399H23.2984C23.5122 18.9399 23.6855 18.7666 23.6855 18.5528C23.6855 18.3389 23.5122 18.1657 23.2984 18.1657H22.4591V16.5276H23.3508C23.5646 16.5276 23.7379 16.3544 23.7379 16.1405C23.7379 15.9267 23.5646 15.7534 23.3508 15.7534H22.4591V14.1155H23.4033C23.617 14.1155 23.7904 13.9422 23.7904 13.7284C23.7904 13.5145 23.617 13.3413 23.4033 13.3413H22.4591V11.7032H23.4557C23.6695 11.7032 23.8428 11.53 23.8428 11.3161C23.8428 11.1023 23.6695 10.929 23.4557 10.929H22.4591V9.29099H23.5081C23.7219 9.29099 23.8952 9.11772 23.8952 8.90389C23.8952 8.69006 23.7219 8.5168 23.5081 8.5168H22.4591V6.87881H23.5605V6.87871Z" fill="black"/>
<path d="M3.84511 2.02699C3.79474 1.81925 3.58565 1.69172 3.3777 1.74199C2.4239 1.97321 1.72413 2.74823 1.57218 3.69228H0.387097C0.173316 3.69228 0 3.86555 0 4.07938C0 4.29321 0.173316 4.46648 0.387097 4.46648H1.54095V6.10452H0.439535C0.225755 6.10452 0.0524387 6.27778 0.0524387 6.49161C0.0524387 6.70544 0.225755 6.87871 0.439535 6.87871H1.54095V8.5167H0.491923C0.278142 8.5167 0.104826 8.68996 0.104826 8.90379C0.104826 9.11763 0.278142 9.29089 0.491923 9.29089H1.54095V10.9289H0.54431C0.330529 10.9289 0.157213 11.1022 0.157213 11.316C0.157213 11.5299 0.330529 11.7031 0.54431 11.7031H1.54095V13.3412H0.596748C0.382968 13.3412 0.209652 13.5144 0.209652 13.7283C0.209652 13.9421 0.382968 14.1154 0.596748 14.1154H1.54095V15.7533H0.649187C0.435406 15.7533 0.26209 15.9266 0.26209 16.1404C0.26209 16.3543 0.435406 16.5275 0.649187 16.5275H1.54095V18.1656H0.701574C0.487794 18.1656 0.314477 18.3388 0.314477 18.5527C0.314477 18.7665 0.487794 18.9398 0.701574 18.9398H1.54095V20.5778H0.753961C0.540181 20.5778 0.366865 20.7511 0.366865 20.9649C0.366865 21.1787 0.540181 21.352 0.753961 21.352H1.54095V22.9828C1.54095 23.1966 1.71427 23.3699 1.92805 23.3699C2.14183 23.3699 2.31515 23.1966 2.31515 22.9828V4.07938C2.31515 3.32382 2.8271 2.67205 3.5601 2.4944C3.76785 2.44402 3.89548 2.23473 3.84511 2.02699Z" fill="black"/>
<path d="M10.5578 6.8654C9.86618 7.33089 9.41023 8.12083 9.41023 9.01544C9.41023 10.4435 10.572 11.6053 12.0001 11.6053C13.4282 11.6053 14.59 10.4435 14.59 9.01544C14.59 8.12088 14.134 7.33089 13.4424 6.8654C14.5326 6.33032 15.285 5.20898 15.285 3.91489C15.285 2.10359 13.8114 0.62999 12.0001 0.62999C10.1888 0.62999 8.71521 2.10359 8.71521 3.91489C8.71516 5.20898 9.46767 6.33032 10.5578 6.8654ZM13.8158 9.01538C13.8158 10.0165 13.0012 10.8311 12.0001 10.8311C10.9989 10.8311 10.1844 10.0166 10.1844 9.01538C10.1844 8.0142 10.9989 7.19969 12.0001 7.19969C13.0012 7.19969 13.8158 8.01425 13.8158 9.01538ZM12.0001 1.40418C13.3845 1.40418 14.5108 2.53048 14.5108 3.91489C14.5108 5.29931 13.3845 6.4256 12.0001 6.4256C10.6156 6.4256 9.48935 5.29931 9.48935 3.91489C9.48935 2.53048 10.6156 1.40418 12.0001 1.40418Z" fill="black"/>
<path d="M20.5236 12.1351H3.47645C3.26267 12.1351 3.08936 12.3083 3.08936 12.5222C3.08936 12.736 3.26267 12.9093 3.47645 12.9093H14.3394L15.2454 22.5958H5.02763C4.69658 22.5958 4.42727 22.3265 4.42727 21.9955C4.42727 21.7217 4.61364 21.4823 4.88053 21.4131C5.93694 21.1394 11.3085 19.7375 11.3626 19.7235C11.4635 19.6971 11.5495 19.6312 11.6012 19.5406C11.6528 19.4501 11.6657 19.3425 11.637 19.2423L10.124 13.9639C10.065 13.7583 9.8508 13.6397 9.64523 13.6984C9.4397 13.7573 9.32084 13.9717 9.37978 14.1771L10.7835 19.0744C10.1552 19.2383 8.8507 19.5787 7.59294 19.9066L5.39336 17.707C5.27996 17.5937 5.21751 17.4429 5.21751 17.2825C5.21751 17.1222 5.27996 16.9714 5.39336 16.858C5.5869 16.6644 5.88796 16.6268 6.12564 16.7667C6.71201 17.1117 9.1292 18.5378 9.1292 18.5378L9.52259 17.8709C9.52259 17.8709 7.10479 16.4445 6.51826 16.0994C5.97663 15.7806 5.28899 15.8675 4.84595 16.3105C4.58634 16.5701 4.44332 16.9153 4.44332 17.2824C4.44332 17.6496 4.58634 17.9948 4.84595 18.2545L6.7245 20.133C5.8124 20.3707 5.02597 20.5755 4.68636 20.6635C4.078 20.8212 3.65307 21.3688 3.65307 21.9953C3.65307 22.7532 4.26969 23.3699 5.02763 23.3699H15.6689C15.6693 23.3699 15.6696 23.3699 15.67 23.3699C15.6704 23.3699 15.6707 23.3699 15.6711 23.3699H17.1334C17.3472 23.3699 17.5205 23.1966 17.5205 22.9828C17.5205 22.7689 17.3472 22.5957 17.1334 22.5957H16.023L15.117 12.9091H20.5236C20.7374 12.9091 20.9107 12.7358 20.9107 12.522C20.9107 12.3082 20.7374 12.1351 20.5236 12.1351Z" fill="black"/>
</g>
<defs>
<clipPath id="clip0_277_42">
<rect width="24" height="24" fill="white"/>
</clipPath>
</defs>
</svg>
