<svg width="24" height="24" viewBox="0 0 24 24" fill="none" xmlns="http://www.w3.org/2000/svg">
<g clip-path="url(#clip0_277_94)">
<path d="M11.9999 8.30585C11.7861 8.30585 11.6128 8.47917 11.6128 8.69295V8.96454H11.5974C11.3836 8.96454 11.2103 9.13786 11.2103 9.35164C11.2103 9.56542 11.3836 9.73873 11.5974 9.73873H12.4024C12.6162 9.73873 12.7895 9.56542 12.7895 9.35164C12.7895 9.13786 12.6162 8.96454 12.4024 8.96454H12.387V8.69295C12.387 8.47917 12.2137 8.30585 11.9999 8.30585Z" fill="black"/>
<path d="M9.02118 6.09702C9.07532 6.25259 9.22206 6.35684 9.38675 6.35684H11.6128V7.27359H11.5974C11.3837 7.27359 11.2103 7.44691 11.2103 7.66069C11.2103 7.87447 11.3837 8.04779 11.5974 8.04779H12.4024C12.6162 8.04779 12.7895 7.87447 12.7895 7.66069C12.7895 7.44691 12.6162 7.27359 12.4024 7.27359H12.387V6.35684H14.6131C14.7778 6.35684 14.9245 6.25259 14.9787 6.09702L15.5435 4.47468C15.5847 4.35633 15.5661 4.22528 15.4934 4.12314C15.4209 4.021 15.3032 3.9603 15.1779 3.9603H12.387V3.14048C13.1249 2.96526 13.6756 2.3011 13.6756 1.51039V0.774186H13.8047C14.0185 0.774186 14.1918 0.60087 14.1918 0.387089C14.1918 0.173308 14.0185 -7.62939e-06 13.8047 -7.62939e-06H10.1952C9.98139 -7.62939e-06 9.80807 0.173308 9.80807 0.387089C9.80807 0.60087 9.98139 0.774186 10.1952 0.774186H10.3242V1.51039C10.3242 2.30115 10.8749 2.96526 11.6128 3.14048V3.9603H8.8219C8.69659 3.9603 8.57896 4.021 8.50639 4.12314C8.43377 4.22528 8.41514 4.35633 8.45633 4.47468L9.02118 6.09702ZM11.0984 1.51039V0.774186H12.9014V1.51039C12.9014 2.00748 12.497 2.41191 11.9999 2.41191C11.5028 2.41191 11.0984 2.00748 11.0984 1.51039ZM14.6333 4.7345L14.338 5.58265H9.66185L9.36657 4.7345H14.6333Z" fill="black"/>
<path d="M21.3483 8.91515H21.0992V7.66069C21.0992 7.44691 20.9259 7.2736 20.7121 7.2736C20.4983 7.2736 20.325 7.44691 20.325 7.66069V8.91515H20.0758C19.862 8.91515 19.6887 9.08846 19.6887 9.30224V15.1043C19.6887 15.3181 19.862 15.4914 20.0758 15.4914H20.325V21.3323C20.325 21.7355 19.997 22.0635 19.5938 22.0635C19.1906 22.0635 18.8626 21.7355 18.8626 21.3323V10.2435C18.8626 9.17992 17.9973 8.31458 16.9337 8.31458C16.5855 8.31458 16.2727 8.39319 15.9993 8.54802C15.8522 8.46704 15.6637 8.48857 15.539 8.61326C15.4333 8.71897 15.4017 8.87055 15.4439 9.00387C14.9124 9.5201 13.8468 10.5978 13.36 11.0915C13.0759 10.8887 12.7452 10.7477 12.387 10.6879V10.3838C12.387 10.1701 12.2138 9.99675 11.9999 9.99675C11.7862 9.99675 11.6128 10.1701 11.6128 10.3838V10.6879C11.2547 10.7477 10.924 10.8887 10.6399 11.0915C10.1531 10.5979 9.08753 9.5201 8.55597 9.00387C8.59813 8.87055 8.5666 8.71897 8.46084 8.61326C8.33615 8.48857 8.14771 8.46704 8.00061 8.54802C7.72722 8.39313 7.41439 8.31458 7.06616 8.31458C6.00257 8.31458 5.13728 9.17987 5.13728 10.2435V21.3323C5.13728 21.7355 4.80928 22.0635 4.40608 22.0635C4.00288 22.0635 3.67488 21.7355 3.67488 21.3323V15.4914H3.92407C4.13785 15.4914 4.31117 15.3181 4.31117 15.1043V9.30224C4.31117 9.08846 4.13785 8.91515 3.92407 8.91515H3.67488V7.66069C3.67488 7.44691 3.50157 7.2736 3.28778 7.2736C3.074 7.2736 2.90069 7.44691 2.90069 7.66069V8.91515H2.6515C2.43772 8.91515 2.2644 9.08846 2.2644 9.30224V15.1043C2.2644 15.3181 2.43772 15.4914 2.6515 15.4914H2.90069V21.3323C2.90069 22.1624 3.57599 22.8377 4.40608 22.8377C5.23617 22.8377 5.91148 22.1624 5.91148 21.3323V10.2435C5.91148 9.60681 6.42946 9.08877 7.06616 9.08877C7.22626 9.08877 7.36603 9.11308 7.49202 9.1617C7.48206 9.27205 7.51922 9.38591 7.60376 9.4704C7.67932 9.54596 7.77842 9.58379 7.87746 9.58379C7.92443 9.58379 7.97129 9.57502 8.01573 9.55804C8.49439 10.0231 9.49444 11.0325 10.0919 11.6383C9.81589 12.0231 9.65274 12.4941 9.65274 13.0028C9.65274 13.6074 9.88262 14.1593 10.2594 14.5758H10.2302C10.0165 14.5758 9.84314 14.7492 9.84314 14.9629C9.84314 15.1767 10.0165 15.35 10.2302 15.35H10.3593V17.7016C9.27199 18.2978 8.58224 19.4483 8.58224 20.6995V23.2258H8.4532C8.23942 23.2258 8.06611 23.3991 8.06611 23.6129C8.06611 23.8267 8.23942 24 8.4532 24H8.96933H15.0307H15.5468C15.7606 24 15.9339 23.8267 15.9339 23.6129C15.9339 23.3991 15.7606 23.2258 15.5468 23.2258H15.4177V20.6995C15.4177 19.4483 14.728 18.2977 13.6407 17.7016V15.35H13.7697C13.9835 15.35 14.1568 15.1767 14.1568 14.9629C14.1568 14.7492 13.9835 14.5758 13.7697 14.5758H13.7405C14.1173 14.1593 14.3472 13.6074 14.3472 13.0028C14.3472 12.4941 14.184 12.0231 13.908 11.6383C14.5054 11.0325 15.5055 10.0231 15.9841 9.55804C16.0285 9.57502 16.0754 9.58379 16.1224 9.58379C16.2214 9.58379 16.3205 9.54601 16.3961 9.4704C16.4806 9.38591 16.5178 9.2721 16.5078 9.1617C16.6338 9.11308 16.7736 9.08877 16.9337 9.08877C17.5704 9.08877 18.0884 9.60676 18.0884 10.2435V21.3323C18.0884 22.1624 18.7637 22.8377 19.5937 22.8377C20.4238 22.8377 21.0991 22.1624 21.0991 21.3323V15.4914H21.3483C21.5621 15.4914 21.7354 15.3181 21.7354 15.1043V9.30224C21.7354 9.08846 21.5622 8.91515 21.3483 8.91515ZM3.53697 9.68934V14.7172H3.03865V9.68934H3.53697ZM11.9999 14.5758C11.1325 14.5758 10.4268 13.8702 10.4268 13.0028C10.4268 12.1354 11.1325 11.4297 11.9999 11.4297C12.8673 11.4297 13.5731 12.1353 13.5731 13.0028C13.5731 13.8701 12.8673 14.5758 11.9999 14.5758ZM13.0933 18.2926C14.035 18.7213 14.6436 19.666 14.6436 20.6994V23.2258H9.35638V20.6995C9.35638 19.693 9.93372 18.7708 10.8338 18.3274H11.7053C11.9191 18.3274 12.0924 18.1541 12.0924 17.9403C12.0924 17.7266 11.9191 17.5532 11.7053 17.5532H11.1335V15.35H12.8666V17.9403C12.8665 18.0921 12.9551 18.2298 13.0933 18.2926ZM20.4629 14.7172V9.68934H20.9612V14.7172H20.4629Z" fill="black"/>
</g>
<defs>
<clipPath id="clip0_277_94">
<rect width="24" height="24" fill="white"/>
</clipPath>
</defs>
</svg>
