<svg width="24" height="24" viewBox="0 0 24 24" fill="none" xmlns="http://www.w3.org/2000/svg">
<g clip-path="url(#clip0_277_32)">
<path d="M20.1693 15.5767C19.9957 15.4522 19.7537 15.4919 19.6292 15.6657C19.5046 15.8394 19.5444 16.0813 19.7182 16.2058C20.1012 16.4804 20.4212 16.8243 20.6661 17.2134C19.9265 17.4567 19.3909 18.1536 19.3909 18.9736V23.6129C19.3909 23.8267 19.5641 24 19.778 24C19.9918 24 20.1651 23.8267 20.1651 23.6129V18.9736C20.1651 18.4592 20.5272 18.0284 21.0098 17.9211C21.1464 18.3032 21.2193 18.7096 21.2193 19.1242C21.2193 19.338 21.3925 19.5113 21.6064 19.5113C21.8202 19.5113 21.9934 19.338 21.9934 19.1242C21.9934 17.7219 21.3115 16.3957 20.1693 15.5767Z" fill="black"/>
<path d="M15.2406 16.7037C16.4749 14.9791 17.3462 11.9672 17.4163 9.2113C18.1996 9.08279 18.8537 8.56599 19.1748 7.86596C19.3511 8.17321 19.5106 8.49321 19.651 8.82539C19.7343 9.02235 19.9617 9.11437 20.1583 9.03117C20.3553 8.94792 20.4474 8.72077 20.3641 8.52387C18.866 4.9808 15.4136 2.69068 11.5674 2.68795C11.5672 2.68795 11.5669 2.68789 11.5667 2.68789C11.5662 2.68789 11.5657 2.68789 11.5652 2.68789C11.5637 2.68789 11.5621 2.68784 11.5606 2.68784C6.29239 2.68784 2.00635 6.97388 2.00635 12.2421V23.6129C2.00635 23.8267 2.17966 24 2.39344 24H11.5606C11.7743 24 11.9477 23.8267 11.9477 23.6129V16.9644H14.4664L14.4664 23.6129C14.4664 23.8267 14.6397 24 14.8535 24H17.4232C17.637 24 17.8103 23.8267 17.8103 23.6129V15.2005C17.8103 14.9867 17.637 14.8134 17.4232 14.8134C17.2093 14.8134 17.0361 14.9867 17.0361 15.2005V20.129H15.2406V16.7037ZM8.07763 4.18328C7.25001 5.04996 6.74111 6.22343 6.74111 7.51355C6.74111 10.042 8.6959 12.1223 11.1735 12.323V20.129H2.78059V12.2421C2.78059 8.63768 4.96413 5.53409 8.07763 4.18328ZM2.78059 23.2258V22.4516H3.94188C4.15566 22.4516 4.32898 22.2783 4.32898 22.0645C4.32898 21.8507 4.15566 21.6774 3.94188 21.6774H2.78059V20.9032H11.1735V21.6774H5.49027C5.27649 21.6774 5.10317 21.8507 5.10317 22.0645C5.10317 22.2783 5.27649 22.4516 5.49027 22.4516H11.1735V23.2258H2.78059ZM11.9477 12.3391H13.4209C13.6347 12.3391 13.808 12.1658 13.808 11.9521C13.808 11.7383 13.6347 11.565 13.4209 11.565H11.5667C9.33275 11.565 7.5153 9.74751 7.5153 7.51355C7.5153 5.27989 9.33228 3.46266 11.5658 3.46214C14.1658 3.46364 16.5701 4.60268 18.2079 6.50075H16.8177C15.8697 6.50075 15.0983 7.27205 15.0983 8.22013C15.0983 8.43391 15.2716 8.60722 15.4854 8.60722C15.6993 8.60722 15.8725 8.43391 15.8725 8.22013C15.8725 7.69894 16.2965 7.27494 16.8177 7.27494H18.566C18.3929 7.95979 17.7717 8.46818 17.0338 8.46818C16.82 8.46818 16.6467 8.6415 16.6467 8.85528C16.6467 11.5255 15.8337 14.502 14.6555 16.1902H11.9477V12.3391ZM15.2406 23.2258V22.4516H17.0361V23.2258H15.2406ZM17.0361 20.9032V21.6774H15.2406V20.9032H17.0361Z" fill="black"/>
<path d="M11.5606 1.9137C11.7743 1.9137 11.9477 1.74038 11.9477 1.5266V0.387089C11.9477 0.173309 11.7743 -7.62939e-06 11.5606 -7.62939e-06C11.3468 -7.62939e-06 11.1735 0.173309 11.1735 0.387089V1.5266C11.1735 1.74038 11.3467 1.9137 11.5606 1.9137Z" fill="black"/>
<path d="M7.86906 2.20098C7.92733 2.35638 8.07484 2.45228 8.23154 2.45228C8.2767 2.45228 8.32264 2.44433 8.36738 2.42756C8.56754 2.35251 8.66901 2.12939 8.59396 1.92924L8.20692 0.896978C8.13187 0.696771 7.90865 0.595352 7.7086 0.670397C7.50839 0.745442 7.40697 0.968565 7.48202 1.16872L7.86906 2.20098Z" fill="black"/>
<path d="M14.7538 2.42751C14.7985 2.44428 14.8444 2.45223 14.8896 2.45223C15.0463 2.45223 15.1939 2.35633 15.2521 2.20093L15.6391 1.16867C15.7142 0.968514 15.6128 0.74534 15.4125 0.670295C15.2124 0.59525 14.9893 0.696669 14.9142 0.896824L14.5272 1.92908C14.4521 2.12934 14.5536 2.35246 14.7538 2.42751Z" fill="black"/>
<path d="M14.1116 6.51834C13.7274 5.74849 12.6695 4.9522 11.564 4.9522C10.4469 4.9522 9.53796 5.73233 9.53796 6.6912C9.53796 7.65006 10.4469 8.43019 11.564 8.43019C12.6695 8.43019 13.7274 7.63391 14.1116 6.86405C14.1659 6.75525 14.1659 6.6272 14.1116 6.51834ZM11.564 7.65605C10.8738 7.65605 10.3122 7.22322 10.3122 6.69125C10.3122 6.15927 10.8738 5.72645 11.564 5.72645C12.242 5.72645 12.9752 6.20531 13.3151 6.69125C12.9752 7.17718 12.242 7.65605 11.564 7.65605Z" fill="black"/>
</g>
<defs>
<clipPath id="clip0_277_32">
<rect width="24" height="24" fill="white"/>
</clipPath>
</defs>
</svg>
