<svg width="24" height="24" viewBox="0 0 24 24" fill="none" xmlns="http://www.w3.org/2000/svg">
<path d="M13.2559 17.3725H12.8742C12.9223 17.2363 12.8922 17.0788 12.7833 16.9698C12.6321 16.8186 12.387 16.8186 12.2359 16.9698L11.9935 17.2122L11.7511 16.9698C11.5999 16.8186 11.3548 16.8186 11.2037 16.9698C11.0947 17.0787 11.0647 17.2363 11.1128 17.3725H10.7311C10.5173 17.3725 10.344 17.5458 10.344 17.7596C10.344 17.9735 10.5173 18.1467 10.7311 18.1467H13.256C13.4698 18.1467 13.6431 17.9735 13.6431 17.7596C13.6431 17.5458 13.4697 17.3725 13.2559 17.3725Z" fill="black"/>
<path d="M21.7425 7.78054C21.7425 7.56671 21.5692 7.39345 21.3554 7.39345H21.1195C20.8908 6.76604 20.598 6.16212 20.2447 5.59298C20.3591 5.52573 20.4361 5.4017 20.4361 5.25941C20.4361 5.04557 20.2628 4.87231 20.049 4.87231H19.7506C19.6851 4.7855 19.6185 4.69941 19.55 4.61471C18.2379 2.99319 16.424 1.82828 14.418 1.31185C14.3458 0.759845 14.072 0.380748 13.5997 0.184103C13.1574 0 12.5933 0 11.999 0C11.4054 0 10.8418 0 10.3995 0.184413C9.92787 0.38111 9.65437 0.759897 9.58216 1.31128C7.57277 1.82545 5.75563 2.98926 4.44095 4.61104C4.37132 4.69693 4.30371 4.78426 4.23723 4.87236H3.93783C3.72399 4.87236 3.55073 5.04563 3.55073 5.25946C3.55073 5.40196 3.62789 5.52609 3.74252 5.59329C3.38913 6.16227 3.09628 6.76609 2.86753 7.39345H2.64467C2.43083 7.39345 2.25757 7.56671 2.25757 7.78054C2.25757 7.98653 2.41855 8.15443 2.62154 8.16645C2.39522 8.9952 2.27728 9.85528 2.27728 10.723V21.5464C2.27728 21.547 2.27718 21.5477 2.27718 21.5484C2.27718 21.5491 2.27728 21.5497 2.27728 21.5504V23.6129C2.27728 23.8267 2.45055 24 2.66438 24H6.89339C7.10722 24 7.28048 23.8267 7.28048 23.6129C7.28048 23.3991 7.10722 23.2258 6.89339 23.2258H6.76436V21.5494C6.76436 21.549 6.76441 21.5487 6.76441 21.5484C6.76441 21.5481 6.76436 21.5477 6.76436 21.5474V17.6555C7.07806 18.7825 7.70567 19.7548 8.5914 20.4795C9.5561 21.2689 10.7325 21.6861 11.9934 21.6861C13.2543 21.6861 14.4307 21.2689 15.3954 20.4795C16.2813 19.7547 16.9089 18.7823 17.2225 17.6554V23.2258H17.0934C16.8796 23.2258 16.7063 23.3991 16.7063 23.6129C16.7063 23.8267 16.8796 24 17.0934 24H21.3224C21.5363 24 21.7095 23.8267 21.7095 23.6129V10.7231C21.7095 9.85564 21.5917 8.99577 21.3655 8.16712C21.5746 8.16165 21.7425 7.99092 21.7425 7.78054ZM14.2649 2.072C16.0372 2.53703 17.5814 3.53739 18.7364 4.87236H14.7385C14.5247 4.87236 14.3514 5.04563 14.3514 5.25946C14.3514 5.47329 14.5247 5.64655 14.7385 5.64655H19.3362C19.7131 6.19076 20.0315 6.77646 20.2822 7.3935H13.467L13.6846 3.28573L14.2649 2.072ZM11.9961 0.774194H12.0019C12.5166 0.774194 13.0028 0.774194 13.3021 0.898839C13.479 0.97249 13.6435 1.1025 13.6621 1.53786L12.9529 3.02126C12.931 3.0672 12.9183 3.11695 12.9156 3.16779L12.6642 7.91267H11.3358L11.106 3.57538H11.9934C12.2072 3.57538 12.3805 3.40212 12.3805 3.18828C12.3805 2.97445 12.2072 2.80119 11.9934 2.80119H10.9419L10.3377 1.53745C10.3633 0.851303 10.7228 0.774194 11.9961 0.774194ZM4.65132 5.6465H9.2617C9.47553 5.6465 9.64879 5.47324 9.64879 5.25941C9.64879 5.04557 9.47553 4.87231 9.2617 4.87231H5.25163C6.40916 3.53559 7.95754 2.53481 9.73488 2.07138L10.3154 3.28568L10.533 7.39345H3.70485C3.95568 6.77636 4.27419 6.19066 4.65132 5.6465ZM5.99016 23.2258H3.05148V21.9355H5.99016V23.2258ZM17.2225 11.5149L13.024 11.9569C12.827 11.9777 12.6774 12.1438 12.6774 12.3419V15.4857C12.6774 15.6995 12.8507 15.8728 13.0645 15.8728C13.2783 15.8728 13.4516 15.6995 13.4516 15.4857V12.6904L17.2225 12.2935V12.7533C17.1745 13.0903 17.1249 13.4515 17.0741 13.8214C16.9054 15.0504 16.7143 16.4435 16.535 17.2205C16.0258 19.4284 14.2007 20.9119 11.9935 20.9119C9.78624 20.9119 7.9611 19.4285 7.45189 17.2205C7.27269 16.4436 7.08152 15.0508 6.91295 13.8219C6.86211 13.4518 6.81246 13.0903 6.76441 12.7531V12.2934L10.8819 12.7268C10.8957 12.7283 10.9093 12.729 10.9229 12.729C11.1185 12.729 11.2865 12.5812 11.3074 12.3823C11.3298 12.1698 11.1755 11.9792 10.9629 11.9569L6.76436 11.5149V10.3414C7.71099 10.4313 10.0513 10.633 11.9934 10.633C13.9356 10.633 16.2759 10.4313 17.2225 10.3414V11.5149H17.2225ZM20.9354 23.2258H17.9967V21.9355H20.9354V23.2258ZM20.9354 21.1613H17.9967V11.8633C17.9967 11.8628 17.9967 11.8623 17.9967 11.8618V9.91422C17.9967 9.80444 17.9501 9.69982 17.8685 9.62643C17.7868 9.55293 17.6778 9.51783 17.5686 9.52929C17.5376 9.53254 14.4384 9.85894 11.9934 9.85894C9.54841 9.85894 6.4491 9.53259 6.41808 9.52929C6.30903 9.51778 6.19992 9.55303 6.11827 9.62643C6.03667 9.69982 5.99006 9.80444 5.99006 9.91422V11.8618C5.99006 11.8623 5.99006 11.8628 5.99006 11.8633V21.1613H3.05148V10.7231C3.05148 9.84232 3.18423 8.98333 3.4313 8.16764H10.5741L10.5821 8.32021C10.593 8.52573 10.7628 8.68686 10.9686 8.68686H13.0313C13.2372 8.68686 13.407 8.52578 13.4179 8.32021L13.4259 8.16764H20.5555C20.8025 8.98343 20.9352 9.84243 20.9352 10.7231V21.1613H20.9354Z" fill="black"/>
</svg>
