<svg width="24" height="24" viewBox="0 0 24 24" fill="none" xmlns="http://www.w3.org/2000/svg">
<g clip-path="url(#clip0_277_17)">
<path d="M3.94068 6.02875C4.01759 6.22824 4.24169 6.32759 4.44112 6.25064C4.6406 6.17373 4.73996 5.94963 4.663 5.7502C4.40618 5.08424 4.21139 4.45544 4.08086 3.87169C5.11322 4.48155 6.22615 5.38473 7.34068 6.51995C7.42564 6.99448 7.5267 7.47835 7.64386 7.96893C7.68633 8.14664 7.84499 8.26617 8.02006 8.26617C8.04984 8.26617 8.08009 8.26271 8.11033 8.25549C8.31828 8.20584 8.44659 7.99696 8.39689 7.78901C7.87415 5.60073 7.6804 3.56243 7.83446 1.94617C8.22786 2.39252 8.62006 2.91655 9.00592 3.5118C9.1222 3.6912 9.36195 3.74235 9.5413 3.62607C9.72071 3.50978 9.77186 3.27009 9.65557 3.09069C9.05991 2.17177 8.44468 1.40816 7.82703 0.821166C7.72411 0.723307 7.57588 0.689656 7.44076 0.73363C7.30569 0.777501 7.20546 0.891824 7.1797 1.03149C6.96246 2.20837 6.95539 3.65704 7.14977 5.25363C5.96845 4.15551 4.79818 3.3166 3.72577 2.80408C3.59761 2.74277 3.44618 2.7567 3.33134 2.84021C3.2164 2.92367 3.15648 3.06339 3.17511 3.20419C3.28731 4.05213 3.54491 5.00248 3.94068 6.02875Z" fill="black"/>
<path d="M14.4587 3.62606C14.6381 3.74229 14.8777 3.69125 14.9941 3.51179C15.3799 2.91654 15.7721 2.39251 16.1655 1.94616C16.3196 3.56242 16.1258 5.60072 15.6031 7.789C15.5534 7.99695 15.6817 8.20578 15.8897 8.25548C15.9199 8.2627 15.9501 8.26616 15.9799 8.26616C16.1549 8.26616 16.3137 8.14663 16.3561 7.96892C16.4733 7.47839 16.5743 6.99447 16.6593 6.51994C17.7738 5.38472 18.8868 4.48154 19.9191 3.87169C19.7885 4.45548 19.5938 5.08428 19.337 5.75019C19.26 5.94967 19.3594 6.17372 19.5589 6.25063C19.7583 6.32753 19.9824 6.22818 20.0593 6.02874C20.4551 5.00247 20.7127 4.05212 20.8249 3.20418C20.8436 3.06338 20.7836 2.92366 20.6687 2.8402C20.5538 2.75674 20.4025 2.74286 20.2743 2.80407C19.2019 3.31659 18.0315 4.1555 16.8503 5.25362C17.0446 3.65703 17.0376 2.20836 16.8203 1.03148C16.7945 0.891814 16.6943 0.777492 16.5593 0.733621C16.4243 0.689647 16.2759 0.72335 16.173 0.821156C15.5554 1.40815 14.9401 2.17171 14.3445 3.09068C14.2281 3.27009 14.2793 3.50978 14.4587 3.62606Z" fill="black"/>
<path d="M23.8818 6.61961C24.002 6.50354 24.0342 6.32335 23.9615 6.17285C23.8888 6.02235 23.7279 5.93543 23.5621 5.95742C21.2294 6.26627 18.1174 7.69987 15.2374 9.79236C14.8468 10.0762 14.4639 10.3695 14.0922 10.6691C14.1176 10.1806 14.131 9.68702 14.131 9.19164C14.131 5.63169 13.4616 2.27133 12.3403 0.202684C12.2727 0.0777806 12.1421 0 12 0C11.858 0 11.7273 0.0777807 11.6597 0.202632C10.5384 2.27128 9.86907 5.63164 9.86907 9.19159C9.86907 9.68697 9.88233 10.1806 9.90778 10.6691C9.53617 10.3694 9.1533 10.0761 8.76264 9.79231C5.88264 7.69982 2.77059 6.26622 0.437895 5.95737C0.272217 5.93538 0.111185 6.0223 0.038514 6.1728C-0.034157 6.3233 -0.00200214 6.50348 0.118204 6.61956L8.38731 14.6046C8.40399 14.9668 8.47449 15.3149 8.59046 15.6419C8.46721 15.7067 8.38308 15.8357 8.38308 15.9846C8.38308 16.1984 8.5564 16.3717 8.77018 16.3717H8.94685C9.52368 17.2784 10.4922 17.9124 11.6129 18.0322V23.6129C11.6129 23.8267 11.7862 24 12 24C12.2138 24 12.3871 23.8267 12.3871 23.6129V18.0322C13.5078 17.9124 14.4763 17.2785 15.0532 16.3717H15.2298C15.4436 16.3717 15.6169 16.1984 15.6169 15.9846C15.6169 15.8357 15.5328 15.7067 15.4096 15.6419C15.5255 15.315 15.596 14.9668 15.6127 14.6046L23.8818 6.61961ZM15.6924 10.4187C17.9656 8.76712 20.3721 7.54286 22.3826 6.99107L15.0735 14.0491H13.6965C13.8359 13.3129 13.9429 12.5369 14.0158 11.7382C14.5484 11.2843 15.1115 10.8408 15.6924 10.4187ZM12 1.27561C12.8564 3.25595 13.3568 6.13915 13.3568 9.19164C13.3568 10.8855 13.2021 12.5573 12.9086 14.0491H11.0914C10.7979 12.5573 10.6433 10.8855 10.6433 9.19164C10.6433 6.13915 11.1437 3.25595 12 1.27561ZM8.30762 10.4187C8.88858 10.8408 9.45168 11.2843 9.98427 11.7383C10.0571 12.537 10.1641 13.3129 10.3035 14.0492H8.92657L1.61746 6.99107C3.62788 7.54281 6.03449 8.76712 8.30762 10.4187ZM12 17.279C11.1797 17.279 10.4398 16.9293 9.92042 16.3717H10.2594C10.4732 16.3717 10.6465 16.1984 10.6465 15.9846C10.6465 15.7708 10.4732 15.5975 10.2594 15.5975H9.406C9.29715 15.3554 9.22071 15.0955 9.18349 14.8233H10.774C10.7744 14.8233 10.7748 14.8234 10.7752 14.8234C10.7758 14.8234 10.7765 14.8233 10.7771 14.8233H13.2204C13.2215 14.8233 13.2226 14.8233 13.2237 14.8233H14.8165C14.7793 15.0955 14.7029 15.3554 14.594 15.5975H11.8078C11.594 15.5975 11.4207 15.7708 11.4207 15.9846C11.4207 16.1984 11.594 16.3717 11.8078 16.3717H14.0796C13.5603 16.9293 12.8203 17.279 12 17.279Z" fill="black"/>
</g>
<defs>
<clipPath id="clip0_277_17">
<rect width="24" height="24" fill="white"/>
</clipPath>
</defs>
</svg>
