<svg width="24" height="24" viewBox="0 0 24 24" fill="none" xmlns="http://www.w3.org/2000/svg">
<g clip-path="url(#clip0_277_54)">
<path d="M9.10504 9.88986H3.97194C3.75815 9.88986 3.58484 10.0631 3.58484 10.277C3.58484 10.4908 3.75815 10.6641 3.97194 10.6641H9.1051C9.31888 10.6641 9.49219 10.4908 9.49219 10.277C9.49219 10.0631 9.31883 9.88986 9.10504 9.88986Z" fill="black"/>
<path d="M14.895 10.6641H20.0282C20.242 10.6641 20.4153 10.4908 20.4153 10.277C20.4153 10.0631 20.242 9.88986 20.0282 9.88986H14.895C14.6812 9.88986 14.5079 10.0631 14.5079 10.277C14.5079 10.4908 14.6812 10.6641 14.895 10.6641Z" fill="black"/>
<path d="M23.6129 11.6799H22.2076V6.97115C22.2076 6.75731 22.0343 6.58405 21.8205 6.58405H17.4125L12.0871 0.390966C12.0135 0.305443 11.9064 0.256256 11.7935 0.256256C11.6807 0.256256 11.5736 0.305443 11.5 0.390966L6.17461 6.584H2.17946C1.96568 6.584 1.79236 6.75726 1.79236 6.9711V11.6799H0.387097C0.173316 11.6799 0 11.8532 0 12.067V17.1629C0 17.3768 0.173316 17.55 0.387097 17.55H8.73079L7.42323 23.2702C7.37559 23.4786 7.50591 23.6862 7.71432 23.7338C7.74338 23.7405 7.77239 23.7436 7.80093 23.7436C7.97745 23.7436 8.13693 23.6221 8.17796 23.4427L10.6899 12.454H13.3102L15.8221 23.4427C15.8631 23.6221 16.0226 23.7436 16.1991 23.7436C16.2277 23.7436 16.2567 23.7404 16.2857 23.7338C16.4941 23.6862 16.6245 23.4786 16.5769 23.2702L15.2693 17.55H23.6129C23.8267 17.55 24 17.3768 24 17.1629V12.067C24 11.8532 23.8267 11.6799 23.6129 11.6799ZM11.7935 1.23706L16.3915 6.58405H7.19566L11.7935 1.23706ZM2.56655 7.35819H21.4334V11.6799H13.4897V8.51948C13.4897 8.30565 13.3164 8.13239 13.1026 8.13239H10.8973C10.6836 8.13239 10.5102 8.30565 10.5102 8.51948V11.6799H2.56655V7.35819ZM12.7155 11.6799H11.2844V8.90663H12.7155V11.6799ZM8.90777 16.7759H7.94369V14.615C7.94369 14.4012 7.77037 14.2279 7.55659 14.2279C7.34281 14.2279 7.1695 14.4012 7.1695 14.615V16.7759H6.15128V14.615C6.15128 14.4012 5.97796 14.2279 5.76418 14.2279C5.5504 14.2279 5.37708 14.4012 5.37708 14.615V16.7759H4.35897V14.615C4.35897 14.4012 4.18565 14.2279 3.97187 14.2279C3.75809 14.2279 3.58477 14.4012 3.58477 14.615V16.7759H2.56655V14.615C2.56655 14.4012 2.39324 14.2279 2.17946 14.2279C1.96568 14.2279 1.79236 14.4012 1.79236 14.615V16.7759H0.774194V12.4541H9.89564L8.90777 16.7759ZM23.2258 16.7759H22.2076V14.615C22.2076 14.4012 22.0343 14.2279 21.8205 14.2279C21.6067 14.2279 21.4334 14.4012 21.4334 14.615V16.7759H20.4152V14.615C20.4152 14.4012 20.242 14.2279 20.0281 14.2279C19.8143 14.2279 19.641 14.4012 19.641 14.615V16.7759H18.6228V14.615C18.6228 14.4012 18.4495 14.2279 18.2357 14.2279C18.0219 14.2279 17.8486 14.4012 17.8486 14.615V16.7759H16.8304V14.615C16.8304 14.4012 16.6571 14.2279 16.4433 14.2279C16.2295 14.2279 16.0562 14.4012 16.0562 14.615V16.7759H15.0921L14.1042 12.4541H23.2258V16.7759Z" fill="black"/>
</g>
<defs>
<clipPath id="clip0_277_54">
<rect width="24" height="24" fill="white"/>
</clipPath>
</defs>
</svg>
