<svg width="24" height="24" viewBox="0 0 24 24" fill="none" xmlns="http://www.w3.org/2000/svg">
<g clip-path="url(#clip0_277_40)">
<path d="M16.129 19.6129H14.955L14.4514 4.64077C14.4513 4.63648 14.4506 4.63225 14.4503 4.62802C14.4499 4.6209 14.4494 4.61382 14.4485 4.60681C14.4479 4.60118 14.4469 4.59566 14.446 4.59008C14.4447 4.58229 14.4433 4.57455 14.4415 4.56691C14.4404 4.56211 14.4391 4.55736 14.4378 4.55261C14.4356 4.54446 14.4333 4.53641 14.4305 4.52841C14.429 4.52412 14.4275 4.51984 14.4258 4.5156C14.4227 4.50745 14.4193 4.49945 14.4157 4.49155C14.4147 4.48944 14.414 4.48727 14.413 4.48515L12.3485 0.21847C12.3477 0.217025 12.3468 0.215786 12.3461 0.214341C12.3313 0.184715 12.3128 0.157308 12.2913 0.132638C12.2885 0.129438 12.2856 0.126392 12.2828 0.123296C12.2732 0.112973 12.263 0.103115 12.2524 0.0938762C12.2509 0.0925859 12.2495 0.0911408 12.248 0.089902C12.2357 0.0796311 12.2226 0.0703408 12.2091 0.0616182C12.2062 0.0597085 12.2031 0.0580053 12.2001 0.0561472C12.1882 0.0489214 12.1759 0.042315 12.1632 0.0364311C12.1609 0.0353472 12.1587 0.0341601 12.1564 0.0331279C12.1414 0.0265214 12.1259 0.0207924 12.11 0.0160956C12.1076 0.0154246 12.1052 0.0149085 12.1029 0.0142375C12.0895 0.010573 12.0758 0.00763108 12.0618 0.00541173C12.0578 0.00474076 12.0538 0.00406979 12.0497 0.00355366C12.0334 0.00143753 12.0169 -7.62939e-06 12 -7.62939e-06C11.9831 -7.62939e-06 11.9667 0.00143753 11.9504 0.00350205C11.9463 0.00401818 11.9423 0.00468914 11.9382 0.00536011C11.9243 0.00757947 11.9106 0.0105214 11.8972 0.0141859C11.8948 0.0148569 11.8924 0.0153214 11.8901 0.016044C11.8742 0.0207408 11.8588 0.0264698 11.8438 0.0330762C11.8415 0.0341085 11.8392 0.0353472 11.8369 0.0364311C11.8242 0.0423666 11.8119 0.0489214 11.8 0.0561472C11.797 0.0579537 11.7939 0.0597085 11.791 0.0616182C11.7775 0.0702891 11.7644 0.0796311 11.7521 0.089902C11.7506 0.0911408 11.7492 0.0925859 11.7477 0.0938762C11.737 0.103115 11.7269 0.112973 11.7173 0.123296C11.7144 0.126392 11.7116 0.129438 11.7088 0.132638C11.6872 0.157308 11.6688 0.184715 11.654 0.214341C11.6533 0.215786 11.6524 0.217025 11.6516 0.21847L9.58711 4.48515C9.58608 4.48727 9.58541 4.48944 9.58443 4.49155C9.58076 4.4994 9.57741 4.5074 9.57431 4.51555C9.57266 4.51984 9.57111 4.52407 9.56962 4.52841C9.56688 4.53635 9.56451 4.54441 9.56229 4.55256C9.561 4.55731 9.55971 4.56206 9.55862 4.56686C9.55687 4.5745 9.55547 4.58224 9.55418 4.59003C9.55325 4.59561 9.55233 4.60113 9.5516 4.60675C9.55078 4.61377 9.55026 4.62084 9.5498 4.62797C9.54954 4.63225 9.54887 4.63643 9.54871 4.64072L9.04507 19.6129H7.87098C7.65715 19.6129 7.48389 19.7862 7.48389 20V23.6129C7.48389 23.8267 7.65715 24 7.87098 24H13.5484H16.129C16.3429 24 16.5161 23.8267 16.5161 23.6129V20C16.5161 19.7862 16.3429 19.6129 16.129 19.6129ZM11.6129 4.26668H10.5528L11.6129 2.07581V4.26668ZM12.3871 2.07581L13.4472 4.26668H12.3871V2.07581ZM10.3098 5.04087H11.6129V14.8387C11.6129 15.0525 11.7862 15.2258 12 15.2258C12.2138 15.2258 12.3871 15.0525 12.3871 14.8387V5.04087H13.6902L14.1803 19.6129H13.5484H12.3871V16.3871C12.3871 16.1733 12.2138 16 12 16C11.7862 16 11.6129 16.1733 11.6129 16.3871V19.6129H9.81973L10.3098 5.04087ZM8.25808 20.3871H13.1613V23.2258H8.25808V20.3871ZM15.742 23.2258H13.9355V20.3871H15.742V23.2258Z" fill="black"/>
</g>
<defs>
<clipPath id="clip0_277_40">
<rect width="24" height="24" fill="white"/>
</clipPath>
</defs>
</svg>
