<svg width="24" height="24" viewBox="0 0 24 24" fill="none" xmlns="http://www.w3.org/2000/svg">
<path d="M7.20003 2.31761C7.4134 2.31761 7.58629 2.14471 7.58629 1.93134C7.58629 1.71797 7.4134 1.54507 7.20003 1.54507C6.56897 1.54507 6.00765 1.8493 5.65496 2.31879C5.30233 1.8493 4.74095 1.54507 4.1099 1.54507C3.89653 1.54507 3.72363 1.71797 3.72363 1.93134C3.72363 2.14471 3.89653 2.31761 4.1099 2.31761C4.74883 2.31761 5.2687 2.83747 5.2687 3.47641C5.2687 3.68978 5.44159 3.86267 5.65496 3.86267C5.86834 3.86267 6.04123 3.68978 6.04123 3.47641C6.04123 2.83747 6.56109 2.31761 7.20003 2.31761Z" fill="black"/>
<path d="M21.7551 21.8522L10.3179 4.95152C10.0377 4.53749 9.59768 4.21566 9.08158 4.03967C9.11464 3.38843 9.13138 2.68089 9.13138 1.93133V0.386266C9.13138 0.172893 8.95849 0 8.74511 0H2.56485C2.35148 0 2.17859 0.172893 2.17859 0.386266V1.93133C2.17859 4.89961 2.43744 7.09174 2.9933 8.8303C3.57033 10.635 4.45673 11.8955 5.33176 12.9868C5.49517 13.2907 5.66719 13.5959 5.83385 13.8914C6.80013 15.6042 7.79196 17.3626 8.18415 20.5323C8.18472 20.5582 8.18776 20.5835 8.19322 20.6079C8.2869 21.3893 8.34453 22.2556 8.35653 23.2275H5.65504C5.44166 23.2275 5.26877 23.4004 5.26877 23.6137C5.26877 23.8271 5.44166 24 5.65504 24H8.74516H11.8353C12.0487 24 12.2216 23.8271 12.2216 23.6137C12.2216 22.6192 12.114 21.7233 11.9252 20.9099H12.9718C13.1852 20.9099 13.3581 20.737 13.3581 20.5236V17.1477C13.3581 16.9343 13.1852 16.7614 12.9718 16.7614C12.7584 16.7614 12.5855 16.9343 12.5855 17.1477V20.1373H11.7145C10.8605 17.4194 9.08013 15.6881 7.56896 14.2191C6.96772 13.6347 6.39986 13.0827 5.95612 12.5306C5.95488 12.529 5.95364 12.5275 5.95241 12.5259C5.95215 12.5256 5.95189 12.5253 5.95158 12.5249C3.91869 9.99389 2.95107 7.76065 2.95107 1.93133V0.772532H8.35879V1.93133C8.35879 2.78699 8.33665 3.58579 8.29303 4.30553C8.28144 4.49665 8.41164 4.66743 8.599 4.70688C9.05206 4.80232 9.45548 5.05561 9.67807 5.3845L16.5398 15.524C16.2099 15.5608 15.8768 15.5795 15.544 15.5795C10.6595 15.5795 6.68564 11.6056 6.68564 6.72108C6.68564 6.50771 6.51275 6.33482 6.29938 6.33482C6.086 6.33482 5.91311 6.50771 5.91311 6.72108C5.91311 12.0316 10.2335 16.352 15.544 16.352C16.0397 16.352 16.5362 16.3137 17.0235 16.2386L21.1154 22.2852C21.2349 22.4619 21.4751 22.5082 21.6517 22.3886C21.8284 22.269 21.8747 22.0289 21.7551 21.8522ZM9.1287 23.2275C9.11825 22.3852 9.0737 21.6162 9.00113 20.9099H10.115C10.3283 20.9099 10.5012 20.737 10.5012 20.5236V19.1421C10.7134 19.5896 10.8975 20.0684 11.0457 20.5849C11.0508 20.6165 11.0592 20.6468 11.0714 20.6753C11.2822 21.4381 11.4148 22.2822 11.4432 23.2275H9.1287V23.2275ZM9.7287 17.7972V20.1373H8.9075C8.59931 17.9422 8.00873 16.3935 7.36382 15.0979C8.18384 15.9001 9.02461 16.76 9.7287 17.7972Z" fill="black"/>
</svg>
