<svg width="24" height="24" viewBox="0 0 24 24" fill="none" xmlns="http://www.w3.org/2000/svg">
<g clip-path="url(#clip0_277_107)">
<path d="M22.8342 11.7858C22.8374 11.773 22.8398 11.7601 22.8417 11.7468C22.842 11.7454 22.8422 11.7441 22.8424 11.7427C22.844 11.7298 22.845 11.7167 22.8455 11.7034C22.8455 11.7021 22.8456 11.7009 22.8457 11.6996C22.8457 11.6972 22.846 11.6948 22.846 11.6924C22.846 11.6355 22.8334 11.5815 22.8113 11.5329C22.8104 11.5307 22.8093 11.5286 22.8083 11.5265C22.8033 11.516 22.7979 11.5058 22.792 11.4959C22.7912 11.4944 22.7905 11.4928 22.7896 11.4914L17.0041 1.95479C17.0031 1.95308 17.0018 1.95159 17.0008 1.94988C16.9964 1.94276 16.9916 1.9359 16.9867 1.92908C16.9844 1.92588 16.9822 1.92258 16.9798 1.91943C16.9735 1.91128 16.9669 1.90343 16.96 1.89579C16.9574 1.8929 16.9547 1.89012 16.952 1.88733C16.9456 1.88067 16.939 1.87417 16.9322 1.86797C16.9285 1.86462 16.9245 1.86152 16.9207 1.85837C16.9155 1.85399 16.9102 1.8497 16.9047 1.84557C16.9005 1.84248 16.8963 1.83954 16.892 1.83659C16.8865 1.83283 16.881 1.82916 16.8752 1.8257C16.8709 1.82302 16.8665 1.82044 16.862 1.81796C16.8561 1.81466 16.85 1.81151 16.8439 1.80852C16.8394 1.80635 16.835 1.80413 16.8304 1.80212C16.824 1.79928 16.8174 1.79675 16.8108 1.79422C16.8063 1.79252 16.8019 1.79071 16.7974 1.78916C16.7962 1.78875 16.795 1.78823 16.7938 1.78782C16.7425 1.77099 15.6141 1.40599 13.9026 1.22183C13.8822 0.686503 13.6537 0.323819 13.2218 0.144103C12.8758 0 12.4504 0 12 0C11.5497 0 11.1243 0 10.7784 0.144C10.3465 0.323716 10.118 0.6864 10.0976 1.22173C8.38605 1.40588 7.25764 1.77089 7.20634 1.78772C7.2052 1.78808 7.20412 1.78859 7.20298 1.78895C7.19808 1.79061 7.19323 1.79257 7.18838 1.79443C7.18218 1.7968 7.17604 1.79917 7.17005 1.80181C7.16515 1.80397 7.16035 1.80635 7.15555 1.80872C7.14982 1.81156 7.14409 1.81445 7.13852 1.8176C7.13372 1.82028 7.12902 1.82302 7.12432 1.82591C7.11896 1.82921 7.11374 1.83262 7.10858 1.83613C7.10399 1.83928 7.09945 1.84243 7.09496 1.84573C7.08985 1.84955 7.08494 1.85363 7.08004 1.8577C7.07591 1.86111 7.07173 1.86446 7.0677 1.86808C7.06136 1.87381 7.05532 1.8799 7.04933 1.88604C7.04587 1.8896 7.04247 1.89316 7.03916 1.89683C7.03261 1.9041 7.02631 1.91159 7.02032 1.91933C7.0179 1.92253 7.01563 1.92588 7.01325 1.92914C7.00835 1.9359 7.00365 1.94276 6.99921 1.94983C6.99818 1.95154 6.99694 1.95303 6.99591 1.95474L1.21052 11.4914C1.20959 11.4929 1.20897 11.4945 1.20804 11.496C1.20221 11.5059 1.19684 11.516 1.19188 11.5264C1.19085 11.5286 1.18972 11.5307 1.18874 11.533C1.1667 11.5816 1.15405 11.6355 1.15405 11.6924C1.15405 11.6949 1.15436 11.6973 1.15441 11.6997C1.15441 11.7009 1.15457 11.702 1.15457 11.7032C1.15493 11.7166 1.15596 11.7298 1.15767 11.7428C1.15782 11.7441 1.15808 11.7453 1.15823 11.7466C1.16009 11.7601 1.16267 11.7732 1.16587 11.7861C1.16608 11.787 1.16634 11.7879 1.16654 11.7887C1.1701 11.8027 1.17439 11.8163 1.17945 11.8296C1.17945 11.8297 1.17945 11.8297 1.1795 11.8297C1.20056 11.8851 1.23379 11.9343 1.27612 11.9741C1.27653 11.9745 1.27694 11.9749 1.27736 11.9753C1.28737 11.9846 1.2979 11.9934 1.30889 12.0017C1.30961 12.0022 1.31034 12.0027 1.31106 12.0033C1.34724 12.0301 1.38801 12.0508 1.4323 12.0638C3.46198 12.6916 4.87916 14.6195 4.87916 16.7542V19.6919C4.87916 20.2824 4.9988 20.8456 5.2148 21.3585C5.22187 21.3784 5.23018 21.3976 5.24025 21.4158C5.90657 22.9355 7.42461 24.0001 9.18734 24.0001C9.40112 24.0001 9.57444 23.8268 9.57444 23.613V21.231C9.57444 21.2304 9.57454 21.2297 9.57454 21.229C9.57454 21.2283 9.57444 21.2277 9.57444 21.227V18.8465C9.57444 18.8458 9.57454 18.8451 9.57454 18.8444C9.57454 18.8438 9.57444 18.8431 9.57444 18.8424V16.4624C9.57444 16.4617 9.57454 16.4611 9.57454 16.4604C9.57454 16.4597 9.57444 16.459 9.57444 16.4584V14.0783C9.57444 14.0777 9.57454 14.077 9.57454 14.0763C9.57454 14.0757 9.57444 14.075 9.57444 14.0743V12.616C9.86569 12.8295 10.1852 13.0047 10.5262 13.1349L10.614 19.2808C10.6159 19.4128 10.6849 19.5347 10.797 19.6043C10.85 19.6371 11.3338 19.9253 11.9998 19.9253C12.6658 19.9253 13.1497 19.6371 13.2027 19.6043C13.3148 19.5347 13.3838 19.4128 13.3857 19.2808L13.4735 13.1349C13.8145 13.0047 14.134 12.8295 14.4253 12.616V14.0743C14.4253 14.075 14.4252 14.0757 14.4252 14.0763C14.4252 14.077 14.4253 14.0777 14.4253 14.0783V16.4584C14.4253 16.459 14.4252 16.4597 14.4252 16.4604C14.4252 16.4611 14.4253 16.4617 14.4253 16.4624V18.8424C14.4253 18.8431 14.4252 18.8438 14.4252 18.8444C14.4252 18.8451 14.4253 18.8458 14.4253 18.8465V21.227C14.4253 21.2277 14.4252 21.2283 14.4252 21.229C14.4252 21.2297 14.4253 21.2304 14.4253 21.231V23.6129C14.4253 23.8267 14.5985 24 14.8124 24C16.5751 24 18.093 22.9355 18.7594 21.4159C18.7697 21.3974 18.7782 21.3777 18.7854 21.3574C19.0011 20.8447 19.1206 20.282 19.1206 19.6918V16.7542C19.1206 14.6194 20.5377 12.6915 22.5674 12.0638C22.6117 12.0508 22.6526 12.03 22.6888 12.0032C22.6894 12.0027 22.6901 12.0023 22.6907 12.0018C22.7018 11.9934 22.7124 11.9846 22.7226 11.9751C22.7229 11.9748 22.7232 11.9746 22.7235 11.9743C22.7658 11.9345 22.7991 11.8854 22.8201 11.8301C22.8202 11.83 22.8202 11.8299 22.8203 11.8298C22.8203 11.8297 22.8204 11.8295 22.8204 11.8293C22.8254 11.8162 22.8296 11.8028 22.8331 11.7891C22.8336 11.7879 22.8339 11.7869 22.8342 11.7858ZM18.8783 6.53677H16.607C16.7473 5.36408 16.8679 4.18994 16.9492 3.3568L18.8783 6.53677ZM16.5112 7.31097H19.348L20.3246 8.92077H16.2834C16.3615 8.43025 16.4382 7.87995 16.5112 7.31097ZM16.0605 10.1146C16.0897 9.98761 16.1192 9.84697 16.1485 9.69497H20.7943L21.7712 11.3053H15.5937C15.8035 10.9398 15.9625 10.5394 16.0605 10.1146ZM10.3742 1.97161L10.6627 2.57486L10.8543 3.82632C10.8837 4.01781 11.0486 4.15489 11.2365 4.15489C11.2559 4.15489 11.2757 4.15345 11.2956 4.1504C11.5069 4.11804 11.652 3.92046 11.6196 3.70916L11.4193 2.40098C11.4136 2.36335 11.4023 2.32686 11.3859 2.29254L10.8716 1.21739C10.8908 0.830297 11.0705 0.774194 12 0.774194C12.9296 0.774194 13.1093 0.830297 13.1285 1.21739L12.6142 2.29254C12.5978 2.32686 12.5866 2.36335 12.5808 2.40098L12.3805 3.70916C12.3481 3.92046 12.4932 4.11804 12.7045 4.1504C12.9157 4.18286 13.1134 4.03773 13.1457 3.82637L13.3374 2.57492L13.6259 1.97166C14.8547 2.09048 15.8044 2.31561 16.2586 2.43835C16.2151 2.9073 16.1253 3.84759 16.0089 4.92903H7.99127C7.87488 3.84759 7.78507 2.9073 7.74151 2.43835C8.19581 2.31556 9.14538 2.09048 10.3742 1.97161ZM4.65212 7.31097H7.48897C7.56195 7.87995 7.63865 8.43025 7.71679 8.92077H3.6755L4.65212 7.31097ZM7.05093 3.3568C7.13222 4.18994 7.25279 5.36408 7.39312 6.53677H5.12179L7.05093 3.3568ZM3.2036 12.0795H6.04752C6.2613 12.0795 6.43462 11.9062 6.43462 11.6924C6.43462 11.4786 6.2613 11.3053 6.04752 11.3053H2.22889L3.20582 9.69497H7.8516C7.88097 9.84697 7.91034 9.98761 7.93965 10.1146C8.03761 10.5394 8.19663 10.9398 8.40639 11.3053H7.59591C7.38213 11.3053 7.20881 11.4786 7.20881 11.6924C7.20881 11.9062 7.38213 12.0795 7.59591 12.0795H8.80045V13.6893H4.75653C4.68278 13.5744 4.6053 13.4613 4.52283 13.3508C4.15447 12.8577 3.70595 12.4283 3.2036 12.0795ZM5.65351 16.8475H8.80045V18.4573H5.65351V16.8475ZM5.6133 16.0733C5.54698 15.5147 5.39818 14.9742 5.17269 14.4635H8.80045V16.0733H5.6133ZM5.65351 19.6918V19.2315H8.80045V20.8418H5.84592C5.72143 20.4811 5.65351 20.0942 5.65351 19.6918ZM6.22559 21.616H8.80045V23.2048C7.72288 23.0868 6.79008 22.4819 6.22559 21.616ZM13.4584 12.3003C13.4038 12.1561 13.2657 12.0525 13.1021 12.0502C13.1002 12.0502 13.0984 12.0501 13.0965 12.0501C12.8853 12.0501 12.7126 12.2198 12.7096 12.4317L12.7035 12.8525C12.7035 12.8532 12.7035 12.8538 12.7035 12.8545L12.6152 19.0309C12.4719 19.0873 12.2537 19.1511 12 19.1511C11.7477 19.1511 11.5288 19.0869 11.3849 19.0304L11.2967 12.8565C11.2967 12.8543 11.2966 12.8522 11.2966 12.8501L11.2906 12.4317C11.2875 12.2199 11.1149 12.0502 10.9036 12.0502C10.9017 12.0502 10.8999 12.0502 10.898 12.0502C10.7344 12.0525 10.5963 12.1561 10.5417 12.3004C10.1451 12.1106 9.79462 11.8461 9.50414 11.522C9.49124 11.5036 9.477 11.4863 9.46115 11.4705C9.44541 11.4481 9.42729 11.4275 9.40727 11.4089C9.06905 10.9964 8.82254 10.4978 8.69403 9.94059C8.56061 9.36217 8.42301 8.47205 8.29454 7.49688L10.2313 7.82865L10.0373 8.12759C9.92087 8.30689 9.97181 8.54663 10.1512 8.66302C10.2162 8.70529 10.2893 8.72547 10.3616 8.72547C10.4883 8.72547 10.6125 8.66328 10.6866 8.54911L11.2007 7.75711C11.2716 7.6479 11.2829 7.51035 11.2306 7.39112C11.1784 7.27185 11.0697 7.18684 10.9414 7.16485L8.19287 6.69399C8.15256 6.36366 8.11369 6.03076 8.07663 5.70323H15.9234C15.8864 6.03076 15.8475 6.36366 15.8072 6.69399L13.0586 7.16485C12.9303 7.18684 12.8216 7.27185 12.7694 7.39112C12.7172 7.5104 12.7284 7.64795 12.7993 7.75716L13.3134 8.54916C13.3876 8.66338 13.5118 8.72552 13.6385 8.72552C13.7107 8.72552 13.7838 8.70529 13.8489 8.66307C14.0282 8.54668 14.0792 8.30694 13.9628 8.12759L13.7687 7.82865L15.7055 7.49688C15.5771 8.47205 15.4395 9.36212 15.3061 9.94054C15.1773 10.4986 14.9303 10.9978 14.5912 11.4108C14.5724 11.4285 14.5554 11.4479 14.5405 11.469C14.5241 11.4852 14.5093 11.503 14.4959 11.5219C14.2055 11.846 13.855 12.1106 13.4584 12.3003ZM15.1996 19.2315H16.3608C16.5746 19.2315 16.7479 19.0582 16.7479 18.8444C16.7479 18.6306 16.5746 18.4573 16.3608 18.4573H15.1996V16.8475H18.3466V18.4573H17.9092C17.6954 18.4573 17.5221 18.6306 17.5221 18.8444C17.5221 19.0582 17.6954 19.2315 17.9092 19.2315H18.3466V19.6918C18.3466 20.0942 18.2787 20.4811 18.1542 20.8418H15.1996V19.2315ZM18.3868 16.0733H15.1996V14.4635H18.8274C18.6019 14.9742 18.4531 15.5147 18.3868 16.0733ZM15.1996 23.2048V21.616H17.7745C17.21 22.4819 16.2773 23.0868 15.1996 23.2048ZM19.4773 13.3508C19.3948 13.4613 19.3173 13.5743 19.2435 13.6893H15.1996V12.0795H20.7965C20.2941 12.4283 19.8456 12.8577 19.4773 13.3508Z" fill="black"/>
</g>
<defs>
<clipPath id="clip0_277_107">
<rect width="24" height="24" fill="white"/>
</clipPath>
</defs>
</svg>
