<svg width="24" height="24" viewBox="0 0 24 24" fill="none" xmlns="http://www.w3.org/2000/svg">
<path d="M23.6129 17.0323H21.6774V13.8064C21.6774 13.5926 21.5041 13.4194 21.2903 13.4194H19.3548V10.1935C19.3548 9.97971 19.1815 9.80645 18.9677 9.80645H17.0323V6.58064C17.0323 6.36681 16.8589 6.19355 16.6452 6.19355H14.7097V2.96774C14.7097 2.75391 14.5364 2.58064 14.3226 2.58064H9.67742C9.46364 2.58064 9.29032 2.75391 9.29032 2.96774V6.19355H7.35484C7.14106 6.19355 6.96774 6.36681 6.96774 6.58064V9.80645H5.03226C4.81848 9.80645 4.64516 9.97971 4.64516 10.1935V13.4194H2.70968C2.4959 13.4194 2.32258 13.5926 2.32258 13.8064V17.0323H0.387097C0.173316 17.0323 0 17.2055 0 17.4194V21.0323C0 21.2461 0.173316 21.4194 0.387097 21.4194H23.6129C23.8267 21.4194 24 21.2461 24 21.0323V17.4194C24 17.2055 23.8267 17.0323 23.6129 17.0323ZM12.3871 3.35484H13.9355V6.19355H12.3871V3.35484ZM12.3871 6.96774H16.2581V9.80645H12.3871V6.96774ZM12.3871 10.5806H18.5806V13.4194H12.3871V10.5806ZM10.0645 3.35484H11.6129V6.19355H10.0645V3.35484ZM5.41935 10.5806H8.90323C9.11701 10.5806 9.29032 10.4074 9.29032 10.1935C9.29032 9.97971 9.11701 9.80645 8.90323 9.80645H7.74194V6.96774H11.6129V9.80645H10.4516C10.2378 9.80645 10.0645 9.97971 10.0645 10.1935C10.0645 10.4074 10.2378 10.5806 10.4516 10.5806H11.6129V13.4194H5.41935V10.5806ZM11.6129 20.6452H0.774194V17.8064H11.6129V20.6452ZM23.2258 20.6452H12.3871V17.8064H19.2258C19.4396 17.8064 19.6129 17.6332 19.6129 17.4194C19.6129 17.2055 19.4396 17.0323 19.2258 17.0323H12.3871V16.3871C12.3871 16.1733 12.2138 16 12 16C11.7862 16 11.6129 16.1733 11.6129 16.3871V17.0323H3.09677V14.1935H11.6129V14.8387C11.6129 15.0525 11.7862 15.2258 12 15.2258C12.2138 15.2258 12.3871 15.0525 12.3871 14.8387V14.1935H20.9032V17.0323H20.7742C20.5604 17.0323 20.3871 17.2055 20.3871 17.4194C20.3871 17.6332 20.5604 17.8064 20.7742 17.8064H23.2258V20.6452Z" fill="black"/>
<path d="M16.8774 11.8194C16.6497 11.8194 16.4645 12.0046 16.4645 12.2323C16.4645 12.4599 16.6497 12.6452 16.8774 12.6452C17.105 12.6452 17.2903 12.4599 17.2903 12.2323C17.2903 12.0046 17.105 11.8194 16.8774 11.8194Z" fill="black"/>
<path d="M14.0903 19.0452C13.8626 19.0452 13.6774 19.2304 13.6774 19.4581C13.6774 19.6857 13.8626 19.871 14.0903 19.871C14.3179 19.871 14.5032 19.6857 14.5032 19.4581C14.5032 19.2304 14.3179 19.0452 14.0903 19.0452Z" fill="black"/>
<path d="M16.1548 18.5806C15.9272 18.5806 15.7419 18.7659 15.7419 18.9935C15.7419 19.2212 15.9272 19.4064 16.1548 19.4064C16.3825 19.4064 16.5677 19.2212 16.5677 18.9935C16.5677 18.7659 16.3825 18.5806 16.1548 18.5806Z" fill="black"/>
</svg>
