<svg width="24" height="24" viewBox="0 0 24 24" fill="none" xmlns="http://www.w3.org/2000/svg">
<g clip-path="url(#clip0_277_76)">
<path d="M18.9226 5.10337C18.9226 2.28933 16.6283 -7.62939e-06 13.8081 -7.62939e-06H10.1952C9.26963 -7.62939e-06 8.40073 0.246599 7.65095 0.67736C7.6221 0.690108 7.59515 0.70585 7.57079 0.724689C6.08032 1.61754 5.08068 3.24608 5.08068 5.10337V5.68851C5.07866 5.70456 5.07727 5.72082 5.07727 5.73744C5.07727 6.94394 6.14891 18.4319 6.34081 20.4794C6.00393 20.6369 5.7694 20.9781 5.7694 21.3739V23.0122C5.7694 23.5569 6.2125 24 6.75717 24H13.6333H17.2462C17.7909 24 18.234 23.5569 18.234 23.0122V21.3739C18.234 20.9781 17.9994 20.6368 17.6625 20.4794C17.8632 18.3324 18.9227 6.94017 18.9227 5.77434L18.9226 5.10337ZM11.9439 2.45357H8.44656C8.35923 1.95901 8.28259 1.5139 8.23608 1.24221C8.82509 0.943631 9.49048 0.774186 10.1952 0.774186C10.8999 0.774186 11.5654 0.943683 12.1544 1.24226C12.1079 1.51395 12.0312 1.95901 11.9439 2.45357ZM11.8055 3.22776C11.6845 3.89506 11.5625 4.53857 11.4829 4.8833C11.3742 5.35478 10.9249 5.86219 10.1953 5.86219C9.46566 5.86219 9.01632 5.35478 8.90757 4.8833C8.82803 4.53857 8.70602 3.89501 8.58499 3.22776H11.8055ZM6.54359 23.0122V21.3739C6.54359 21.2561 6.63939 21.1603 6.75717 21.1603H7.92708C8.14086 21.1603 8.31417 20.987 8.31417 20.7732C8.31417 20.5594 8.14086 20.3861 7.92708 20.3861H7.10973C6.9373 18.5438 6.06199 9.14962 5.88336 6.40051C6.4205 6.76804 6.7645 7.38998 6.7645 8.06239C6.7645 9.25315 7.73327 10.2219 8.92398 10.2219C9.13776 10.2219 9.31108 10.0487 9.31108 9.83483V7.59462C9.31108 7.38079 9.13776 7.20753 8.92398 7.20753C8.7102 7.20753 8.53688 7.38079 8.53688 7.59462V9.39271C7.96083 9.22482 7.53869 8.69197 7.53869 8.06244C7.53869 6.9505 6.85921 5.93733 5.85492 5.50497V5.10342C5.85492 3.71896 6.51066 2.4851 7.52775 1.69207C7.58143 2.00355 7.65167 2.40737 7.72723 2.8323C7.72718 2.83514 7.72682 2.83788 7.72682 2.84066C7.72682 2.89083 7.73668 2.93862 7.75407 2.98265C7.8973 3.78379 8.05461 4.62972 8.15324 5.05733C8.32863 5.81785 9.04248 6.63643 10.1953 6.63643C11.3481 6.63643 12.062 5.8179 12.2374 5.05733C12.3951 4.37393 12.7026 2.62193 12.8629 1.69212C13.8799 2.48515 14.5356 3.71896 14.5356 5.10337V5.50492C13.5314 5.93733 12.8519 6.95044 12.8519 8.06239C12.8519 8.69191 12.4297 9.22477 11.8537 9.39266V7.59457C11.8537 7.38074 11.6804 7.20748 11.4666 7.20748C11.2529 7.20748 11.0795 7.38074 11.0795 7.59457V9.83478C11.0795 10.0486 11.2529 10.2219 11.4666 10.2219C12.6574 10.2219 13.6261 9.2531 13.6261 8.06234C13.6261 7.3906 13.9693 6.76933 14.5056 6.40164C14.3322 9.07798 13.4615 18.45 13.2808 20.3861H9.47562C9.26184 20.3861 9.08852 20.5594 9.08852 20.7732C9.08852 20.987 9.26184 21.1603 9.47562 21.1603H13.6328C13.6332 21.1603 13.6336 21.1604 13.6339 21.1604C13.7514 21.1606 13.847 21.2563 13.847 21.3739V23.0122C13.847 23.13 13.7512 23.2258 13.6334 23.2258H6.75717C6.63939 23.2258 6.54359 23.13 6.54359 23.0122ZM17.4597 23.0122C17.4597 23.13 17.3639 23.2258 17.2461 23.2258H14.5971C14.6124 23.1569 14.621 23.0856 14.621 23.0122V21.3739C14.621 20.9781 14.3865 20.6368 14.0496 20.4794C14.2502 18.3324 15.3097 6.94017 15.3097 5.77434V5.10337C15.3097 3.27979 14.346 1.67684 12.9003 0.774186H13.8081C16.2013 0.774186 18.1484 2.71628 18.1484 5.10337V5.38724H16.471C16.2572 5.38724 16.0839 5.56051 16.0839 5.77434C16.0839 5.98817 16.2572 6.16144 16.471 6.16144H18.1331C18.0026 8.45795 17.0802 18.3868 16.8936 20.3862H15.6978C15.484 20.3862 15.3107 20.5594 15.3107 20.7733C15.3107 20.9871 15.484 21.1604 15.6978 21.1604H17.2456C17.246 21.1604 17.2464 21.1604 17.2467 21.1604C17.3642 21.1607 17.4597 21.2564 17.4597 21.3739V23.0122Z" fill="black"/>
<path d="M10.2314 13.238L11.265 14.2717C11.3406 14.3472 11.4397 14.385 11.5387 14.385C11.6378 14.385 11.7369 14.3472 11.8124 14.2717C11.9636 14.1205 11.9636 13.8754 11.8124 13.7242L10.7788 12.6906L11.8125 11.657C11.9637 11.5058 11.9637 11.2607 11.8125 11.1095C11.6614 10.9584 11.4163 10.9584 11.2651 11.1095L10.2314 12.1432L9.19777 11.1095C9.0466 10.9584 8.80149 10.9584 8.65037 11.1095C8.49919 11.2607 8.49919 11.5058 8.65037 11.657L9.68402 12.6906L8.65037 13.7242C8.49919 13.8754 8.49919 14.1205 8.65037 14.2716C8.72593 14.3472 8.82503 14.385 8.92407 14.385C9.02312 14.385 9.12221 14.3472 9.19777 14.2716L10.2314 13.238Z" fill="black"/>
</g>
<defs>
<clipPath id="clip0_277_76">
<rect width="24" height="24" fill="white"/>
</clipPath>
</defs>
</svg>
