<svg width="24" height="24" viewBox="0 0 24 24" fill="none" xmlns="http://www.w3.org/2000/svg">
<path d="M23.6129 6.90978H14.1002C13.5753 6.34741 12.8282 5.99479 12 5.99479C11.1718 5.99479 10.4247 6.34736 9.89977 6.90978H0.387097C0.173265 6.90978 0 7.08305 0 7.29688C0 10.1109 2.28934 12.4003 5.10338 12.4003H8.64893C8.86276 12.4003 9.03603 12.227 9.03603 12.0132V10.8281H9.89977C10.1326 11.0776 10.4091 11.2855 10.7172 11.4398V16.14C10.7172 16.6052 10.4241 17.0021 10.0133 17.1588V14.4039C10.0133 14.19 9.84 14.0168 9.62617 14.0168H7.87097C7.65714 14.0168 7.48387 14.19 7.48387 14.4039C7.48387 14.5795 7.60083 14.7275 7.76098 14.7749V16.14C7.76098 17.1685 8.59768 18.0052 9.62617 18.0052C10.6547 18.0052 11.4914 17.1685 11.4914 16.14V11.6971C11.6566 11.7267 11.8264 11.7431 12 11.7431C12.1736 11.7431 12.3434 11.7267 12.5086 11.6971V16.14C12.5086 17.1685 13.3453 18.0052 14.3738 18.0052C15.4023 18.0052 16.239 17.1685 16.239 16.14V14.7749C16.3992 14.7274 16.5161 14.5794 16.5161 14.4039C16.5161 14.19 16.3429 14.0168 16.129 14.0168H14.3738C14.16 14.0168 13.9867 14.19 13.9867 14.4039V17.1588C13.5759 17.0021 13.2828 16.6052 13.2828 16.14V11.4398C13.5909 11.2855 13.8674 11.0776 14.1002 10.8281H14.964V12.0132C14.964 12.227 15.1372 12.4003 15.3511 12.4003H18.8966C21.7106 12.4003 24 10.1109 24 7.29688C24 7.08305 23.8267 6.90978 23.6129 6.90978ZM8.53517 16.14V14.791H9.23907V17.1588C8.82828 17.0021 8.53517 16.6051 8.53517 16.14ZM15.4648 14.791V16.14C15.4648 16.6052 15.1717 17.0021 14.7609 17.1588V14.791H15.4648ZM8.26183 11.6261H5.10338C3.42101 11.6261 1.96021 10.6612 1.24397 9.25605H2.58519C2.79902 9.25605 2.97228 9.08279 2.97228 8.86896C2.97228 8.65512 2.79902 8.48186 2.58519 8.48186H0.939148C0.86591 8.22478 0.815742 7.95804 0.791329 7.68398H3.3745C3.56795 9.4496 5.06782 10.8281 6.88413 10.8281H8.26183V11.6261ZM6.88413 10.0539C5.49528 10.0539 4.34364 9.02152 4.15479 7.68398H9.38256C9.21822 8.04558 9.12588 8.44656 9.12588 8.86896C9.12588 9.29136 9.21822 9.69234 9.38256 10.0539H6.88413ZM12 10.9689C10.8421 10.9689 9.90003 10.0268 9.90003 8.86891C9.90003 7.71097 10.8421 6.76893 12 6.76893C13.1579 6.76893 14.1 7.71097 14.1 8.86891C14.1 10.0268 13.1579 10.9689 12 10.9689ZM14.6174 7.68398H19.8452C19.6564 9.02152 18.5047 10.0539 17.1159 10.0539H14.6174C14.7818 9.69234 14.8741 9.29136 14.8741 8.86896C14.8741 8.44656 14.7818 8.04558 14.6174 7.68398ZM18.8966 11.6261H15.7382V10.8281H17.1159C18.9321 10.8281 20.432 9.4496 20.6255 7.68398H23.2087C23.1843 7.95804 23.1341 8.22478 23.0609 8.48186H21.4148C21.201 8.48186 21.0277 8.65512 21.0277 8.86896C21.0277 9.08279 21.201 9.25605 21.4148 9.25605H22.756C22.0398 10.6612 20.579 11.6261 18.8966 11.6261Z" fill="black"/>
</svg>
