<svg width="24" height="24" viewBox="0 0 24 24" fill="none" xmlns="http://www.w3.org/2000/svg">
<g clip-path="url(#clip0_277_8)">
<mask id="path-1-inside-1_277_8" fill="white">
<path d="M13.9175 20.2665C14.7967 19.4923 15.5403 18.4773 15.5403 16.9223C15.5403 15.3149 14.7362 14.2939 13.9175 13.5758C14.7967 12.8016 15.5404 11.7864 15.5404 10.2314C15.5404 8.624 14.7362 7.60289 13.9175 6.8848C14.7967 6.11056 15.5403 5.09538 15.5403 3.54034C15.5403 1.58818 13.9521 0 12 0C10.0478 0 8.45965 1.58818 8.45965 3.54034C8.45965 5.14772 9.26378 6.16883 10.0825 6.88697C9.20329 7.66121 8.45959 8.67639 8.45959 10.2315C8.45959 11.8389 9.26372 12.8599 10.0825 13.578C9.20329 14.3522 8.45965 15.3673 8.45965 16.9223C8.45965 18.5297 9.26378 19.5507 10.0825 20.2687C9.20323 21.0429 8.45959 22.058 8.45959 23.613C8.45959 23.8267 8.63291 24.0001 8.84669 24.0001H10.3952C10.609 24.0001 10.7823 23.8267 10.7823 23.613C10.7823 22.8281 11.1599 22.3475 12.0011 21.7027C12.8241 22.3303 13.2176 22.8125 13.2176 23.613C13.2176 23.8267 13.3909 24.0001 13.6047 24.0001H15.1533C15.3671 24.0001 15.5404 23.8267 15.5404 23.613C15.5404 22.0056 14.7362 20.9846 13.9175 20.2665ZM9.23379 10.2314C9.23379 8.79298 9.99596 7.92315 10.9158 7.19871C10.9246 7.19226 10.9333 7.18555 10.9417 7.17827C11.2122 6.96666 11.4957 6.76707 11.7772 6.56914C12.9655 5.73363 13.9918 5.01208 13.9918 3.54028C13.9918 2.44201 13.0983 1.54849 12 1.54849C10.9017 1.54849 10.0082 2.44201 10.0082 3.54028C10.0082 4.6463 10.6028 5.33027 11.3472 5.92506C11.342 5.92872 11.337 5.93228 11.3317 5.93595C11.1251 6.08124 10.9103 6.23246 10.6954 6.39319C9.93898 5.75551 9.23384 4.9072 9.23384 3.54028C9.23384 2.01507 10.4747 0.774194 12 0.774194C13.5252 0.774194 14.7661 2.01507 14.7661 3.54034C14.7661 4.98111 14.0015 5.85146 13.0798 6.57652C13.0728 6.58173 13.0659 6.58699 13.0592 6.59272C12.7884 6.80465 12.5045 7.00444 12.2227 7.20258C11.0344 8.03809 10.0082 8.75969 10.0082 10.2314C10.0082 11.3374 10.6028 12.0213 11.3473 12.6161C11.3421 12.6197 11.3372 12.6232 11.3321 12.6268C11.1253 12.7722 10.9104 12.9235 10.6954 13.0842C9.93898 12.4466 9.23379 11.5983 9.23379 10.2314ZM10.7824 3.54034C10.7824 2.86896 11.3286 2.32274 12 2.32274C12.6714 2.32274 13.2176 2.86896 13.2176 3.54034C13.2176 4.32537 12.8401 4.80604 11.9987 5.45094C11.1757 4.82312 10.7824 4.34106 10.7824 3.54034ZM13.2176 10.2314C13.2176 11.0164 12.84 11.497 11.9988 12.1418C11.1759 11.5142 10.7824 11.0321 10.7824 10.2314C10.7824 9.4464 11.16 8.96578 12.0012 8.32093C12.8241 8.94865 13.2176 9.43076 13.2176 10.2314ZM9.23384 16.9223C9.23384 15.48 10.0001 14.6094 10.9231 13.8839C10.9263 13.8815 10.9294 13.8791 10.9325 13.8765C11.2059 13.6622 11.4926 13.4603 11.7773 13.2601C12.9656 12.4246 13.9918 11.7031 13.9918 10.2314C13.9918 9.12537 13.3972 8.44145 12.6527 7.84666C12.6579 7.84305 12.6628 7.83948 12.6681 7.83587C12.8748 7.69053 13.0896 7.5393 13.3046 7.37853C14.061 8.01621 14.7662 8.86457 14.7662 10.2314C14.7662 11.6755 13.9981 12.5465 13.0735 13.2726C13.0691 13.276 13.0647 13.2792 13.0605 13.2828C12.7892 13.4951 12.505 13.6952 12.2228 13.8936C11.0345 14.7291 10.0083 15.4506 10.0083 16.9223C10.0083 18.0282 10.6029 18.7121 11.3473 19.3068C11.3422 19.3105 11.3372 19.314 11.3321 19.3176C11.1253 19.463 10.9105 19.6142 10.6955 19.775C9.93903 19.1373 9.23384 18.2891 9.23384 16.9223ZM13.2176 16.9223C13.2176 17.7071 12.84 18.1878 11.9988 18.8325C11.1759 18.2049 10.7824 17.7228 10.7824 16.9223C10.7824 16.1373 11.16 15.6567 12.0011 15.0119C12.824 15.6396 13.2176 16.1217 13.2176 16.9223ZM10.0334 23.2258H9.25309C9.37701 22.0128 10.0825 21.2358 10.9177 20.5785C10.9235 20.5742 10.9293 20.5698 10.9349 20.5651C11.2075 20.3516 11.4934 20.1504 11.7772 19.9509C12.9655 19.1154 13.9917 18.3939 13.9917 16.9223C13.9917 15.8163 13.3971 15.1324 12.6527 14.5377C12.6579 14.534 12.6628 14.5305 12.6681 14.5268C12.8748 14.3815 13.0896 14.2302 13.3045 14.0695C14.0609 14.7071 14.7661 15.5554 14.7661 16.9222C14.7661 18.3607 14.0037 19.2305 13.0839 19.9549C13.0752 19.9612 13.0667 19.9678 13.0585 19.975C12.7878 20.1866 12.5042 20.3863 12.2226 20.5843C11.1435 21.343 10.198 22.0079 10.0334 23.2258ZM13.966 23.2258C13.8443 22.3412 13.3061 21.7505 12.6526 21.2284C12.6578 21.2247 12.6628 21.2212 12.668 21.2176C12.8747 21.0722 13.0896 20.921 13.3045 20.7603C13.9869 21.3354 14.6275 22.0819 14.7465 23.2258H13.966Z"/>
</mask>
<path d="M13.9175 20.2665C14.7967 19.4923 15.5403 18.4773 15.5403 16.9223C15.5403 15.3149 14.7362 14.2939 13.9175 13.5758C14.7967 12.8016 15.5404 11.7864 15.5404 10.2314C15.5404 8.624 14.7362 7.60289 13.9175 6.8848C14.7967 6.11056 15.5403 5.09538 15.5403 3.54034C15.5403 1.58818 13.9521 0 12 0C10.0478 0 8.45965 1.58818 8.45965 3.54034C8.45965 5.14772 9.26378 6.16883 10.0825 6.88697C9.20329 7.66121 8.45959 8.67639 8.45959 10.2315C8.45959 11.8389 9.26372 12.8599 10.0825 13.578C9.20329 14.3522 8.45965 15.3673 8.45965 16.9223C8.45965 18.5297 9.26378 19.5507 10.0825 20.2687C9.20323 21.0429 8.45959 22.058 8.45959 23.613C8.45959 23.8267 8.63291 24.0001 8.84669 24.0001H10.3952C10.609 24.0001 10.7823 23.8267 10.7823 23.613C10.7823 22.8281 11.1599 22.3475 12.0011 21.7027C12.8241 22.3303 13.2176 22.8125 13.2176 23.613C13.2176 23.8267 13.3909 24.0001 13.6047 24.0001H15.1533C15.3671 24.0001 15.5404 23.8267 15.5404 23.613C15.5404 22.0056 14.7362 20.9846 13.9175 20.2665ZM9.23379 10.2314C9.23379 8.79298 9.99596 7.92315 10.9158 7.19871C10.9246 7.19226 10.9333 7.18555 10.9417 7.17827C11.2122 6.96666 11.4957 6.76707 11.7772 6.56914C12.9655 5.73363 13.9918 5.01208 13.9918 3.54028C13.9918 2.44201 13.0983 1.54849 12 1.54849C10.9017 1.54849 10.0082 2.44201 10.0082 3.54028C10.0082 4.6463 10.6028 5.33027 11.3472 5.92506C11.342 5.92872 11.337 5.93228 11.3317 5.93595C11.1251 6.08124 10.9103 6.23246 10.6954 6.39319C9.93898 5.75551 9.23384 4.9072 9.23384 3.54028C9.23384 2.01507 10.4747 0.774194 12 0.774194C13.5252 0.774194 14.7661 2.01507 14.7661 3.54034C14.7661 4.98111 14.0015 5.85146 13.0798 6.57652C13.0728 6.58173 13.0659 6.58699 13.0592 6.59272C12.7884 6.80465 12.5045 7.00444 12.2227 7.20258C11.0344 8.03809 10.0082 8.75969 10.0082 10.2314C10.0082 11.3374 10.6028 12.0213 11.3473 12.6161C11.3421 12.6197 11.3372 12.6232 11.3321 12.6268C11.1253 12.7722 10.9104 12.9235 10.6954 13.0842C9.93898 12.4466 9.23379 11.5983 9.23379 10.2314ZM10.7824 3.54034C10.7824 2.86896 11.3286 2.32274 12 2.32274C12.6714 2.32274 13.2176 2.86896 13.2176 3.54034C13.2176 4.32537 12.8401 4.80604 11.9987 5.45094C11.1757 4.82312 10.7824 4.34106 10.7824 3.54034ZM13.2176 10.2314C13.2176 11.0164 12.84 11.497 11.9988 12.1418C11.1759 11.5142 10.7824 11.0321 10.7824 10.2314C10.7824 9.4464 11.16 8.96578 12.0012 8.32093C12.8241 8.94865 13.2176 9.43076 13.2176 10.2314ZM9.23384 16.9223C9.23384 15.48 10.0001 14.6094 10.9231 13.8839C10.9263 13.8815 10.9294 13.8791 10.9325 13.8765C11.2059 13.6622 11.4926 13.4603 11.7773 13.2601C12.9656 12.4246 13.9918 11.7031 13.9918 10.2314C13.9918 9.12537 13.3972 8.44145 12.6527 7.84666C12.6579 7.84305 12.6628 7.83948 12.6681 7.83587C12.8748 7.69053 13.0896 7.5393 13.3046 7.37853C14.061 8.01621 14.7662 8.86457 14.7662 10.2314C14.7662 11.6755 13.9981 12.5465 13.0735 13.2726C13.0691 13.276 13.0647 13.2792 13.0605 13.2828C12.7892 13.4951 12.505 13.6952 12.2228 13.8936C11.0345 14.7291 10.0083 15.4506 10.0083 16.9223C10.0083 18.0282 10.6029 18.7121 11.3473 19.3068C11.3422 19.3105 11.3372 19.314 11.3321 19.3176C11.1253 19.463 10.9105 19.6142 10.6955 19.775C9.93903 19.1373 9.23384 18.2891 9.23384 16.9223ZM13.2176 16.9223C13.2176 17.7071 12.84 18.1878 11.9988 18.8325C11.1759 18.2049 10.7824 17.7228 10.7824 16.9223C10.7824 16.1373 11.16 15.6567 12.0011 15.0119C12.824 15.6396 13.2176 16.1217 13.2176 16.9223ZM10.0334 23.2258H9.25309C9.37701 22.0128 10.0825 21.2358 10.9177 20.5785C10.9235 20.5742 10.9293 20.5698 10.9349 20.5651C11.2075 20.3516 11.4934 20.1504 11.7772 19.9509C12.9655 19.1154 13.9917 18.3939 13.9917 16.9223C13.9917 15.8163 13.3971 15.1324 12.6527 14.5377C12.6579 14.534 12.6628 14.5305 12.6681 14.5268C12.8748 14.3815 13.0896 14.2302 13.3045 14.0695C14.0609 14.7071 14.7661 15.5554 14.7661 16.9222C14.7661 18.3607 14.0037 19.2305 13.0839 19.9549C13.0752 19.9612 13.0667 19.9678 13.0585 19.975C12.7878 20.1866 12.5042 20.3863 12.2226 20.5843C11.1435 21.343 10.198 22.0079 10.0334 23.2258ZM13.966 23.2258C13.8443 22.3412 13.3061 21.7505 12.6526 21.2284C12.6578 21.2247 12.6628 21.2212 12.668 21.2176C12.8747 21.0722 13.0896 20.921 13.3045 20.7603C13.9869 21.3354 14.6275 22.0819 14.7465 23.2258H13.966Z" fill="black"/>
<path d="M13.9175 20.2665L13.2567 19.516L12.4026 20.268L13.2581 21.0183L13.9175 20.2665ZM13.9175 13.5758L13.2566 12.8253L12.4027 13.5773L13.2581 14.3276L13.9175 13.5758ZM13.9175 6.8848L13.2566 6.13431L12.4026 6.88633L13.2581 7.63663L13.9175 6.8848ZM15.5403 3.54034H14.5403H15.5403ZM10.0825 6.88697L10.7434 7.63746L11.5973 6.88549L10.7419 6.13519L10.0825 6.88697ZM10.0825 13.578L10.7433 14.3285L11.5973 13.5765L10.7418 12.8262L10.0825 13.578ZM10.0825 20.2687L10.7433 21.0192L11.5973 20.2672L10.7418 19.5169L10.0825 20.2687ZM12.0011 21.7027L12.6076 20.9075L11.9996 20.4438L11.3928 20.909L12.0011 21.7027ZM10.9158 7.19871L10.3257 6.39141L10.3112 6.402L10.2971 6.4131L10.9158 7.19871ZM10.9417 7.17827L10.3256 6.39059L10.3049 6.40675L10.2851 6.42397L10.9417 7.17827ZM11.7772 6.56914L11.202 5.75111L11.202 5.75112L11.7772 6.56914ZM11.3472 5.92506L11.9223 6.74315L13.0133 5.97623L11.9715 5.14381L11.3472 5.92506ZM11.3317 5.93595L10.7567 5.11786L10.7566 5.11789L11.3317 5.93595ZM10.6954 6.39319L10.0508 7.15774L10.658 7.66968L11.2942 7.19409L10.6954 6.39319ZM9.23384 3.54028H8.23384H9.23384ZM13.0798 6.57652L13.6788 7.37723L13.6885 7.36998L13.698 7.36249L13.0798 6.57652ZM13.0592 6.59272L13.6754 7.38031L13.6938 7.36594L13.7115 7.35073L13.0592 6.59272ZM12.2227 7.20258L11.6476 6.3845L11.6475 6.38455L12.2227 7.20258ZM11.3473 12.6161L11.9207 13.4353L13.0155 12.669L11.9715 11.8348L11.3473 12.6161ZM11.3321 12.6268L10.7586 11.8076L10.7569 11.8088L11.3321 12.6268ZM10.6954 13.0842L10.0509 13.8488L10.6582 14.3607L11.2942 13.8851L10.6954 13.0842ZM11.9987 5.45094L11.3923 6.24604L12.0002 6.70978L12.6071 6.24461L11.9987 5.45094ZM11.9988 12.1418L11.3924 12.9369L12.0004 13.4007L12.6072 12.9355L11.9988 12.1418ZM12.0012 8.32093L12.6077 7.52586L11.9997 7.06206L11.3928 7.52728L12.0012 8.32093ZM10.9231 13.8839L10.3128 13.0917L10.3052 13.0977L10.9231 13.8839ZM10.9325 13.8765L10.3155 13.0895L10.3038 13.0987L10.2923 13.1083L10.9325 13.8765ZM11.7773 13.2601L12.3525 14.0782L12.3525 14.0782L11.7773 13.2601ZM12.6527 7.84666L12.0793 7.02743L10.9845 7.79378L12.0285 8.62793L12.6527 7.84666ZM12.6681 7.83587L13.2377 8.65779L13.2432 8.6539L12.6681 7.83587ZM13.3046 7.37853L13.9492 6.61398L13.3419 6.10201L12.7058 6.57765L13.3046 7.37853ZM13.0735 13.2726L12.4559 12.4861L12.4557 12.4863L13.0735 13.2726ZM13.0605 13.2828L13.6767 14.0704L13.6935 14.0572L13.7097 14.0434L13.0605 13.2828ZM12.2228 13.8936L12.798 14.7117L12.798 14.7116L12.2228 13.8936ZM11.3473 19.3068L11.9208 20.1261L13.0156 19.3597L11.9715 18.5256L11.3473 19.3068ZM11.3321 19.3176L11.9072 20.1357L11.911 20.133L11.3321 19.3176ZM10.6955 19.775L10.0509 20.5395L10.6582 21.0515L11.2943 20.5758L10.6955 19.775ZM11.9988 18.8325L11.3924 19.6276L12.0003 20.0913L12.6072 19.6262L11.9988 18.8325ZM12.0011 15.0119L12.6076 14.2168L11.9996 13.7531L11.3927 14.2183L12.0011 15.0119ZM10.0334 23.2258V24.2258H10.9074L11.0244 23.3597L10.0334 23.2258ZM9.25309 23.2258L8.25827 23.1242L8.14573 24.2258H9.25309V23.2258ZM10.9177 20.5785L10.3245 19.7735L10.3117 19.7829L10.2992 19.7927L10.9177 20.5785ZM10.9349 20.5651L10.3183 19.7779L10.306 19.7875L10.2941 19.7975L10.9349 20.5651ZM11.7772 19.9509L12.3523 20.7689L12.3524 20.7689L11.7772 19.9509ZM12.6527 14.5377L12.0738 13.7223L10.9918 14.4905L12.0285 15.3189L12.6527 14.5377ZM12.6681 14.5268L13.2432 15.3449L13.2432 15.3448L12.6681 14.5268ZM13.3045 14.0695L13.9491 13.305L13.3419 12.793L12.7057 13.2686L13.3045 14.0695ZM13.0839 19.9549L13.6746 20.7618L13.6888 20.7514L13.7026 20.7405L13.0839 19.9549ZM13.0585 19.975L13.6745 20.7627L13.6946 20.7469L13.7139 20.7302L13.0585 19.975ZM12.2226 20.5843L12.7978 21.4023L12.7979 21.4023L12.2226 20.5843ZM13.966 23.2258L12.9754 23.3622L13.0942 24.2258H13.966V23.2258ZM12.6526 21.2284L12.0775 20.4103L10.9865 21.1772L12.0284 22.0097L12.6526 21.2284ZM12.668 21.2176L13.2431 22.0356L13.2432 22.0356L12.668 21.2176ZM13.3045 20.7603L13.9491 19.9957L13.3418 19.4838L12.7057 19.9594L13.3045 20.7603ZM14.7465 23.2258V24.2258H15.8559L15.7411 23.1224L14.7465 23.2258ZM13.9175 20.2665L14.5784 21.017C15.5867 20.1291 16.5403 18.8625 16.5403 16.9223H15.5403H14.5403C14.5403 18.092 14.0067 18.8555 13.2567 19.516L13.9175 20.2665ZM15.5403 16.9223H16.5403C16.5403 14.9181 15.514 13.646 14.5769 12.824L13.9175 13.5758L13.2581 14.3276C13.9584 14.9418 14.5403 15.7117 14.5403 16.9223H15.5403ZM13.9175 13.5758L14.5784 14.3263C15.5867 13.4384 16.5404 12.1717 16.5404 10.2314H15.5404H14.5404C14.5404 11.4012 14.0067 12.1648 13.2566 12.8253L13.9175 13.5758ZM15.5404 10.2314H16.5404C16.5404 8.22726 15.5141 6.95498 14.5768 6.13298L13.9175 6.8848L13.2581 7.63663C13.9584 8.2508 14.5404 9.02074 14.5404 10.2314H15.5404ZM13.9175 6.8848L14.5783 7.63529C15.5867 6.74733 16.5403 5.48062 16.5403 3.54034H15.5403H14.5403C14.5403 4.71014 14.0067 5.47378 13.2566 6.13431L13.9175 6.8848ZM15.5403 3.54034H16.5403C16.5403 1.03589 14.5044 -1 12 -1V0V1C13.3998 1 14.5403 2.14047 14.5403 3.54034H15.5403ZM12 0V-1C9.49554 -1 7.45965 1.0359 7.45965 3.54034H8.45965H9.45965C9.45965 2.14047 10.6001 1 12 1V0ZM8.45965 3.54034H7.45965C7.45965 5.54446 8.48593 6.81673 9.4231 7.63875L10.0825 6.88697L10.7419 6.13519C10.0416 5.52092 9.45965 4.75097 9.45965 3.54034H8.45965ZM10.0825 6.88697L9.42163 6.13648C8.41328 7.02443 7.45959 8.29113 7.45959 10.2315H8.45959H9.45959C9.45959 9.06165 9.99329 8.298 10.7434 7.63746L10.0825 6.88697ZM8.45959 10.2315H7.45959C7.45959 12.2357 8.4859 13.5078 9.42307 14.3298L10.0825 13.578L10.7418 12.8262C10.0415 12.212 9.45959 11.4422 9.45959 10.2315H8.45959ZM10.0825 13.578L9.42158 12.8275C8.41328 13.7154 7.45965 14.9821 7.45965 16.9223H8.45965H9.45965C9.45965 15.7526 9.99329 14.989 10.7433 14.3285L10.0825 13.578ZM8.45965 16.9223H7.45965C7.45965 18.9264 8.48596 20.1986 9.42308 21.0205L10.0825 20.2687L10.7418 19.5169C10.0416 18.9027 9.45965 18.1329 9.45965 16.9223H8.45965ZM10.0825 20.2687L9.4216 19.5182C8.41325 20.4061 7.45959 21.6727 7.45959 23.613H8.45959H9.45959C9.45959 22.4432 9.99322 21.6797 10.7433 21.0192L10.0825 20.2687ZM8.45959 23.613H7.45959C7.45959 24.379 8.08063 25.0001 8.84669 25.0001V24.0001V23.0001C9.1852 23.0001 9.45959 23.2745 9.45959 23.613H8.45959ZM8.84669 24.0001V25.0001H10.3952V24.0001V23.0001H8.84669V24.0001ZM10.3952 24.0001V25.0001C11.1613 25.0001 11.7823 24.379 11.7823 23.613H10.7823H9.78233C9.78233 23.2745 10.0567 23.0001 10.3952 23.0001V24.0001ZM10.7823 23.613H11.7823C11.7823 23.4054 11.825 23.2847 11.9079 23.1606C12.014 23.0017 12.212 22.801 12.6095 22.4963L12.0011 21.7027L11.3928 20.909C10.949 21.2492 10.5377 21.6111 10.2446 22.05C9.92841 22.5236 9.78233 23.0357 9.78233 23.613H10.7823ZM12.0011 21.7027L11.3947 22.4978C11.7838 22.7946 11.981 22.9918 12.0884 23.1513C12.1728 23.2767 12.2176 23.401 12.2176 23.613H13.2176H14.2176C14.2176 23.0245 14.0657 22.5074 13.7476 22.0347C13.4524 21.5961 13.0414 21.2384 12.6076 20.9075L12.0011 21.7027ZM13.2176 23.613H12.2176C12.2176 24.3789 12.8385 25.0001 13.6047 25.0001V24.0001V23.0001C13.9433 23.0001 14.2176 23.2745 14.2176 23.613H13.2176ZM13.6047 24.0001V25.0001H15.1533V24.0001V23.0001H13.6047V24.0001ZM15.1533 24.0001V25.0001C15.9195 25.0001 16.5404 24.3789 16.5404 23.613H15.5404H14.5404C14.5404 23.2745 14.8147 23.0001 15.1533 23.0001V24.0001ZM15.5404 23.613H16.5404C16.5404 21.6088 15.5141 20.3366 14.5769 19.5147L13.9175 20.2665L13.2581 21.0183C13.9584 21.6325 14.5404 22.4023 14.5404 23.613H15.5404ZM9.23379 10.2314H10.2338C10.2338 9.24105 10.7164 8.62866 11.5345 7.98432L10.9158 7.19871L10.2971 6.4131C9.27553 7.21764 8.23379 8.34491 8.23379 10.2314H9.23379ZM10.9158 7.19871L11.5059 8.00601C11.529 7.98916 11.5617 7.96436 11.5982 7.93258L10.9417 7.17827L10.2851 6.42397C10.3049 6.40674 10.3203 6.39535 10.3257 6.39141L10.9158 7.19871ZM10.9417 7.17827L11.5577 7.96595C11.805 7.77256 12.0678 7.58729 12.3524 7.38715L11.7772 6.56914L11.202 5.75112C10.9237 5.94685 10.6194 6.16076 10.3256 6.39059L10.9417 7.17827ZM11.7772 6.56914L12.3524 7.38717C13.4581 6.60968 14.9918 5.6069 14.9918 3.54028H13.9918H12.9918C12.9918 4.41726 12.4729 4.85757 11.202 5.75111L11.7772 6.56914ZM13.9918 3.54028H14.9918C14.9918 1.88973 13.6505 0.54849 12 0.54849V1.54849V2.54849C12.546 2.54849 12.9918 2.9943 12.9918 3.54028H13.9918ZM12 1.54849V0.54849C10.3494 0.54849 9.00819 1.88973 9.00819 3.54028H10.0082H11.0082C11.0082 2.9943 11.454 2.54849 12 2.54849V1.54849ZM10.0082 3.54028H9.00819C9.00819 5.09857 9.8881 6.03921 10.723 6.70631L11.3472 5.92506L11.9715 5.14381C11.3175 4.62133 11.0082 4.19403 11.0082 3.54028H10.0082ZM11.3472 5.92506L10.7721 5.10697C10.7694 5.10893 10.7666 5.11084 10.7641 5.11263C10.7615 5.11446 10.7591 5.11615 10.7567 5.11786L11.3317 5.93595L11.9068 6.75404C11.9096 6.75208 11.9124 6.75016 11.9149 6.74837C11.9175 6.74655 11.9199 6.74485 11.9223 6.74315L11.3472 5.92506ZM11.3317 5.93595L10.7566 5.11789C10.551 5.26242 10.3249 5.42159 10.0966 5.59229L10.6954 6.39319L11.2942 7.19409C11.4958 7.04334 11.6991 6.90006 11.9069 6.75401L11.3317 5.93595ZM10.6954 6.39319L11.3399 5.62863C10.6921 5.08251 10.2338 4.48786 10.2338 3.54028H9.23384H8.23384C8.23384 5.32654 9.18582 6.42851 10.0508 7.15774L10.6954 6.39319ZM9.23384 3.54028H10.2338C10.2338 2.56737 11.027 1.77419 12 1.77419V0.774194V-0.225806C9.92244 -0.225806 8.23384 1.46277 8.23384 3.54028H9.23384ZM12 0.774194V1.77419C12.973 1.77419 13.7661 2.56736 13.7661 3.54034H14.7661H15.7661C15.7661 1.46279 14.0775 -0.225806 12 -0.225806V0.774194ZM14.7661 3.54034H13.7661C13.7661 4.53224 13.2821 5.1451 12.4615 5.79054L13.0798 6.57652L13.698 7.36249C14.721 6.55782 15.7661 5.42998 15.7661 3.54034H14.7661ZM13.0798 6.57652L12.4807 5.77581C12.4718 5.7825 12.4414 5.8051 12.407 5.83471L13.0592 6.59272L13.7115 7.35073C13.7 7.36061 13.6907 7.36798 13.6854 7.37219C13.6803 7.37614 13.677 7.37857 13.6788 7.37723L13.0798 6.57652ZM13.0592 6.59272L12.443 5.80514C12.1955 5.99876 11.9325 6.1842 11.6476 6.3845L12.2227 7.20258L12.7978 8.02066C13.0766 7.82468 13.3812 7.61053 13.6754 7.38031L13.0592 6.59272ZM12.2227 7.20258L11.6475 6.38455C10.5417 7.16206 9.00819 8.16489 9.00819 10.2314H10.0082H11.0082C11.0082 9.35449 11.5271 8.91412 12.7979 8.02061L12.2227 7.20258ZM10.0082 10.2314H9.00819C9.00819 11.7898 9.88816 12.7303 10.7231 13.3974L11.3473 12.6161L11.9715 11.8348C11.3175 11.3123 11.0082 10.8851 11.0082 10.2314H10.0082ZM11.3473 12.6161L10.7738 11.7969C10.7688 11.8004 10.7642 11.8037 10.762 11.8052C10.7606 11.8062 10.7599 11.8067 10.7593 11.8071C10.7587 11.8075 10.7585 11.8077 10.7586 11.8076L11.3321 12.6268L11.9055 13.4461C11.9106 13.4425 11.9152 13.4393 11.9174 13.4377C11.9187 13.4368 11.9194 13.4363 11.9201 13.4358C11.9207 13.4354 11.9208 13.4353 11.9207 13.4353L11.3473 12.6161ZM11.3321 12.6268L10.7569 11.8088C10.5514 11.9533 10.325 12.1126 10.0966 12.2834L10.6954 13.0842L11.2942 13.8851C11.4959 13.7344 11.6993 13.5911 11.9072 13.4449L11.3321 12.6268ZM10.6954 13.0842L11.3399 12.3196C10.6921 11.7736 10.2338 11.179 10.2338 10.2314H9.23379H8.23379C8.23379 12.0177 9.18586 13.1197 10.0509 13.8488L10.6954 13.0842ZM10.7824 3.54034H11.7824C11.7824 3.42124 11.8809 3.32274 12 3.32274V2.32274V1.32274C10.7763 1.32274 9.78238 2.31667 9.78238 3.54034H10.7824ZM12 2.32274V3.32274C12.1191 3.32274 12.2176 3.42124 12.2176 3.54034H13.2176H14.2176C14.2176 2.31667 13.2236 1.32274 12 1.32274V2.32274ZM13.2176 3.54034H12.2176C12.2176 3.74808 12.1748 3.86882 12.092 3.99297C11.9859 4.15181 11.7879 4.3526 11.3904 4.65728L11.9987 5.45094L12.6071 6.24461C13.051 5.90439 13.4623 5.54238 13.7554 5.10341C14.0716 4.62974 14.2176 4.11762 14.2176 3.54034H13.2176ZM11.9987 5.45094L12.6052 4.65584C12.216 4.35898 12.0189 4.16174 11.9116 4.00229C11.8273 3.87694 11.7824 3.75265 11.7824 3.54034H10.7824H9.78238C9.78238 4.12875 9.93411 4.64584 10.2522 5.11866C10.5473 5.55739 10.9584 5.91508 11.3923 6.24604L11.9987 5.45094ZM13.2176 10.2314H12.2176C12.2176 10.439 12.1749 10.5598 12.092 10.6839C11.986 10.8428 11.7879 11.0435 11.3905 11.3482L11.9988 12.1418L12.6072 12.9355C13.051 12.5953 13.4623 12.2334 13.7554 11.7944C14.0716 11.3208 14.2176 10.8087 14.2176 10.2314H13.2176ZM11.9988 12.1418L12.6053 11.3467C12.2162 11.0499 12.019 10.8527 11.9117 10.6932C11.8273 10.5678 11.7824 10.4435 11.7824 10.2314H10.7824H9.78238C9.78238 10.8199 9.93425 11.337 10.2524 11.8098C10.5476 12.2484 10.9586 12.6061 11.3924 12.9369L11.9988 12.1418ZM10.7824 10.2314H11.7824C11.7824 10.0237 11.8251 9.90303 11.908 9.77888C12.0141 9.62003 12.2121 9.41926 12.6096 9.11458L12.0012 8.32093L11.3928 7.52728C10.9491 7.86745 10.5377 8.22941 10.2447 8.66835C9.92844 9.14198 9.78238 9.65409 9.78238 10.2314H10.7824ZM12.0012 8.32093L11.3947 9.116C11.7838 9.41283 11.981 9.6101 12.0883 9.76959C12.1727 9.895 12.2176 10.0193 12.2176 10.2314H13.2176H14.2176C14.2176 9.64291 14.0658 9.1258 13.7477 8.65306C13.4525 8.2144 13.0415 7.85674 12.6077 7.52586L12.0012 8.32093ZM9.23384 16.9223H10.2338C10.2338 15.9295 10.7188 15.3164 11.5411 14.6701L10.9231 13.8839L10.3052 13.0977C9.28132 13.9025 8.23384 15.0305 8.23384 16.9223H9.23384ZM10.9231 13.8839L11.5335 14.6761C11.5344 14.6753 11.5526 14.6615 11.5727 14.6447L10.9325 13.8765L10.2923 13.1083C10.3002 13.1017 10.3065 13.0967 10.3098 13.0941C10.3127 13.0919 10.3149 13.0901 10.3128 13.0918L10.9231 13.8839ZM10.9325 13.8765L11.5495 14.6635C11.7991 14.4678 12.0647 14.2805 12.3525 14.0782L11.7773 13.2601L11.2022 12.4421C10.9206 12.64 10.6127 12.8566 10.3155 13.0895L10.9325 13.8765ZM11.7773 13.2601L12.3525 14.0782C13.4582 13.3007 14.9918 12.298 14.9918 10.2314H13.9918H12.9918C12.9918 11.1083 12.473 11.5485 11.2021 12.4421L11.7773 13.2601ZM13.9918 10.2314H14.9918C14.9918 8.67308 14.1119 7.73248 13.2769 7.06539L12.6527 7.84666L12.0285 8.62793C12.6825 9.15041 12.9918 9.57765 12.9918 10.2314H13.9918ZM12.6527 7.84666L13.2262 8.66589C13.2291 8.66386 13.2316 8.66207 13.2335 8.66072C13.2351 8.65959 13.2373 8.65807 13.2379 8.65765C13.2401 8.6561 13.2393 8.65666 13.2377 8.65777L12.6681 7.83587L12.0984 7.01397C12.0916 7.0187 12.0857 7.02285 12.0829 7.02488C12.079 7.02764 12.0792 7.02744 12.0793 7.02743L12.6527 7.84666ZM12.6681 7.83587L13.2432 8.6539C13.4487 8.50941 13.675 8.35019 13.9034 8.17941L13.3046 7.37853L12.7058 6.57765C12.5041 6.72842 12.3008 6.87165 12.0929 7.01784L12.6681 7.83587ZM13.3046 7.37853L12.66 8.14308C13.3079 8.68925 13.7662 9.28395 13.7662 10.2314H14.7662H15.7662C15.7662 8.44519 14.8141 7.34317 13.9492 6.61398L13.3046 7.37853ZM14.7662 10.2314H13.7662C13.7662 11.2254 13.2801 11.8388 12.4559 12.4861L13.0735 13.2726L13.6911 14.059C14.7161 13.2541 15.7662 12.1256 15.7662 10.2314H14.7662ZM13.0735 13.2726L12.4557 12.4863C12.4587 12.4839 12.4608 12.4822 12.4603 12.4826C12.4602 12.4827 12.4601 12.4828 12.4598 12.483C12.4596 12.4832 12.4591 12.4835 12.4586 12.4839C12.4577 12.4846 12.4561 12.4859 12.4543 12.4873C12.4476 12.4924 12.4311 12.5053 12.4112 12.5223L13.0605 13.2828L13.7097 14.0434C13.7016 14.0504 13.6947 14.056 13.6897 14.06C13.6848 14.064 13.681 14.0669 13.6796 14.068C13.6788 14.0686 13.6784 14.0689 13.6785 14.0688C13.6786 14.0688 13.6787 14.0687 13.679 14.0685C13.6792 14.0683 13.6796 14.0679 13.6801 14.0676C13.6818 14.0663 13.6861 14.063 13.6913 14.0589L13.0735 13.2726ZM13.0605 13.2828L12.4442 12.4953C12.1964 12.6892 11.9329 12.875 11.6476 13.0756L12.2228 13.8936L12.798 14.7116C13.0771 14.5154 13.3821 14.3009 13.6767 14.0704L13.0605 13.2828ZM12.2228 13.8936L11.6476 13.0756C10.5419 13.8531 9.00829 14.8558 9.00829 16.9223H10.0083H11.0083C11.0083 16.0455 11.5271 15.6052 12.798 14.7117L12.2228 13.8936ZM10.0083 16.9223H9.00829C9.00829 18.4805 9.88826 19.4211 10.7232 20.0881L11.3473 19.3068L11.9715 18.5256C11.3176 18.0031 11.0083 17.5759 11.0083 16.9223H10.0083ZM11.3473 19.3068L10.7739 18.4876C10.7659 18.4932 10.7588 18.4982 10.7531 18.5022L11.3321 19.3176L11.911 20.133C11.9157 20.1297 11.9184 20.1277 11.9208 20.1261L11.3473 19.3068ZM11.3321 19.3176L10.7569 18.4996C10.5515 18.644 10.3251 18.8033 10.0966 18.9741L10.6955 19.775L11.2943 20.5758C11.4959 20.4251 11.6992 20.2819 11.9072 20.1357L11.3321 19.3176ZM10.6955 19.775L11.34 19.0104C10.6921 18.4642 10.2338 17.8697 10.2338 16.9223H9.23384H8.23384C8.23384 18.7085 9.18595 19.8104 10.0509 20.5395L10.6955 19.775ZM13.2176 16.9223H12.2176C12.2176 17.1299 12.1749 17.2506 12.092 17.3747C11.986 17.5335 11.7879 17.7342 11.3905 18.0388L11.9988 18.8325L12.6072 19.6262C13.0509 19.2861 13.4623 18.9241 13.7553 18.4852C14.0715 18.0116 14.2176 17.4995 14.2176 16.9223H13.2176ZM11.9988 18.8325L12.6053 18.0374C12.2162 17.7406 12.019 17.5434 11.9116 17.3839C11.8273 17.2585 11.7824 17.1343 11.7824 16.9223H10.7824H9.78238C9.78238 17.5108 9.93427 18.0278 10.2524 18.5005C10.5476 18.9392 10.9586 19.2968 11.3924 19.6276L11.9988 18.8325ZM10.7824 16.9223H11.7824C11.7824 16.7147 11.8251 16.594 11.908 16.4698C12.014 16.311 12.2121 16.1102 12.6095 15.8056L12.0011 15.0119L11.3927 14.2183C10.949 14.5584 10.5377 14.9204 10.2447 15.3593C9.92846 15.8329 9.78238 16.345 9.78238 16.9223H10.7824ZM12.0011 15.0119L11.3947 15.807C11.7838 16.1038 11.981 16.3011 12.0883 16.4606C12.1727 16.586 12.2176 16.7102 12.2176 16.9223H13.2176H14.2176C14.2176 16.3338 14.0657 15.8167 13.7476 15.344C13.4524 14.9053 13.0414 14.5477 12.6076 14.2168L12.0011 15.0119ZM10.0334 23.2258V22.2258H9.25309V23.2258V24.2258H10.0334V23.2258ZM9.25309 23.2258L10.2479 23.3274C10.331 22.5137 10.7834 21.9568 11.5361 21.3643L10.9177 20.5785L10.2992 19.7927C9.38162 20.5149 8.42298 21.5119 8.25827 23.1242L9.25309 23.2258ZM10.9177 20.5785L11.5109 21.3836C11.5233 21.3744 11.5476 21.3563 11.5758 21.3328L10.9349 20.5651L10.2941 19.7975C10.3111 19.7833 10.3238 19.774 10.3245 19.7735L10.9177 20.5785ZM10.9349 20.5651L11.5516 21.3523C11.8005 21.1574 12.0653 20.9708 12.3523 20.7689L11.7772 19.9509L11.2021 19.1328C10.9215 19.33 10.6145 19.5458 10.3183 19.7779L10.9349 20.5651ZM11.7772 19.9509L12.3524 20.7689C13.4581 19.9915 14.9917 18.9888 14.9917 16.9223H13.9917H12.9917C12.9917 17.7991 12.4729 18.2393 11.2021 19.1328L11.7772 19.9509ZM13.9917 16.9223H14.9917C14.9917 15.364 14.1118 14.4235 13.2769 13.7564L12.6527 14.5377L12.0285 15.3189C12.6824 15.8414 12.9917 16.2686 12.9917 16.9223H13.9917ZM12.6527 14.5377L13.2317 15.353C13.2362 15.3498 13.2398 15.3473 13.2432 15.3449L12.6681 14.5268L12.093 13.7087C12.0859 13.7137 12.0795 13.7182 12.0738 13.7223L12.6527 14.5377ZM12.6681 14.5268L13.2432 15.3448C13.4487 15.2004 13.675 15.0411 13.9033 14.8704L13.3045 14.0695L12.7057 13.2686C12.5042 13.4194 12.3008 13.5626 12.0929 13.7088L12.6681 14.5268ZM13.3045 14.0695L12.66 14.8341C13.3078 15.3802 13.7661 15.9748 13.7661 16.9222H14.7661H15.7661C15.7661 15.136 14.814 14.0341 13.9491 13.305L13.3045 14.0695ZM14.7661 16.9222H13.7661C13.7661 17.9126 13.2834 18.5249 12.4652 19.1693L13.0839 19.9549L13.7026 20.7405C14.7241 19.9361 15.7661 18.8089 15.7661 16.9222H14.7661ZM13.0839 19.9549L12.4932 19.148C12.4719 19.1636 12.4395 19.1881 12.403 19.2198L13.0585 19.975L13.7139 20.7302C13.6939 20.7476 13.6786 20.7589 13.6746 20.7618L13.0839 19.9549ZM13.0585 19.975L12.4424 19.1872C12.195 19.3807 11.9322 19.566 11.6474 19.7663L12.2226 20.5843L12.7979 21.4023C13.0762 21.2065 13.3806 20.9926 13.6745 20.7627L13.0585 19.975ZM12.2226 20.5843L11.6475 19.7662C10.653 20.4655 9.2754 21.3681 9.04244 23.0919L10.0334 23.2258L11.0244 23.3597C11.1206 22.6477 11.634 22.2206 12.7978 21.4023L12.2226 20.5843ZM13.966 23.2258L14.9567 23.0895C14.7823 21.8222 13.9987 21.0238 13.2768 20.4471L12.6526 21.2284L12.0284 22.0097C12.6136 22.4772 12.9063 22.8602 12.9754 23.3622L13.966 23.2258ZM12.6526 21.2284L13.2277 22.0465C13.2312 22.0441 13.2344 22.0418 13.2368 22.0401C13.2395 22.0382 13.2413 22.0369 13.2431 22.0356L12.668 21.2176L12.0929 20.3995C12.0895 20.4019 12.0862 20.4042 12.0838 20.4059C12.0812 20.4078 12.0793 20.409 12.0775 20.4103L12.6526 21.2284ZM12.668 21.2176L13.2432 22.0356C13.4486 21.8912 13.675 21.7319 13.9033 21.5612L13.3045 20.7603L12.7057 19.9594C12.5042 20.1101 12.3009 20.2533 12.0928 20.3995L12.668 21.2176ZM13.3045 20.7603L12.66 21.5248C13.2519 22.0238 13.6713 22.5549 13.7518 23.3293L14.7465 23.2258L15.7411 23.1224C15.5837 21.6089 14.7218 20.6471 13.9491 19.9957L13.3045 20.7603ZM14.7465 23.2258V22.2258H13.966V23.2258V24.2258H14.7465V23.2258Z" fill="black" mask="url(#path-1-inside-1_277_8)"/>
</g>
<defs>
<clipPath id="clip0_277_8">
<rect width="24" height="24" fill="white"/>
</clipPath>
</defs>
</svg>
